<?xml version="1.0" standalone="no"?>
<!DOCTYPE svg PUBLIC "-//W3C//DTD SVG 1.1//EN" "http://www.w3.org/Graphics/SVG/1.1/DTD/svg11.dtd" >
<svg xmlns="http://www.w3.org/2000/svg" xmlns:xlink="http://www.w3.org/1999/xlink" version="1.1">
<metadata>
Created by FontForge 20170731 at Fri Mar 26 14:57:57 2021
 By Aleksey,,,
Copyright (c) 2015 by Andriy Konstantynov. All rights reserved.
</metadata>
<defs>
<font id="DiariaPro-Light" horiz-adv-x="1169" >
  <font-face 
    font-family="DiariaPro-Light"
    font-weight="400"
    font-stretch="normal"
    units-per-em="2048"
    panose-1="2 13 0 3 3 2 0 0 0 0"
    ascent="1561"
    descent="-487"
    x-height="1059"
    cap-height="1434"
    bbox="-301 -528 2488 1925"
    underline-thickness="102"
    underline-position="-204"
    unicode-range="U+0020-FB04"
  />
<missing-glyph horiz-adv-x="530" 
 />
    <glyph glyph-name="ff" unicode="ff" horiz-adv-x="1392" 
d="M879 102v848h-494v-858l195 -6v-86h-488v76l141 26v848h-141v90l141 19v80q0 180 103 286q102 105 299 105q194 0 309 -86q82 106 277 106q72 0 131 -13q58 -13 88 -26l26 -12v-233h-108l-25 155q-44 21 -116 21q-38 0 -80 -8q-32 -6 -58 -17l-18 -8q-31 -65 -31 -213
v-137h291v-109h-291v-858l195 -6v-86h-490v76zM385 1133v-74h494v143q0 101 24 170q-126 49 -270 49q-54 0 -104 -8q-42 -7 -62 -16l-18 -8q-64 -84 -64 -256z" />
    <glyph glyph-name="fi" unicode="fi" horiz-adv-x="1228" 
d="M385 950v-858l195 -6v-86h-488v76l141 26v848h-141v90l141 19v86q0 194 132 300q131 105 337 105q142 0 221 -48q78 -47 78 -130q0 -29 -10 -55q-11 -29 -20 -39l-10 -12h-115l-21 149q-24 35 -149 35q-73 0 -128 -14q-61 -16 -81 -29l-25 -14q-57 -84 -57 -248v-86h328
l282 14l17 -16v-967l141 -12v-78h-434v76l141 26v848h-475z" />
    <glyph glyph-name="fl" unicode="fl" horiz-adv-x="1239" 
d="M92 942v90l141 21v110q0 204 97 296q95 91 305 91q89 0 176 -16l201 16l18 -18v-1442l141 -12v-78h-436v82l144 27v1304l-7 2q-89 27 -231 27q-83 0 -133 -10q-52 -10 -66 -19l-14 -10q-43 -95 -43 -246v-104h311v-111h-311v-850l195 -6v-86h-488v76l141 26v840h-141z
" />
    <glyph glyph-name="ffi" unicode="ffi" horiz-adv-x="1871" 
d="M879 102v848h-494v-858l195 -6v-86h-488v76l141 26v848h-141v90l141 19v55q0 196 108 306t310 110q90 0 176 -26q84 -26 115 -44q31 -19 47 -33q125 123 357 123q140 0 220 -48q79 -48 79 -130q0 -25 -10 -55q-9 -28 -19 -39l-10 -12h-115l-21 149q-24 35 -149 35
q-73 0 -128 -14q-62 -16 -83 -29l-23 -14q-57 -84 -57 -248v-86h328l280 14l17 -16v-967l143 -12v-78h-434v76l141 26v848h-475v-858l195 -6v-86h-490v76zM385 1106v-47h494v86q0 126 55 215q-104 61 -281 61q-70 0 -117 -10q-53 -11 -69 -22l-16 -11q-66 -92 -66 -272z" />
    <glyph glyph-name="ffl" unicode="ffl" horiz-adv-x="1884" 
d="M879 102v848h-494v-858l195 -6v-86h-488v76l141 26v848h-141v90l141 19v80q0 180 103 286q102 105 299 105q191 0 321 -90q95 110 324 110q89 0 176 -16l201 16l16 -18v-1442l142 -12v-78h-435v82l144 27v1304l-6 2q-89 27 -232 27q-83 0 -133 -10t-68 -19l-12 -10
q-43 -95 -43 -246v-98h311v-109h-311v-858l195 -6v-86h-490v76zM385 1133v-74h494v104q0 124 34 205q-135 53 -280 53q-54 0 -104 -8q-42 -7 -62 -16l-18 -8q-64 -84 -64 -256z" />
    <glyph glyph-name="f_f_j" unicode="ffj" horiz-adv-x="1871" 
d="M879 102v848h-494v-858l195 -6v-86h-488v76l141 26v848h-141v90l141 19v55q0 196 108 306t310 110q90 0 176 -26q84 -26 115 -44q31 -19 47 -33q125 123 357 123q140 0 220 -48q79 -48 79 -130q0 -25 -10 -55q-9 -28 -19 -39l-10 -12h-115l-21 149q-24 35 -149 35
q-73 0 -128 -14q-62 -16 -83 -29l-23 -14q-57 -84 -57 -248v-86h328l280 14l17 -16v-1055q0 -268 -84 -378q-84 -109 -256 -109q-36 0 -84 5q-43 4 -64 9l-22 6l22 131q74 -41 168 -41q24 0 56 5q20 3 43 10l14 4q57 92 57 358v948h-475v-858l195 -6v-86h-490v76zM385 1106
v-47h494v86q0 126 55 215q-104 61 -281 61q-70 0 -117 -10q-53 -11 -69 -22l-16 -11q-66 -92 -66 -272z" />
    <glyph glyph-name="f_j" unicode="fj" horiz-adv-x="1228" 
d="M385 950v-858l195 -6v-86h-488v76l141 26v848h-141v90l141 19v86q0 194 132 300q131 105 337 105q142 0 221 -48q78 -47 78 -130q0 -29 -10 -55q-11 -29 -20 -39l-10 -12h-115l-21 149q-24 35 -149 35q-73 0 -128 -14q-61 -16 -81 -29l-25 -14q-57 -84 -57 -248v-86h328
l282 14l17 -16v-1055q0 -268 -84 -378q-84 -109 -256 -109q-36 0 -84 5q-43 4 -64 9l-22 6l22 131q74 -41 166 -41q23 0 55 5q20 3 43 10l15 4q57 92 57 358v948h-475z" />
    <glyph glyph-name="afii10104_afii10104" unicode="&#x457;&#x457;" horiz-adv-x="1196" 
d="M0 1368q0 43 26 69q25 25 66 25q44 0 69 -25t25 -69q0 -42 -25 -68t-69 -26q-41 0 -66 26q-26 28 -26 68zM492 1368q0 44 26 69t68 25q41 0 67 -25q27 -25 27 -69q0 -41 -27 -68q-26 -26 -67 -26q-42 0 -68 26t-26 68zM88 979v72l277 22l16 -16v-967l143 -12v-78h-436v76
l141 26v834zM983 1368q0 43 26 69q25 25 68 25q42 0 68 -25t26 -69q0 -42 -26 -68t-68 -26q-43 0 -68 26q-26 28 -26 68zM686 979v72l277 22l16 -16v-967l143 -12v-78h-436v76l141 26v834z" />
    <glyph glyph-name=".notdef" horiz-adv-x="530" 
 />
    <glyph glyph-name=".null" horiz-adv-x="0" 
 />
    <glyph glyph-name="nonmarkingreturn" horiz-adv-x="681" 
 />
    <glyph glyph-name="space" unicode=" " horiz-adv-x="530" 
 />
    <glyph glyph-name="exclam" unicode="!" horiz-adv-x="612" 
d="M197 98q0 50 30 80q31 31 78 31q50 0 80 -30q31 -31 31 -81q0 -49 -31 -80q-30 -30 -80 -30q-48 0 -78 30t-30 80zM246 403l-17 662v369h156v-369l-16 -662h-123z" />
    <glyph glyph-name="quotedbl" unicode="&#x22;" horiz-adv-x="790" 
d="M182 897v496h140l-35 -496h-105zM487 897v496h138l-33 -496h-105z" />
    <glyph glyph-name="numbersign" unicode="#" horiz-adv-x="1269" 
d="M174 1038h229l74 396h113l-76 -396h356l74 396h113l-76 -396h207v-100h-225l-82 -442h213v-101h-232l-74 -395h-110l74 395h-357l-73 -395h-111l74 395h-203v101h221l82 442h-211v100zM496 938l-82 -442h356l82 442h-356z" />
    <glyph glyph-name="dollar" unicode="$" horiz-adv-x="1107" 
d="M442 -152l11 138q-108 6 -189 29q-90 25 -121 44l-32 21v321h102l35 -237q73 -50 213 -62l39 560q-7 1 -27 10q-83 30 -134 58q-55 31 -109 77q-55 47 -82 117q-27 69 -27 161q0 167 101 265t333 100l6 86h84l-6 -90q83 -7 159 -31q75 -23 103 -43l29 -18v-320h-107
l-28 236q-54 44 -164 59l-39 -538l31 -11q84 -30 141 -60q58 -31 113 -78t82 -117q28 -72 28 -158q0 -373 -452 -383l-9 -136h-84zM840 354q0 112 -66 171q-67 60 -192 108l-39 -533q61 0 121 12q66 13 86 21l28 10q62 91 62 211zM270 1104q0 -114 62 -176q63 -63 178 -107
l37 514q-60 0 -114 -10q-61 -11 -85 -20l-26 -11q-52 -78 -52 -190z" />
    <glyph glyph-name="percent" unicode="%" horiz-adv-x="1687" 
d="M436 0h-123l949 1434h122zM121 1075q0 173 87 272t230 99q142 0 229 -99t87 -272q0 -172 -87 -271t-229 -99q-143 0 -230 99t-87 271zM244 1079q0 -135 53 -208q53 -72 147 -72q24 0 56 5q26 4 45 11l14 4q9 9 21 27q10 15 32 84q21 66 21 143q0 134 -53 207
q-52 72 -146 72q-26 0 -56 -6q-21 -4 -46 -11l-17 -6q-10 -10 -20 -25q-13 -20 -32 -82q-19 -63 -19 -143zM944 358q0 173 87 272t231 99q140 0 229 -99q88 -98 88 -272q0 -173 -88 -271q-89 -99 -229 -99q-144 0 -231 99t-87 271zM1067 362q0 -135 54 -207q55 -73 149 -73
q23 0 55 5q26 4 43 11l16 4q9 9 21 27q13 19 32 84q19 64 19 143q0 136 -52 207q-52 72 -147 72q-26 0 -56 -6q-35 -7 -46 -10l-16 -7q-13 -13 -21 -25q-13 -20 -32 -82q-19 -63 -19 -143z" />
    <glyph glyph-name="ampersand" unicode="&#x26;" horiz-adv-x="1411" 
d="M1206 627q0 -211 -139 -389l129 -148l135 -12v-78h-246l-129 150q-144 -164 -421 -164q-204 0 -310 95q-104 94 -104 267q0 158 78 257q78 98 215 183q-142 187 -142 342q0 146 93 230q91 82 249 82q144 0 226 -69t82 -202q0 -71 -25 -132q-23 -56 -80 -107
q-53 -48 -96 -76q-41 -27 -123 -72l410 -477q86 140 86 320v71l-140 13v80h385v-76l-133 -27v-61zM588 102q191 0 315 109l-426 502q-99 -65 -155 -142t-56 -188q0 -133 81 -207q82 -74 241 -74zM414 1149q0 -135 123 -291q46 26 102 62q34 22 79 62q40 36 61 82
q20 45 20 95q0 82 -50 127q-49 45 -147 45q-38 0 -81 -8q-35 -7 -58 -16l-21 -11q-28 -49 -28 -147z" />
    <glyph glyph-name="quotesingle" unicode="'" horiz-adv-x="487" 
d="M182 897v496h140l-35 -496h-105z" />
    <glyph glyph-name="parenleft" unicode="(" horiz-adv-x="602" 
d="M109 664q0 189 38 344q39 159 94 255q54 95 109 163q57 71 94 98l39 26l25 -32q-4 -4 -28 -32q-13 -15 -60 -98q-42 -73 -76 -167q-33 -89 -60 -241q-28 -156 -28 -316q0 -163 26 -316q26 -154 62 -243q37 -91 75 -163q40 -76 64 -102l25 -28l-25 -35q-14 7 -40 27
q-24 19 -90 95q-61 71 -113 167q-50 92 -90 252q-41 162 -41 346z" />
    <glyph glyph-name="parenright" unicode=")" horiz-adv-x="602" 
d="M494 664q0 -186 -39 -345q-38 -157 -94 -254q-56 -98 -109 -164q-57 -71 -94 -98l-39 -26l-25 35q10 10 28 31q13 15 60 98q44 77 76 165q33 89 60 241q28 156 28 317q0 168 -25 315q-25 149 -63 244q-37 93 -75 163q-41 75 -64 101l-25 31l25 32q14 -7 40 -27
q24 -19 90 -95q63 -73 113 -166q51 -94 91 -253q41 -162 41 -345z" />
    <glyph glyph-name="asterisk" unicode="*" horiz-adv-x="956" 
d="M477 977l-168 -272l-110 77l207 246l-308 80l41 127l295 -121l-22 320h133l-23 -320l295 121l41 -127l-307 -80l205 -246l-109 -77z" />
    <glyph glyph-name="plus" unicode="+" horiz-adv-x="1026" 
d="M129 645v103h334v331h102v-331h332v-103h-332v-332h-102v332h-334z" />
    <glyph glyph-name="comma" unicode="," horiz-adv-x="440" 
d="M98 -279l-28 46q20 15 40 32q24 21 61 80q37 60 36 115q-44 5 -69 34t-25 72q0 49 29 78q31 31 79 31q111 0 111 -143q0 -63 -24 -123q-24 -61 -58 -99q-30 -34 -70 -67q-31 -26 -57 -43z" />
    <glyph glyph-name="hyphen" unicode="-" horiz-adv-x="688" 
d="M117 575v111h454v-111h-454z" />
    <glyph glyph-name="period" unicode="." horiz-adv-x="440" 
d="M111 98q0 50 30 80q31 31 78 31q50 0 80 -30q31 -31 31 -81q0 -49 -31 -80q-30 -30 -80 -30q-48 0 -78 30t-30 80z" />
    <glyph glyph-name="slash" unicode="/" horiz-adv-x="817" 
d="M139 -205h-110l630 1741h113z" />
    <glyph glyph-name="zero" unicode="0" horiz-adv-x="1196" 
d="M117 696q0 330 132 522q131 191 349 191t348 -191q131 -193 131 -522q0 -328 -131 -521q-130 -191 -348 -191t-349 191q-132 192 -132 521zM281 700q0 -294 86 -448t237 -154q47 0 95 15q55 17 71 28l25 15q8 12 32 52q21 36 54 174q32 134 32 310q0 297 -85 449
q-86 153 -234 153q-52 0 -97 -14q-51 -16 -73 -31l-25 -14q-6 -8 -32 -51q-21 -34 -54 -173q-32 -134 -32 -311z" />
    <glyph glyph-name="one" unicode="1" horiz-adv-x="880" 
d="M133 1233v78q222 27 395 96l17 -18v-1287l225 -10v-92h-614v92l239 27v1114h-262z" />
    <glyph glyph-name="two" unicode="2" horiz-adv-x="1120" 
d="M989 1085q0 -101 -45 -192q-44 -90 -128 -180q-77 -83 -173 -169q-77 -69 -208 -197q-116 -113 -206 -226h619l51 223h100l-22 -344h-875v121q85 117 201 242q94 102 199 201q93 88 163 165q76 83 118 169t42 175q0 221 -278 221q-80 0 -139 -14q-67 -16 -89 -31l-26 -14
l-53 -231h-103l25 307q6 5 40 26q28 17 127 44q103 28 220 28q227 0 334 -87q106 -87 106 -237z" />
    <glyph glyph-name="three" unicode="3" horiz-adv-x="1114" 
d="M983 408q0 -210 -136 -316t-368 -106q-115 0 -206 23q-95 24 -134 48l-41 25l29 90l40 -20q29 -14 115 -34q93 -22 187 -22q68 0 127 7q54 6 96 16l31 8q7 5 27 25q16 16 43 85q26 66 26 156q0 152 -74 226q-73 73 -233 73h-92l-17 19v84q43 11 138 134q97 126 172 242
l75 117h-501l-49 -235h-103l25 340h782v-105q-212 -326 -377 -489v-13q418 -39 418 -378z" />
    <glyph glyph-name="four" unicode="4" horiz-adv-x="1204" 
d="M901 1393v-908h195v-116h-191v-273l189 -12v-84h-535v76l195 26v265h-662v65l647 961h162zM248 487h512v762z" />
    <glyph glyph-name="five" unicode="5" horiz-adv-x="1073" 
d="M954 412q0 -216 -132 -321t-363 -105q-119 0 -210 23q-95 24 -134 48l-39 25l28 90q121 -76 330 -76q62 0 122 7q55 6 99 16l35 6q3 3 28 27q17 17 45 88q28 72 28 155q0 178 -118 257t-384 79h-117l-16 17l75 645h670v-121h-565l-53 -432q109 -1 210 -13q90 -10 182 -39
q91 -28 149 -73q59 -45 95 -122q35 -74 35 -181z" />
    <glyph glyph-name="six" unicode="6" horiz-adv-x="1167" 
d="M944 1341l-29 -84q-108 39 -262 39q-84 0 -145 -13q-62 -13 -86 -26l-23 -14q-9 -12 -29 -46q-18 -31 -51 -159q-32 -123 -38 -290q133 94 344 94q202 0 313 -105t111 -303q0 -206 -119 -328q-117 -120 -328 -120q-483 0 -483 698q0 723 518 723q83 0 157 -16
q75 -16 113 -33zM598 733q-168 0 -319 -76q0 -290 77 -425q78 -136 260 -136q48 0 95 9q35 7 71 18l23 8q4 4 24 30q15 20 39 94q25 78 25 165q0 162 -73 238q-72 75 -222 75z" />
    <glyph glyph-name="seven" unicode="7" horiz-adv-x="1083" 
d="M528 0h-161q39 221 107 415q70 201 200 487q132 291 170 386h-592l-49 -235h-103l25 340h864v-66q-44 -121 -165 -404q-116 -272 -190 -492q-74 -221 -106 -431z" />
    <glyph glyph-name="eight" unicode="8" horiz-adv-x="1161" 
d="M125 309q0 151 85 246q86 97 191 147q-239 108 -239 345q0 161 102 262q101 100 324 100q187 0 295 -78t108 -233q0 -244 -248 -375q137 -56 213 -136t76 -229q0 -170 -116 -272t-353 -102q-202 0 -320 79t-118 246zM887 348q0 30 -5 62q-4 27 -20 52q-1 2 -24 41
q-10 18 -39 36q-32 20 -42 28q-15 12 -52 26q-45 17 -53 20q-3 1 -12 4.5t-22 8t-27 8.5q-12 4 -27 8.5t-22.5 7t-11.5 3.5l-32 11q-232 -124 -232 -324q0 -122 89 -181t229 -59q66 0 127 12q67 13 92 23l28 12q56 86 56 201zM309 1067q0 -67 24 -117t75 -84q50 -34 95 -54
q37 -17 122 -46l18 -6q211 118 211 313q0 113 -78 167t-201 54q-59 0 -114 -12q-50 -11 -82 -25l-27 -10q-43 -76 -43 -180z" />
    <glyph glyph-name="nine" unicode="9" horiz-adv-x="1163" 
d="M170 66l27 88q107 -58 295 -58q79 0 147 14t90 25l25 15q7 7 12 14q10 14 29 52q17 34 36 93q16 50 33 143q17 92 21 197q-140 -94 -342 -94q-203 0 -314 102q-110 101 -110 301q0 206 119 328q118 121 327 121q482 0 482 -688q0 -733 -547 -733q-96 0 -176 19
q-82 19 -119 40zM567 664q155 0 320 73v4q0 286 -77 422q-77 135 -259 135q-49 0 -95 -9q-48 -9 -69 -19l-22 -8q-5 -5 -25 -29q-15 -18 -39 -94q-25 -80 -25 -168q0 -162 71 -235q71 -72 220 -72z" />
    <glyph glyph-name="colon" unicode=":" horiz-adv-x="473" 
d="M127 98q0 49 31 80t78 31q49 0 79 -30q31 -31 31 -81q0 -49 -31 -80q-30 -30 -79 -30q-48 0 -78 30q-31 31 -31 80zM127 961q0 49 31 80q30 30 78 30q49 0 79 -30q31 -31 31 -80t-31 -80t-79 -31q-47 0 -78 31t-31 80z" />
    <glyph glyph-name="semicolon" unicode=";" horiz-adv-x="473" 
d="M117 -279l-31 46q20 15 40 32q23 20 62 80q39 59 37 115q-43 4 -68 34q-26 31 -26 72q0 47 29 78t78 31q110 0 110 -143q0 -66 -23 -123q-24 -61 -58 -99q-36 -40 -68 -67q-27 -23 -60 -43zM127 961q0 49 31 80q30 30 78 30q49 0 79 -30q31 -31 31 -80t-31 -80t-79 -31
q-47 0 -78 31t-31 80z" />
    <glyph glyph-name="less" unicode="&#x3c;" horiz-adv-x="1026" 
d="M129 748l768 337v-112l-623 -277l623 -276v-113l-768 338v103z" />
    <glyph glyph-name="equal" unicode="=" horiz-adv-x="1026" 
d="M129 938h768v-100h-768v100zM897 453h-768v102h768v-102z" />
    <glyph glyph-name="greater" unicode="&#x3e;" horiz-adv-x="1026" 
d="M897 748v-103l-768 -338v113l625 276l-625 277v112z" />
    <glyph glyph-name="question" unicode="?" horiz-adv-x="999" 
d="M367 98q0 51 29 80q31 31 79 31q50 0 80 -30q31 -31 31 -81q0 -49 -31 -80q-30 -30 -80 -30q-48 0 -78 30t-30 80zM416 403l-17 304q162 109 236 197q76 91 76 206q0 211 -246 211q-65 0 -121 -15t-78 -30l-22 -14l-54 -234h-102l25 309q8 7 37 27q22 15 116 43
q92 27 201 27q209 0 308 -87t99 -229q0 -126 -78 -226q-79 -101 -239 -210l-18 -279h-123z" />
    <glyph glyph-name="at" unicode="@" horiz-adv-x="1648" 
d="M866 471q80 108 119 311l37 191q-53 20 -129 20q-33 0 -73 -5q-33 -4 -52 -11l-16 -6q-12 -13 -35 -46q-20 -29 -55 -129t-35 -204q0 -86 25 -123t83 -37q31 0 64 9q31 8 49 20zM971 549h-8q-27 -87 -103 -146q-75 -59 -172 -59q-182 0 -182 238q0 208 113 354
q112 145 307 145q58 0 110 -11q70 -15 88 -21l31 -13l-100 -510q-8 -52 9 -70q18 -20 71 -20q37 0 75 7q36 7 64 16l22 8q13 15 36 47q22 31 59 141q36 107 36 238q0 469 -487 469q-102 0 -191 -17q-102 -19 -143 -34l-47 -17q-19 -14 -36 -29q-24 -22 -79 -89
q-57 -69 -101 -148q-45 -80 -80 -202q-36 -124 -36 -257q0 -254 134 -376q133 -121 405 -121q119 0 232 19q119 20 173 40l56 21l20 -46q-1 0 -27 -12q-33 -15 -37 -17q-3 -1 -16.5 -7.5t-24.5 -10.5q-33 -13 -50 -18q-34 -10 -54 -17q-35 -13 -63 -17l-68 -11
q-38 -6 -77 -9q-40 -3 -80 -3q-313 0 -481 152q-169 153 -169 442q0 368 252 620t625 252q272 0 421 -142q150 -142 150 -395q0 -241 -133 -404t-317 -163q-76 0 -116 36q-39 35 -21 114z" />
    <glyph glyph-name="A" unicode="A" horiz-adv-x="1443" 
d="M641 1434h150l20 -21l465 -1319l160 -12v-82h-504v78l162 26l-119 347h-561l-123 -357l166 -12v-82h-449v78l156 26zM664 1167l-213 -608h489l-207 608q-14 43 -31 113h-10q-12 -59 -28 -113z" />
    <glyph glyph-name="B" unicode="B" horiz-adv-x="1261" 
d="M684 0h-596v78l162 26v1235l-162 13v82h549q213 0 343 -99t130 -266q0 -115 -63 -204q-64 -90 -158 -120q-19 -4 -27 -4v-6q3 0 5 -1q1 -1 4.5 -1.5t5.5 -0.5q4 -1 12 -1q118 -33 193 -127q75 -95 75 -223q0 -175 -130 -278t-343 -103zM653 678h-247v-567h256q50 0 106 6
q52 6 84 14l31 6q8 5 29 26q17 17 47 83t30 145q0 143 -88 215t-248 72zM604 1325h-198v-537h206q44 0 109 7q55 6 84 12l29 6q9 5 30 25q19 17 48 77q30 61 30 136q0 135 -90 204q-91 70 -248 70z" />
    <glyph glyph-name="C" unicode="C" horiz-adv-x="1216" 
d="M1004 1034l-54 248q-89 53 -245 53q-79 0 -144 -16q-68 -17 -98 -33l-31 -16q-1 -1 -6.5 -7.5t-10.5 -11.5q-11 -11 -39 -59q-25 -44 -48 -105q-19 -53 -38 -155q-18 -99 -18 -211q0 -303 116 -463t323 -160q52 0 117 13q62 12 94 24l30 15l56 251h100l-23 -327
q-18 -11 -49 -26q-33 -16 -127 -40q-96 -24 -188 -24q-284 0 -450 196q-167 197 -167 539q0 340 168 535q169 196 457 196q94 0 184 -23q88 -22 127 -45l41 -22l25 -326h-102z" />
    <glyph glyph-name="D" unicode="D" horiz-adv-x="1349" 
d="M670 0h-582v78l162 26v1235l-162 13v82h582q260 0 417 -192q158 -193 158 -525q0 -333 -158 -526q-157 -191 -417 -191zM655 1325h-249v-1216h258q65 0 124 13q68 15 93 25l28 13q10 10 18 19t41 62q31 49 51 107q23 67 40 161q18 102 18 216q0 295 -112 447
q-113 153 -310 153z" />
    <glyph glyph-name="E" unicode="E" horiz-adv-x="1228" 
d="M1100 0h-1012v78l162 26v1235l-162 13v82h989l23 -336h-101l-51 227h-542v-543h315l27 172h86v-454h-86l-27 172h-315v-563h567l49 231h102z" />
    <glyph glyph-name="F" unicode="F" horiz-adv-x="1171" 
d="M590 0h-502v78l162 26v1235l-162 13v82h969l24 -340h-102l-49 231h-524v-557h301l26 174h86v-457h-86l-26 174h-301v-563l184 -6v-90z" />
    <glyph glyph-name="G" unicode="G" horiz-adv-x="1277" 
d="M1100 623v-547q-18 -12 -47 -26q-32 -16 -128 -41t-196 -25q-289 0 -457 196t-168 539q0 341 168 536t457 195q94 0 184 -23q88 -22 127 -45l41 -22l25 -326h-102l-54 248q-89 53 -245 53q-79 0 -144 -16q-68 -17 -98 -33l-31 -16q-1 -1 -6.5 -7.5t-10.5 -11.5
q-11 -11 -39 -59q-25 -44 -48 -105q-19 -53 -38 -155q-18 -99 -18 -211q0 -301 117 -463t322 -162q138 0 250 56v481l-187 12v82h475v-78z" />
    <glyph glyph-name="H" unicode="H" horiz-adv-x="1503" 
d="M406 94l161 -12v-82h-479v78l162 26v1235l-162 13v82h479v-78l-161 -27v-547h692v557l-162 13v82h479v-78l-162 -27v-1235l162 -12v-82h-479v78l162 26v568h-692v-578z" />
    <glyph glyph-name="I" unicode="I" horiz-adv-x="655" 
d="M406 94l161 -12v-82h-479v78l162 26v1235l-162 13v82h479v-78l-161 -27v-1235z" />
    <glyph glyph-name="J" unicode="J" horiz-adv-x="917" 
d="M676 1329v-985q0 -166 -94 -263t-267 -97q-59 0 -112 12q-54 12 -76 24l-25 13l19 102q67 -39 180 -39q39 0 79 6q30 4 60 13l21 6q61 79 61 244v970l-186 8v91h502v-78z" />
    <glyph glyph-name="K" unicode="K" horiz-adv-x="1335" 
d="M406 94l161 -12v-82h-479v78l162 26v1235l-162 13v82h479v-78l-161 -27v-555l184 21l391 544l-156 13v82h445v-78l-156 -27l-414 -571l449 -664l156 -12v-82h-281l-455 686h-163v-592z" />
    <glyph glyph-name="L" unicode="L" horiz-adv-x="1179" 
d="M1079 0h-991v78l162 26v1235l-162 13v82h479v-78l-161 -27v-1220h546l49 235h103z" />
    <glyph glyph-name="M" unicode="M" horiz-adv-x="1804" 
d="M332 94l166 -12v-82h-451v78l164 26l90 1235l-166 13v82h361l376 -1006q28 -78 33 -104h8q11 58 29 108l379 1002h348v-78l-162 -27l90 -1235l162 -12v-82h-479v78l162 26l-74 1070q-4 40 -4 71h-8q-1 -29 -19 -71l-374 -1008h-136l-20 20l-379 988q-9 29 -14 75h-6
q0 -19 -1 -37t-1 -38z" />
    <glyph glyph-name="N" unicode="N" horiz-adv-x="1509" 
d="M371 94l166 -12v-82h-453v78l166 26v1235l-166 13v82h315l693 -1076q29 -41 47 -86l6 2q-6 44 -6 84v981l-166 13v82h452v-78l-165 -27v-1329h-115l-729 1128q-26 43 -45 89l-6 -3q6 -46 6 -86v-1034z" />
    <glyph glyph-name="O" unicode="O" horiz-adv-x="1357" 
d="M104 717q0 336 158 535q158 198 418 198q258 0 417 -198q158 -197 158 -535q0 -339 -158 -536t-417 -197q-261 0 -418 197q-158 199 -158 536zM272 719q0 -302 110 -462q110 -159 306 -159q60 0 120 15q68 17 89 28l31 15q1 1 17 19q12 13 39 63q28 51 48 107
q19 52 38 158q17 94 17 212q0 304 -110 462t-305 158q-64 0 -125 -15q-62 -15 -92 -30l-29 -16q-2 -2 -7.5 -8.5t-8.5 -10.5q-9 -10 -37 -60q-25 -44 -47 -106q-20 -55 -37 -158q-17 -102 -17 -212z" />
    <glyph glyph-name="P" unicode="P" horiz-adv-x="1224" 
d="M406 96l184 -6v-90h-502v78l162 26v1235l-162 13v82h557q214 0 344 -110q129 -110 129 -304q0 -192 -129 -302q-130 -110 -344 -110h-239v-512zM612 1325h-206v-606h215q49 0 102 6q55 6 82 12l29 6q4 4 15 14t16 15q20 19 53 90q32 70 32 158q0 149 -89 227
q-88 78 -249 78z" />
    <glyph glyph-name="Q" unicode="Q" horiz-adv-x="1359" 
d="M104 717q0 336 158 535q158 198 418 198t418 -197q157 -196 157 -532q0 -269 -102 -452t-283 -249v-6q94 -57 229 -102q122 -41 212 -57l80 -15l-33 -135q-6 1 -18.5 2.5t-19.5 2.5q-22 3 -95 24q-74 22 -143 48q-73 28 -166 84q-98 59 -175 126q-48 -8 -69 -8
q-257 5 -412 200q-156 196 -156 533zM272 717q0 -300 110 -460q110 -159 306 -159q61 0 121 15q66 17 88 28l31 15q1 1 17 19q12 13 39 63q28 51 48 107q19 54 38 160q17 96 17 214q0 302 -109 459t-306 157q-61 0 -124 -15t-93 -30l-31 -16q-2 -2 -7.5 -8.5t-8.5 -10.5
q-9 -10 -37 -60q-26 -47 -46 -106q-19 -59 -36 -159q-17 -104 -17 -213z" />
    <glyph glyph-name="R" unicode="R" horiz-adv-x="1300" 
d="M406 94l161 -12v-82h-479v78l162 26v1235l-162 13v82h557q213 0 343 -108t130 -296q0 -155 -90 -257t-246 -132l330 -547l156 -12v-82h-283l-354 629h-225v-535zM612 1325h-206v-588h215q49 0 102 6q44 5 82 15l29 6q2 2 12 10q6 5 28 30q21 24 36 51q16 29 28 75t12 98
q0 144 -89 221q-88 76 -249 76z" />
    <glyph glyph-name="S" unicode="S" horiz-adv-x="1107" 
d="M840 354q0 35 -10 72q-10 36 -20 55q-13 24 -40 47q-43 36 -44 37q-17 14 -58 32q-49 22 -60 26q-33 12 -68 24q-31 11 -67 25q-83 30 -134 58q-55 31 -109 77q-55 47 -82 117q-27 69 -27 161q0 167 102 266t334 99q107 0 204 -25q90 -23 132 -49l37 -22v-320h-107
l-28 236q-78 65 -242 65q-60 0 -116 -10q-64 -11 -87 -20l-28 -11q-52 -78 -52 -190q0 -32 6 -60q4 -17 13 -50q7 -23 25 -43q20 -22 29 -35q7 -11 39 -30q31 -19 40 -25q8 -6 49 -23q11 -5 22 -9.5t17 -7t8 -3.5t8.5 -3t19 -6.5t25.5 -9.5q51 -19 52 -19q84 -30 141 -60
q58 -31 113 -78t82 -117q28 -72 28 -158q0 -383 -479 -383q-119 0 -218 24q-96 23 -138 49l-41 23v321h102l35 -237q93 -64 276 -64q66 0 129 12q77 15 95 21l30 10q62 91 62 211z" />
    <glyph glyph-name="T" unicode="T" horiz-adv-x="1300" 
d="M727 94l162 -12v-82h-477v78l161 26v1221h-344l-49 -256h-102l24 365h1098l25 -365h-103l-49 256h-346v-1231z" />
    <glyph glyph-name="U" unicode="U" horiz-adv-x="1492" 
d="M1251 1329v-835q0 -237 -138 -374q-137 -136 -368 -136q-226 0 -366 134q-139 133 -139 361v860l-162 13v82h481v-78l-160 -27v-848q0 -188 99 -287q100 -100 280 -100q57 0 113 9q52 9 82 20l26 8q11 8 15 13q5 6 30 41q20 27 40 70q16 33 32 101q14 59 14 136v847
l-165 13v82h452v-78z" />
    <glyph glyph-name="V" unicode="V" horiz-adv-x="1419" 
d="M795 0h-150l-20 20l-457 1319l-160 13v82h508v-78l-166 -25l355 -1065q12 -35 30 -112h8q28 103 31 112l354 1073l-161 13v82h444v-78l-158 -27z" />
    <glyph glyph-name="W" unicode="W" horiz-adv-x="2113" 
d="M752 0h-148l-20 20l-412 1315l-164 17v82h510v-78l-166 -23l303 -1050q26 -86 31 -115h10q6 28 27 115l297 1130h147l308 -1130q1 -3 5.5 -21.5t9.5 -34.5q2 -5 15 -59h8q1 4 5 19.5t10.5 41.5l13.5 54l285 1056l-160 13v82h436v-78l-159 -27l-379 -1329h-148l-20 20
l-299 1096q-22 68 -23 105h-10q-5 -33 -21 -105z" />
    <glyph glyph-name="X" unicode="X" horiz-adv-x="1409" 
d="M1182 1329l-379 -616l420 -619l153 -12v-82h-510v78l170 24l-315 488q-41 64 -41 65h-8q-20 -42 -39 -67l-320 -494l160 -12v-82h-442v78l159 26l416 637l-389 598l-156 13v82h510v-78l-174 -25l295 -469q28 -48 39 -67h8q8 19 35 69l285 475l-160 13v82h442v-78z" />
    <glyph glyph-name="Y" unicode="Y" horiz-adv-x="1368" 
d="M1178 1329l-408 -690v-545l162 -12v-82h-477v78l161 26v531l-430 704l-155 13v82h508v-78l-168 -25l305 -514q34 -56 41 -74h10q12 31 37 74l291 522l-160 13v82h440v-78z" />
    <glyph glyph-name="Z" unicode="Z" horiz-adv-x="1208" 
d="M104 0v66l781 1259h-633l-49 -235h-103l25 344h958v-66l-780 -1259h664l26 235h105v-344h-994z" />
    <glyph glyph-name="bracketleft" unicode="[" horiz-adv-x="706" 
d="M606 1536v-102h-244v-1588h244v-102h-383v1792h383z" />
    <glyph glyph-name="backslash" unicode="\" horiz-adv-x="817" 
d="M766 -205h-113l-630 1741h112z" />
    <glyph glyph-name="bracketright" unicode="]" horiz-adv-x="706" 
d="M102 -256v102h244v1588h-244v102h383v-1792h-383z" />
    <glyph glyph-name="asciicircum" unicode="^" horiz-adv-x="931" 
d="M121 1083l336 365h20l334 -365l-51 -43l-293 267l-293 -267z" />
    <glyph glyph-name="underscore" unicode="_" horiz-adv-x="1026" 
d="M2 -256v102h1024v-102h-1024z" />
    <glyph glyph-name="grave" unicode="`" horiz-adv-x="761" 
d="M166 1436l100 100l264 -295l-67 -37z" />
    <glyph glyph-name="a" unicode="a" horiz-adv-x="1105" 
d="M111 242q0 129 77 210q78 83 238 101l326 39v131q0 123 -52 183q-51 59 -182 59q-57 0 -108 -12q-55 -13 -74 -23l-23 -10l-26 -170h-109v241q6 3 40 23q23 14 115 37q87 22 189 22q204 0 293 -90q88 -89 88 -276v-531q0 -76 76 -76h78l10 -69q-51 -39 -145 -39
q-144 0 -166 123q-150 -129 -361 -129q-141 0 -213 66q-71 65 -71 190zM254 260q0 -164 190 -164q168 0 308 113v299l-430 -74q-68 -62 -68 -174z" />
    <glyph glyph-name="b" unicode="b" horiz-adv-x="1161" 
d="M51 1454v74l277 22l16 -18v-438q0 -59 -8 -109l6 -6q130 94 293 94q192 0 310 -140t118 -392q0 -261 -131 -409q-130 -146 -383 -146q-95 0 -181 19q-90 20 -132 40l-43 21v1347zM901 524q0 439 -317 439q-140 0 -240 -80v-740q102 -47 238 -47q62 0 112 10q54 11 76 21
l23 10q2 2 5.5 6.5t5.5 7.5q5 6 26 43q20 36 34 73q13 35 26 110q11 63 11 147z" />
    <glyph glyph-name="c" unicode="c" horiz-adv-x="1036" 
d="M811 750l-25 170q-76 45 -206 45q-54 0 -111 -13q-58 -13 -78 -22l-24 -12q-11 -11 -30 -38q-16 -22 -47 -121q-30 -95 -30 -210q0 -453 354 -453q72 0 144 18q71 18 106 36l37 18l31 -84q-4 -3 -44 -27q-27 -17 -117 -44q-89 -27 -179 -27q-225 0 -358 143
q-134 145 -134 399q0 246 129 396q128 149 367 149q90 0 167 -20q85 -22 120 -41l39 -19v-243h-111z" />
    <glyph glyph-name="d" unicode="d" horiz-adv-x="1179" 
d="M1110 82v-74l-270 -22l-19 18l10 115l-6 6q-123 -139 -311 -139q-180 0 -297 142t-117 388q0 258 129 408q128 149 353 149q130 0 235 -49v389l-141 41v74l276 22l17 -18v-1409zM260 530q0 -214 82 -321q83 -109 225 -109q154 0 250 123v682q-99 60 -237 60
q-57 0 -112 -11q-56 -11 -75 -20l-22 -10q-14 -14 -31 -38q-20 -28 -49 -127q-31 -105 -31 -229z" />
    <glyph glyph-name="e" unicode="e" horiz-adv-x="1077" 
d="M918 168l30 -84q-16 -10 -45 -27q-30 -17 -119 -44q-90 -27 -182 -27q-226 0 -363 143q-139 145 -139 395t133 399q133 150 345 150q197 0 305 -137q109 -138 94 -387l-49 -35h-668q0 -212 101 -314q102 -104 266 -104q70 0 142 18q74 19 112 36zM375 924
q-13 -13 -32 -38q-19 -26 -51 -111q-32 -87 -32 -179l580 20q1 167 -71 258q-73 91 -202 91q-45 0 -95 -11q-55 -12 -73 -20z" />
    <glyph glyph-name="f" unicode="f" horiz-adv-x="747" 
d="M92 950v90l141 19v143q0 348 345 348q70 0 129 -13q58 -13 88 -26l26 -12v-233h-108l-25 155q-44 21 -117 21q-38 0 -78 -8q-31 -6 -57 -17l-18 -8q-33 -63 -33 -213v-137h293v-109h-293v-858l195 -6v-86h-488v76l141 26v848h-141z" />
    <glyph glyph-name="g" unicode="g" horiz-adv-x="1116" 
d="M1061 1133l-17 -123q-21 10 -75 10q-88 0 -162 -41q113 -96 113 -266q0 -167 -109 -264t-289 -97q-75 0 -145 19q-84 -45 -84 -133q0 -121 153 -121h271q325 0 325 -252q0 -161 -137 -256q-136 -94 -416 -94q-423 0 -423 239q0 101 58 169q58 69 130 106q-92 50 -92 164
q0 140 133 213q-170 95 -170 309q0 166 108 262t289 96q125 0 221 -51q102 119 248 119zM434 -10q-49 0 -98 10q-123 -86 -123 -211q0 -85 70 -126q68 -40 225 -40q94 0 170 11q85 12 121 22l39 12q61 62 61 168q0 154 -203 154h-262zM264 725q0 -127 73 -195
q71 -67 195 -67q39 0 81 6q43 6 65 12l22 6q4 4 22 24q13 14 36 70q22 53 22 117q0 127 -72 196t-196 69q-32 0 -81 -7q-41 -6 -64 -12l-23 -6q-3 -3 -10 -11.5t-11 -12.5q-14 -15 -36 -70q-23 -57 -23 -119z" />
    <glyph glyph-name="h" unicode="h" horiz-adv-x="1253" 
d="M84 1454v74l276 22l17 -18v-473l-8 -109l6 -4q167 127 379 127q159 0 228 -81t69 -247v-655l141 -12v-78h-434v76l141 26v633q0 119 -45 173q-46 55 -160 55q-178 0 -317 -111v-762l143 -12v-78h-436v76l143 26v1311z" />
    <glyph glyph-name="i" unicode="i" horiz-adv-x="598" 
d="M88 979v72l277 22l16 -16v-967l143 -12v-78h-436v76l141 26v834zM176 1413q0 52 32 82q33 31 81 31q51 0 82 -31q30 -30 30 -82q0 -50 -30 -80t-82 -30q-49 0 -81 30t-32 80z" />
    <glyph glyph-name="j" unicode="j" horiz-adv-x="563" 
d="M172 1413q0 52 32 82q33 31 81 31q51 0 82 -31q30 -30 30 -82q0 -50 -30 -80t-82 -30q-49 0 -81 30t-32 80zM84 979v72l276 22l17 -16v-1055q0 -268 -84 -378q-84 -109 -256 -109q-36 0 -83 5q-43 5 -65 9l-22 6l22 131q74 -41 166 -41q27 0 57 5q19 3 42 10l14 4
q59 90 59 358v934z" />
    <glyph glyph-name="k" unicode="k" horiz-adv-x="1130" 
d="M920 958l-289 -380l334 -488l133 -12v-78h-246l-348 514h-127v-424l143 -12v-78h-436v76l143 26v1311l-143 41v74l276 22l17 -18v-930l147 21l264 346l-139 12v78h404v-74z" />
    <glyph glyph-name="l" unicode="l" horiz-adv-x="587" 
d="M84 1454v74l276 22l17 -18v-1442l143 -12v-78h-436v82l143 27v1304z" />
    <glyph glyph-name="m" unicode="m" horiz-adv-x="1832" 
d="M856 102v664q0 103 -40 149q-42 48 -142 48q-175 0 -289 -121v-752l143 -12v-78h-436v76l141 26v834l-141 43v72l273 22l16 -16l-8 -117l6 -6q139 139 358 139q199 0 250 -149q143 149 373 149q145 0 208 -75q62 -74 62 -220v-688l142 -12v-78h-429v76l136 26v664
q0 99 -41 148t-144 49q-169 0 -290 -121q4 -40 4 -68v-684l139 -12v-78h-426v76z" />
    <glyph glyph-name="n" unicode="n" horiz-adv-x="1261" 
d="M92 979v72l273 22l16 -16l-8 -117l4 -6q161 139 387 139q157 0 226 -81t69 -247v-655l141 -12v-78h-436v76l143 26v633q0 119 -45 173q-46 55 -160 55q-182 0 -317 -129v-744l143 -12v-78h-436v76l141 26v834z" />
    <glyph glyph-name="o" unicode="o" horiz-adv-x="1142" 
d="M100 530q0 256 130 399q130 144 343 144t342 -145t129 -398q0 -254 -129 -399t-342 -145t-343 145t-130 399zM262 535q0 -213 84 -326t236 -113q44 0 90 9q35 7 71 18l25 8q11 11 32 40q19 26 51 130t32 225q0 216 -84 327q-85 112 -236 112q-40 0 -92 -10
q-46 -9 -72 -17l-24 -10q-15 -15 -31 -39q-19 -28 -50 -129q-32 -104 -32 -225z" />
    <glyph glyph-name="p" unicode="p" horiz-adv-x="1185" 
d="M74 979v72l272 22l16 -16l-8 -117l6 -6q123 139 310 139q180 0 298 -141q117 -139 117 -387q0 -260 -129 -410q-128 -149 -354 -149q-124 0 -235 51v-416l204 -6v-86h-497v76l143 26v1305zM926 516q0 223 -82 333q-83 112 -226 112q-157 0 -251 -127v-680q93 -58 241 -58
q60 0 109 10q52 11 74 21l20 10q14 14 32 39q20 28 51 125q32 101 32 215z" />
    <glyph glyph-name="q" unicode="q" horiz-adv-x="1153" 
d="M825 76l-6 4q-130 -94 -293 -94q-192 0 -310 140t-118 392q0 261 131 409q130 146 381 146q98 0 184 -19t132 -38l43 -21v-1376l141 -12v-78h-436v76l143 26v336q0 59 8 109zM260 535q0 -439 322 -439q139 0 235 78v739q-98 52 -237 52q-62 0 -114 -12q-56 -13 -75 -23
l-22 -10q-13 -13 -31 -37q-17 -23 -48 -124q-30 -99 -30 -224z" />
    <glyph glyph-name="r" unicode="r" horiz-adv-x="829" 
d="M795 1069l-15 -156q-49 19 -116 19q-174 0 -279 -139v-701l205 -6v-86h-498v76l141 26v834l-141 43v72l273 22l16 -16l-10 -170l4 -6q127 194 327 194z" />
    <glyph glyph-name="s" unicode="s" horiz-adv-x="968" 
d="M723 266q0 47 -18 80q-17 31 -59 56q-39 23 -76 37q-42 16 -99 32q-29 8 -35 10q-71 22 -121 44q-42 18 -94 56q-49 36 -73 88q-23 50 -23 126q0 280 352 280q100 0 177 -20q85 -22 116 -41l33 -21v-239h-109l-26 170q-63 45 -195 45q-48 0 -90 -7q-40 -7 -68 -16l-22 -6
q-37 -55 -37 -127q0 -40 15 -70t35 -50q18 -18 64 -40q38 -18 72 -29q28 -9 90 -30q83 -28 125 -45q46 -18 98 -54q51 -35 74 -87t23 -125q0 -297 -389 -297q-102 0 -185 19q-87 20 -120 40l-35 18v240h108l27 -170q73 -41 213 -41q57 0 106 7q46 7 76 16l25 6q45 63 45 145
z" />
    <glyph glyph-name="t" unicode="t" horiz-adv-x="776" 
d="M61 950v90l142 19l22 217h129v-217h334v-109h-334v-678q0 -174 158 -174q39 0 88 13q46 12 68 24l24 12l21 -81l-14 -10.5t-15 -11.5q-17 -13 -82 -36q-62 -22 -135 -22q-264 0 -264 282v682h-142z" />
    <glyph glyph-name="u" unicode="u" horiz-adv-x="1234" 
d="M725 979v72l276 22l17 -16v-934l143 -41v-74l-272 -22l-19 18l11 115l-7 6q-155 -139 -380 -139q-159 0 -225 82t-66 247v621l-142 43v72l277 22l16 -16v-731q0 -119 43 -174q44 -56 156 -56q170 0 315 131v709z" />
    <glyph glyph-name="v" unicode="v" horiz-adv-x="1196" 
d="M676 0h-137l-19 18l-366 951l-140 12v78h455v-74l-150 -24l261 -695q24 -58 36 -112h9q8 37 34 112l259 703l-144 12v78h404v-74l-138 -27z" />
    <glyph glyph-name="w" unicode="w" horiz-adv-x="1716" 
d="M627 0h-140l-18 18l-311 947l-144 16v78h457v-74l-147 -20l204 -682q26 -86 31 -115h10q5 28 27 115l221 766h135l224 -766q1 -7 14 -51q11 -37 16 -64h8q1 4 5 19.5t10.5 41.5l13.5 54l199 686l-144 12v78h400v-74l-137 -27l-293 -958h-140l-16 18l-217 723
q-13 43 -25 103h-8q-7 -51 -22 -103z" />
    <glyph glyph-name="x" unicode="x" 
d="M967 958l-287 -432l319 -436l134 -12v-78h-457v76l149 24l-217 308q-36 49 -41 61h-10q-13 -25 -37 -61l-223 -318l141 -12v-78h-401v76l139 26l313 449l-294 418l-136 12v78h459v-74l-149 -24l196 -293q33 -45 41 -64h6l35 66l199 299l-144 12v78h402v-74z" />
    <glyph glyph-name="y" unicode="y" horiz-adv-x="1200" 
d="M551 -23l-397 992l-140 12v78h457v-74l-149 -24l272 -695q17 -46 33 -112h10q12 61 33 112l254 703l-144 12v78h402v-74l-135 -27l-361 -958q-111 -292 -191 -388q-81 -97 -227 -97q-37 0 -80 5q-37 4 -57 11l-20 6l24 144q79 -41 260 -41q110 144 156 337z" />
    <glyph glyph-name="z" unicode="z" horiz-adv-x="1034" 
d="M115 0v61l602 893h-451l-24 -188h-111v293h770v-60l-600 -895h479l27 189h108v-293h-800z" />
    <glyph glyph-name="braceleft" unicode="{" horiz-adv-x="759" 
d="M287 25l20 360q6 105 -48 155q-55 50 -175 50v100q120 0 175 50q54 50 48 155l-20 360q-11 161 66 221t304 60v-102q-141 0 -188 -39t-41 -140l23 -360q12 -186 -148 -254q160 -68 148 -256l-23 -360q-6 -101 41 -140t188 -39v-102q-227 0 -304 60t-66 221z" />
    <glyph glyph-name="bar" unicode="|" horiz-adv-x="546" 
d="M324 -205h-101v1741h101v-1741z" />
    <glyph glyph-name="braceright" unicode="}" horiz-adv-x="759" 
d="M453 385l20 -360q11 -161 -66 -221q-76 -60 -305 -60v102q142 0 188 39t40 140l-21 360q-17 187 146 256q-163 69 -146 254l21 360q6 101 -40 140t-188 39v102q228 0 305 -60t66 -221l-20 -360q-8 -105 45 -155t176 -50v-100q-123 0 -176 -50t-45 -155z" />
    <glyph glyph-name="asciitilde" unicode="~" horiz-adv-x="991" 
d="M154 547l-39 43l15 20q4 6 40 45q32 35 60 59q29 25 70 46q39 20 75 20q52 0 154 -62q103 -63 153 -63l158 131l37 -43q-16 -22 -40 -52q-25 -31 -95 -84q-68 -52 -126 -52q-50 0 -152 62q-103 63 -151 63z" />
    <glyph glyph-name="exclamdown" unicode="&#xa1;" horiz-adv-x="612" 
d="M369 866l16 -661v-369h-158v369l17 661h125zM416 1171q0 -49 -31 -80q-30 -30 -80 -30q-47 0 -78 31q-30 30 -30 79q0 50 30 80q31 31 78 31q49 0 80 -31t31 -80z" />
    <glyph glyph-name="cent" unicode="&#xa2;" horiz-adv-x="1036" 
d="M922 750h-103l-26 170q-61 31 -150 41l-61 -865h32q72 0 144 18q71 18 106 36l37 18l31 -84q-4 -3 -44 -27q-27 -17 -117 -44q-89 -27 -179 -27h-19l-8 -131h-84l11 139q-181 30 -286 170q-106 141 -106 364q0 238 121 386q122 149 346 159l6 88h84l-6 -90q75 -6 140 -25
q69 -20 98 -36l33 -17v-243zM260 549q0 -371 240 -438l59 854q-47 -1 -100 -15q-51 -13 -70 -22l-20 -10q-14 -14 -31 -38q-17 -25 -48 -121q-30 -95 -30 -210z" />
    <glyph glyph-name="sterling" unicode="&#xa3;" 
d="M172 1112q0 161 90 250q89 88 305 88q110 0 205 -25q89 -23 129 -49l37 -24l25 -308h-103l-53 232q-76 61 -248 61q-54 0 -108 -8q-47 -7 -74 -16l-23 -8q-41 -62 -41 -187q0 -62 12 -117q14 -67 36 -134q7 -21 14.5 -44.5t11.5 -36t6 -18.5h316v-111h-297q0 -9 1 -17
t1 -17q0 -194 -176 -502h626l49 223h103l-25 -344h-880v76q159 357 159 522q0 23 -4 59h-151v91l129 18q-2 7 -9.5 32t-13.5 44q-17 56 -24 87q-13 52 -17 84q-8 56 -8 99z" />
    <glyph glyph-name="yen" unicode="&#xa5;" horiz-adv-x="1368" 
d="M287 582v94h307l-408 663l-155 13v82h508v-78l-168 -25l305 -508q30 -49 41 -71h10q11 28 37 73l291 514l-160 13v82h440v-78l-157 -27l-390 -653h312v-94h-330v-189h330v-94h-330v-205l162 -12v-82h-477v78l161 26v195h-329v94h329v189h-329z" />
    <glyph glyph-name="brokenbar" unicode="&#xa6;" horiz-adv-x="546" 
d="M324 1536v-717h-101v717h101zM324 -205h-101v717h101v-717z" />
    <glyph glyph-name="section" unicode="&#xa7;" horiz-adv-x="976" 
d="M874 606q0 -184 -145 -268q143 -88 143 -258q0 -299 -372 -299q-102 0 -185 19q-85 19 -122 40l-35 21v239h108l27 -170q73 -45 211 -45q41 0 100 9q44 7 74 16l24 8q39 57 39 137q0 55 -20 91q-22 40 -69 66q-54 30 -87 43q-49 19 -119 40q-167 52 -253 121
q-84 68 -84 205q0 187 149 270q-125 84 -125 256q0 301 350 301q94 0 175 -21q85 -22 116 -41l33 -20v-240h-109l-26 170q-66 45 -191 45q-50 0 -93 -7q-46 -8 -69 -15l-20 -8q-37 -59 -37 -140q0 -97 66 -143q69 -49 211 -94q53 -18 105 -38q34 -14 87 -42q56 -30 78 -58
q24 -31 45 -79q20 -47 20 -111zM238 639q0 -49 20 -82q21 -35 62 -59q40 -24 81 -39q12 -4 28 -9.5t39 -13t38 -12.5q29 -8 35 -10q1 0 49 -17q23 -8 53 -18q102 78 102 205q0 25 -4 42q-3 13 -9 33q-4 14 -19 29q-18 18 -23 25t-31 21q-7 4 -18 10t-15 8q-11 5 -41 16
l-27 9t-16 5q-3 1 -19 6t-30 10q-11 4 -21 7t-18.5 5t-11.5 3q-59 17 -102 37q-102 -78 -102 -211z" />
    <glyph glyph-name="dieresis" unicode="&#xa8;" horiz-adv-x="892" 
d="M160 1368q0 44 26 69t68 25t68 -25t26 -69q0 -42 -26 -68t-68 -26t-68 26t-26 68zM547 1368q0 44 25 69t67 25q44 0 69 -25t25 -69q0 -42 -25 -68t-69 -26q-42 0 -67 26t-25 68z" />
    <glyph glyph-name="copyright" unicode="&#xa9;" horiz-adv-x="1626" 
d="M104 717q0 330 196 529q195 198 513 198t513 -198q196 -199 196 -529q0 -331 -196 -530q-194 -197 -513 -197t-513 197q-196 199 -196 530zM199 723q0 -297 173 -468q172 -171 451 -171q82 0 169 15q85 15 134 32l45 14q3 2 28 23q23 19 62 65q39 45 77 112q35 61 62 161
q27 101 27 209q0 293 -175 464q-176 171 -453 171q-81 0 -172 -17q-89 -17 -135 -33l-46 -16q-11 -6 -26 -20q-16 -15 -60 -66q-40 -47 -75 -109q-33 -58 -60 -158q-26 -95 -26 -208zM1020 891l-33 139q-53 29 -149 29q-45 0 -87 -9q-37 -8 -61 -18l-18 -10q-10 -7 -26 -28
q-16 -20 -42 -98q-26 -77 -26 -179q0 -169 69 -258q69 -88 195 -88q36 0 71 7q36 7 58 15l18 6l33 140h65l-16 -189q-94 -49 -223 -49q-172 0 -276 111q-103 110 -103 305q0 193 102 302t281 109q60 0 115 -12q56 -12 80 -24l24 -13l14 -188h-65z" />
    <glyph glyph-name="ordfeminine" unicode="&#xaa;" horiz-adv-x="792" 
d="M82 891q0 89 56 146q57 58 169 73l217 25v88q0 83 -35 123q-34 38 -118 38q-39 0 -70 -7q-34 -8 -47 -13l-14 -8l-21 -117h-90v176q85 58 246 58q148 0 211 -65q63 -64 63 -198v-360q0 -53 51 -53h54l6 -56q-38 -30 -107 -30q-103 0 -125 84q-104 -88 -245 -88
q-201 0 -201 184zM199 905q0 -108 127 -108q104 0 198 69v201l-280 -49q-45 -41 -45 -113z" />
    <glyph glyph-name="guillemotleft" unicode="&#xab;" horiz-adv-x="991" 
d="M467 268l-363 336v21l363 336l43 -54l-264 -293l264 -292zM813 268l-362 336v21l362 336l43 -54l-266 -293l266 -292z" />
    <glyph glyph-name="registered" unicode="&#xae;" horiz-adv-x="1626" 
d="M104 717q0 330 196 529q195 198 513 198t513 -198q196 -199 196 -529q0 -331 -196 -530q-194 -197 -513 -197t-513 197q-196 199 -196 530zM199 723q0 -297 173 -468q172 -171 451 -171q82 0 169 15q85 15 134 32l45 14q3 2 28 23q23 19 62 65q39 45 77 112q35 61 62 161
q27 101 27 209q0 293 -175 464q-176 171 -453 171q-83 0 -174 -17q-87 -16 -133 -33l-46 -16q-11 -6 -26 -20q-16 -15 -60 -66q-40 -47 -75 -109q-33 -58 -60 -158q-26 -95 -26 -208zM676 383l98 -6v-51h-297v49l98 16v688l-98 6v54h344q133 0 213 -62t80 -168
q0 -88 -54 -145t-149 -78l199 -303l94 -6v-51h-176l-217 352h-135v-295zM801 1069h-125v-321h129q30 0 63 3q37 3 50 7l18 4q10 6 19 14q12 11 31 47q20 38 20 84q0 162 -205 162z" />
    <glyph glyph-name="macron" unicode="&#xaf;" horiz-adv-x="892" 
d="M182 1300v103h531v-103h-531z" />
    <glyph glyph-name="degree" unicode="&#xb0;" horiz-adv-x="731" 
d="M102 1145q0 117 72 186q73 70 188 70q121 0 194 -70t73 -186q0 -117 -73 -187q-72 -69 -194 -69q-116 0 -188 69t-72 187zM207 1155q0 -176 168 -176q23 0 56 5q27 4 46 11l17 4q32 48 32 136q0 86 -44 130t-122 44q-26 0 -59 -5q-23 -3 -47 -10l-16 -6q-31 -53 -31 -133
z" />
    <glyph glyph-name="plusminus" unicode="&#xb1;" horiz-adv-x="1026" 
d="M129 825v101h334v334h102v-334h332v-101h-332v-333h-102v333h-334zM129 231v101h768v-101h-768z" />
    <glyph glyph-name="twosuperior" unicode="&#xb2;" horiz-adv-x="718" 
d="M610 1262q0 -69 -42 -132t-99 -108q-51 -41 -144 -122q-91 -80 -149 -148h334l33 116h73l-14 -202h-518v86q74 96 187 198q115 104 166 165q55 66 55 138q0 109 -148 109q-41 0 -73 -7q-31 -7 -46 -16l-14 -6l-33 -123h-74l15 181q72 51 229 51q262 0 262 -180z" />
    <glyph glyph-name="threesuperior" unicode="&#xb3;" horiz-adv-x="718" 
d="M614 889q0 -112 -79 -172t-216 -60q-63 0 -122 14q-62 15 -82 27l-25 15l21 63q70 -41 196 -41q39 0 70 4q36 5 53 9l16 4q50 35 50 133q0 78 -39 116q-38 37 -125 37h-47l-13 13v57q24 6 76 70q54 67 90 122l41 60h-262l-33 -127h-73l14 201h465v-74
q-111 -164 -211 -256v-2q235 -27 235 -213z" />
    <glyph glyph-name="acute" unicode="&#xb4;" horiz-adv-x="761" 
d="M207 1241l264 295l100 -100l-297 -232z" />
    <glyph glyph-name="paragraph" unicode="&#xb6;" horiz-adv-x="1271" 
d="M920 -205v1530h-238v-1530h-102v813q-212 0 -342 110q-129 110 -129 302q0 194 129 304q130 110 344 110h602v-82l-162 -13v-1544h-102z" />
    <glyph glyph-name="periodcentered" unicode="&#xb7;" horiz-adv-x="432" 
d="M106 737q0 49 31 80t78 31q50 0 80 -30q31 -31 31 -81q0 -49 -31 -80q-30 -30 -80 -30q-48 0 -78 30q-31 31 -31 80z" />
    <glyph glyph-name="cedilla" unicode="&#xb8;" horiz-adv-x="671" 
d="M289 -182l22 202h80l-18 -157q3 0 15 -2q3 0 7.5 -2t12 -4.5l13.5 -4.5q23 -7 42 -20q20 -13 34 -39q15 -27 15 -61q0 -67 -55 -104q-56 -38 -150 -38q-31 0 -66 5q-25 4 -46 12l-15 6l19 82q39 -33 108 -33l84 10q10 31 10 60q0 37 -28 59t-58 27z" />
    <glyph glyph-name="onesuperior" unicode="&#xb9;" horiz-adv-x="718" 
d="M135 1323v57q180 22 283 62l12 -12v-695l162 -6v-63h-445v63l172 19v575h-184z" />
    <glyph glyph-name="ordmasculine" unicode="&#xba;" horiz-adv-x="821" 
d="M76 1090q0 179 91 280q92 103 245 103q150 0 242 -103q91 -101 91 -280q0 -180 -91 -281q-92 -102 -242 -102q-152 0 -244 102q-92 103 -92 281zM209 1094q0 -299 209 -299q31 0 61 6q39 8 47 10l17 6q6 6 20 27q12 19 32 88q19 67 19 153q0 147 -54 224q-53 75 -154 75
q-32 0 -63 -6q-30 -6 -48 -14l-16 -6q-6 -6 -20 -27q-11 -16 -31 -86q-19 -66 -19 -151z" />
    <glyph glyph-name="guillemotright" unicode="&#xbb;" horiz-adv-x="991" 
d="M180 961l365 -336v-21l-365 -336l-43 54l266 292l-266 293zM526 961l363 -336v-21l-363 -336l-43 54l267 292l-267 293z" />
    <glyph glyph-name="onequarter" unicode="&#xbc;" horiz-adv-x="1626" 
d="M1407 766v-485h106v-82h-104v-133l104 -9v-57h-319v51l106 19v127h-360v45l350 524h117zM293 0h-123l1202 1434h123zM135 1323v57q180 22 283 62l12 -12v-695l162 -6v-63h-445v63l172 19v575h-184zM1047 281h258v385z" />
    <glyph glyph-name="onehalf" unicode="&#xbd;" horiz-adv-x="1636" 
d="M135 1323v57q180 22 283 62l12 -12v-695l162 -6v-63h-445v63l172 19v575h-184zM293 0h-123l1202 1434h123zM1530 596q0 -68 -42 -131q-44 -66 -98 -110q-48 -39 -145 -123q-82 -71 -149 -146h334l32 117h74l-14 -203h-518v86q68 86 145 160q95 92 134 125q53 45 90 102
q38 58 38 115q0 108 -145 108q-43 0 -75 -7q-34 -7 -48 -13l-13 -8l-32 -123h-74l14 178q73 53 230 53q262 0 262 -180z" />
    <glyph glyph-name="threequarters" unicode="&#xbe;" horiz-adv-x="1626" 
d="M1405 766v-485h108v-82h-104v-133l104 -9v-57h-321v51l106 19v127h-358v45l348 524h117zM293 0h-123l1202 1434h123zM614 889q0 -112 -79 -172t-216 -60q-63 0 -122 14q-62 15 -82 27l-25 15l21 63q70 -41 196 -41q39 0 70 4q36 5 53 9l16 4q50 35 50 133q0 78 -39 116
q-38 37 -125 37h-47l-13 13v57q24 6 76 70q54 67 90 122l41 60h-262l-33 -127h-73l14 201h465v-74q-111 -164 -211 -256v-2q235 -27 235 -213zM1044 281h259v381z" />
    <glyph glyph-name="questiondown" unicode="&#xbf;" horiz-adv-x="999" 
d="M616 1174q0 -52 -29 -81q-30 -30 -79 -30t-79 30t-30 81q0 48 31 79t78 31t78 -31q30 -30 30 -79zM567 870l17 -311q-161 -107 -237 -200q-75 -91 -75 -205q0 -209 246 -209q66 0 121 15t78 30l22 14l54 232h102l-25 -308q-7 -6 -36 -26q-25 -17 -116 -44
q-95 -28 -202 -28q-209 0 -308 87t-99 228q0 128 79 229q78 100 240 210l16 286h123z" />
    <glyph glyph-name="Agrave" unicode="&#xc0;" horiz-adv-x="1443" 
d="M641 1434h150l20 -21l465 -1319l160 -12v-82h-504v78l162 26l-119 347h-561l-123 -357l166 -12v-82h-449v78l156 26zM664 1167l-213 -608h489l-207 608q-14 43 -31 113h-10q-12 -59 -28 -113zM455 1755l100 100l266 -294l-67 -37z" />
    <glyph glyph-name="Aacute" unicode="&#xc1;" horiz-adv-x="1443" 
d="M641 1434h150l20 -21l465 -1319l160 -12v-82h-504v78l162 26l-119 347h-561l-123 -357l166 -12v-82h-449v78l156 26zM664 1167l-213 -608h489l-207 608q-14 43 -31 113h-10q-12 -59 -28 -113zM598 1561l264 294l101 -100l-297 -231z" />
    <glyph glyph-name="Acircumflex" unicode="&#xc2;" horiz-adv-x="1443" 
d="M641 1434h150l20 -21l465 -1319l160 -12v-82h-504v78l162 26l-119 347h-561l-123 -357l166 -12v-82h-449v78l156 26zM664 1167l-213 -608h489l-207 608q-14 43 -31 113h-10q-12 -59 -28 -113zM442 1561l269 282h20l268 -282l-67 -37l-211 178l-211 -178z" />
    <glyph glyph-name="Atilde" unicode="&#xc3;" horiz-adv-x="1443" 
d="M641 1434h150l20 -21l465 -1319l160 -12v-82h-504v78l162 26l-119 347h-561l-123 -357l166 -12v-82h-449v78l156 26zM664 1167l-213 -608h489l-207 608q-14 43 -31 113h-10q-12 -59 -28 -113zM449 1579l-41 45q13 21 29 39q18 21 78 61q59 39 114 39q44 0 121 -40
t131 -40l116 82l37 -43q-13 -21 -29 -39q-20 -23 -76 -60q-58 -38 -112 -38q-44 0 -121 40t-131 40z" />
    <glyph glyph-name="Adieresis" unicode="&#xc4;" horiz-adv-x="1443" 
d="M641 1434h150l20 -21l465 -1319l160 -12v-82h-504v78l162 26l-119 347h-561l-123 -357l166 -12v-82h-449v78l156 26zM664 1167l-213 -608h489l-207 608q-14 43 -31 113h-10q-12 -59 -28 -113zM434 1677q0 43 26 69t68 26q40 0 68 -26q27 -26 27 -69q0 -40 -27 -67
t-68 -27q-43 0 -68 27q-26 28 -26 67zM819 1677q0 43 27 69q28 26 67 26q43 0 69 -26t26 -69q0 -39 -26 -67q-26 -27 -69 -27q-40 0 -67 27t-27 67z" />
    <glyph glyph-name="Aring" unicode="&#xc5;" horiz-adv-x="1443" 
d="M641 1434h150l20 -21l465 -1319l160 -12v-82h-504v78l162 26l-119 347h-561l-123 -357l166 -12v-82h-449v78l156 26zM664 1167l-213 -608h489l-207 608q-14 43 -31 113h-10q-12 -59 -28 -113zM549 1698q0 76 46 121q47 45 124 45q78 0 126 -45t48 -121t-48 -122
q-47 -46 -126 -46q-78 0 -124 46t-46 122zM629 1702q0 -98 96 -98l68 10q18 29 18 76q0 100 -94 100l-70 -12q-18 -27 -18 -76z" />
    <glyph glyph-name="AE" unicode="&#xc6;" horiz-adv-x="1677" 
d="M1548 0h-796v78l159 26l-51 347h-432l-137 -357l166 -12v-82h-449v78l156 26l518 1330h842l24 -336h-102l-49 227h-518l86 -543h217l24 172h84v-454h-84l-24 172h-201l90 -563h350l49 231h103zM700 1167l-237 -608h387l-107 723h-8q-7 -45 -35 -115z" />
    <glyph glyph-name="Ccedilla" unicode="&#xc7;" horiz-adv-x="1216" 
d="M633 -182l18 170q-252 24 -399 218q-148 195 -148 513q0 340 168 535q169 196 457 196q94 0 184 -23q88 -22 127 -45l41 -22l25 -326h-102l-54 248q-89 53 -245 53q-79 0 -144 -16q-68 -17 -98 -33l-31 -16q-1 -1 -6.5 -7.5t-10.5 -11.5q-11 -11 -39 -59
q-25 -44 -48 -105q-19 -53 -38 -155q-18 -99 -18 -211q0 -303 116 -463t323 -160q52 0 117 13q62 12 94 24l30 15l56 251h100l-23 -327q-151 -86 -354 -90l-14 -121q3 0 15 -2q3 0 7.5 -2t12 -4.5l13.5 -4.5q23 -7 42 -20q20 -13 34 -39q15 -27 15 -61q0 -67 -55 -104
q-56 -38 -150 -38q-31 0 -66 5q-25 4 -46 12l-15 6l21 82q37 -33 106 -33l84 10q10 31 10 60q0 37 -28 59t-58 27z" />
    <glyph glyph-name="Egrave" unicode="&#xc8;" horiz-adv-x="1228" 
d="M1100 0h-1012v78l162 26v1235l-162 13v82h989l23 -336h-101l-51 227h-542v-543h315l27 172h86v-454h-86l-27 172h-315v-563h567l49 231h102zM356 1755l101 100l264 -294l-68 -37z" />
    <glyph glyph-name="Eacute" unicode="&#xc9;" horiz-adv-x="1228" 
d="M1100 0h-1012v78l162 26v1235l-162 13v82h989l23 -336h-101l-51 227h-542v-543h315l27 172h86v-454h-86l-27 172h-315v-563h567l49 231h102zM489 1561l267 294l98 -100l-297 -231z" />
    <glyph glyph-name="Ecircumflex" unicode="&#xca;" horiz-adv-x="1228" 
d="M1100 0h-1012v78l162 26v1235l-162 13v82h989l23 -336h-101l-51 227h-542v-543h315l27 172h86v-454h-86l-27 172h-315v-563h567l49 231h102zM336 1561l268 282h21l268 -282l-68 -37l-211 178l-213 -178z" />
    <glyph glyph-name="Edieresis" unicode="&#xcb;" horiz-adv-x="1228" 
d="M1100 0h-1012v78l162 26v1235l-162 13v82h989l23 -336h-101l-51 227h-542v-543h315l27 172h86v-454h-86l-27 172h-315v-563h567l49 231h102zM332 1677q0 44 25 69q26 26 67 26q43 0 69 -26q25 -25 25 -69q0 -41 -25 -67q-25 -27 -69 -27q-42 0 -67 27q-25 26 -25 67z
M717 1677q0 44 25 69q26 26 69 26q40 0 68 -26q26 -25 26 -69q0 -41 -26 -67q-27 -27 -68 -27q-43 0 -69 27q-25 26 -25 67z" />
    <glyph glyph-name="Igrave" unicode="&#xcc;" horiz-adv-x="655" 
d="M403 94l162 -12v-82h-477v78l162 26v1235l-162 13v82h477v-78l-162 -27v-1235zM70 1755l100 100l264 -294l-67 -37z" />
    <glyph glyph-name="Iacute" unicode="&#xcd;" horiz-adv-x="655" 
d="M403 94l162 -12v-82h-477v78l162 26v1235l-162 13v82h477v-78l-162 -27v-1235zM197 1561l264 294l100 -100l-297 -231z" />
    <glyph glyph-name="Icircumflex" unicode="&#xce;" horiz-adv-x="655" 
d="M403 94l162 -12v-82h-477v78l162 26v1235l-162 13v82h477v-78l-162 -27v-1235zM49 1561l268 282h21l268 -282l-67 -37l-211 178l-211 -178z" />
    <glyph glyph-name="Idieresis" unicode="&#xcf;" horiz-adv-x="655" 
d="M403 94l162 -12v-82h-477v78l162 26v1235l-162 13v82h477v-78l-162 -27v-1235zM41 1677q0 43 27 69q28 26 67 26q40 0 68 -26q26 -25 26 -69q0 -41 -26 -67q-27 -27 -68 -27q-40 0 -67 27t-27 67zM428 1677q0 43 26 69t66 26q43 0 69 -26q25 -25 25 -69q0 -41 -25 -67
q-25 -27 -69 -27q-40 0 -66 27q-26 28 -26 67z" />
    <glyph glyph-name="Eth" unicode="&#xd0;" horiz-adv-x="1355" 
d="M94 678v90l162 20v551l-162 13v82h582q260 0 418 -192q157 -191 157 -525q0 -335 -157 -526t-418 -191h-582v78l162 26v574h-162zM664 1325h-252v-537h315v-110h-315v-569h260q66 0 125 13q64 14 90 25l28 13q10 10 18 19t41 62q31 49 51 107q23 67 40 161q18 102 18 216
q0 295 -112 447q-112 153 -307 153z" />
    <glyph glyph-name="Ntilde" unicode="&#xd1;" horiz-adv-x="1495" 
d="M371 94l166 -12v-82h-453v78l166 26v1235l-166 13v82h315l693 -1076q29 -41 47 -86l6 2q-6 44 -6 84v981l-166 13v82h452v-78l-165 -27v-1329h-115l-729 1128q-26 43 -45 89l-6 -3q6 -46 6 -86v-1034zM469 1579l-39 45q10 16 30 39q18 20 77 61q57 39 112 39
q46 0 123 -40t131 -40l117 82l37 -43q0 -1 -4 -6t-7 -9q-10 -12 -31 -33q-27 -27 -47 -42q-23 -17 -59 -33q-32 -14 -69 -14q-46 0 -122 40t-130 40z" />
    <glyph glyph-name="Ograve" unicode="&#xd2;" horiz-adv-x="1359" 
d="M104 717q0 336 158 535q158 198 418 198t418 -198q157 -197 157 -535q0 -339 -157 -536t-416 -197q-260 0 -419 196t-159 537zM272 719q0 -302 110 -462q110 -159 306 -159q62 0 122 15q70 17 91 28l29 15q1 1 17 19q9 11 38 63q25 46 47 107q19 52 38 158q17 94 17 212
q0 304 -109 462t-304 158q-64 0 -125 -15t-90 -30l-31 -16q-2 -2 -7.5 -8.5t-8.5 -10.5q-12 -14 -38 -60q-27 -49 -48 -106q-20 -55 -37 -158q-17 -102 -17 -212zM422 1755l100 100l264 -294l-67 -37z" />
    <glyph glyph-name="Oacute" unicode="&#xd3;" horiz-adv-x="1359" 
d="M104 717q0 336 158 535q158 198 418 198t418 -198q157 -197 157 -535q0 -339 -157 -536t-416 -197q-260 0 -419 196t-159 537zM272 719q0 -302 110 -462q110 -159 306 -159q62 0 122 15q70 17 91 28l29 15q1 1 17 19q9 11 38 63q25 46 47 107q19 52 38 158q17 94 17 212
q0 304 -109 462t-304 158q-64 0 -125 -15t-90 -30l-31 -16q-2 -2 -7.5 -8.5t-8.5 -10.5q-12 -14 -38 -60q-27 -49 -48 -106q-20 -55 -37 -158q-17 -102 -17 -212zM549 1561l264 294l100 -100l-297 -231z" />
    <glyph glyph-name="Ocircumflex" unicode="&#xd4;" horiz-adv-x="1359" 
d="M104 717q0 336 158 535q158 198 418 198t418 -198q157 -197 157 -535q0 -339 -157 -536t-416 -197q-260 0 -419 196t-159 537zM272 719q0 -302 110 -462q110 -159 306 -159q62 0 122 15q70 17 91 28l29 15q1 1 17 19q9 11 38 63q25 46 47 107q19 52 38 158q17 94 17 212
q0 304 -109 462t-304 158q-64 0 -125 -15t-90 -30l-31 -16q-2 -2 -7.5 -8.5t-8.5 -10.5q-12 -14 -38 -60q-27 -49 -48 -106q-20 -55 -37 -158q-17 -102 -17 -212zM401 1561l269 282h20l268 -282l-67 -37l-211 178l-211 -178z" />
    <glyph glyph-name="Otilde" unicode="&#xd5;" horiz-adv-x="1359" 
d="M104 717q0 336 158 535q158 198 418 198t418 -198q157 -197 157 -535q0 -339 -157 -536t-416 -197q-260 0 -419 196t-159 537zM272 719q0 -302 110 -462q110 -159 306 -159q62 0 122 15q70 17 91 28l29 15q1 1 17 19q9 11 38 63q25 46 47 107q19 52 38 158q17 94 17 212
q0 304 -109 462t-304 158q-64 0 -125 -15t-90 -30l-31 -16q-2 -2 -7.5 -8.5t-8.5 -10.5q-12 -14 -38 -60q-27 -49 -48 -106q-20 -55 -37 -158q-17 -102 -17 -212zM406 1579l-39 45q13 21 29 39q18 20 77 61q57 39 113 39q46 0 122 -40t130 -40l116 82l37 -43
q-13 -21 -29 -39q-20 -23 -76 -60q-58 -38 -112 -38q-44 0 -121 40t-131 40z" />
    <glyph glyph-name="Odieresis" unicode="&#xd6;" horiz-adv-x="1359" 
d="M104 717q0 336 158 535q158 198 418 198t418 -198q157 -197 157 -535q0 -339 -157 -536t-416 -197q-260 0 -419 196t-159 537zM272 719q0 -302 110 -462q110 -159 306 -159q62 0 122 15q70 17 91 28l29 15q1 1 17 19q9 11 38 63q25 46 47 107q19 52 38 158q17 94 17 212
q0 304 -109 462t-304 158q-64 0 -125 -15t-90 -30l-31 -16q-2 -2 -7.5 -8.5t-8.5 -10.5q-12 -14 -38 -60q-27 -49 -48 -106q-20 -55 -37 -158q-17 -102 -17 -212zM393 1677q0 43 26 69t66 26q43 0 69 -26t26 -69q0 -39 -26 -67q-26 -27 -69 -27q-41 0 -66 27q-26 28 -26 67z
M778 1677q0 43 26 69t68 26q40 0 68 -26q27 -26 27 -69q0 -40 -27 -67t-68 -27q-42 0 -68 27q-26 28 -26 67z" />
    <glyph glyph-name="multiply" unicode="&#xd7;" horiz-adv-x="1026" 
d="M238 348l-72 72l276 276l-276 277l72 71l276 -276l277 276l71 -71l-276 -277l276 -276l-71 -72l-277 277z" />
    <glyph glyph-name="Oslash" unicode="&#xd8;" horiz-adv-x="1359" 
d="M133 4l125 182q-154 196 -154 531q0 336 158 535q158 198 418 198q209 0 354 -133l105 151l88 -41l-125 -182q153 -198 153 -528q0 -339 -157 -536t-418 -197q-211 0 -356 133l-105 -152zM1087 715q0 248 -75 401l-611 -887q105 -131 287 -131q61 0 121 15q66 17 88 28
l31 15q1 1 17 19q12 13 39 63q28 51 48 107q19 52 38 158q17 94 17 212zM272 719q0 -247 76 -402l608 887q-107 131 -284 131q-62 0 -123 -15t-90 -30l-31 -16q-2 -2 -7.5 -8.5t-8.5 -10.5q-12 -14 -38 -60q-27 -49 -48 -106q-20 -55 -37 -158q-17 -102 -17 -212z" />
    <glyph glyph-name="Ugrave" unicode="&#xd9;" horiz-adv-x="1492" 
d="M1251 1329v-835q0 -237 -138 -374q-137 -136 -368 -136q-226 0 -366 134q-139 133 -139 361v860l-162 13v82h481v-78l-160 -27v-848q0 -188 99 -287q100 -100 280 -100q57 0 113 9q52 9 82 20l26 8q11 8 15 13q5 6 30 41q20 27 40 70q16 33 32 101q14 59 14 136v847
l-165 13v82h452v-78zM496 1755l100 100l264 -294l-67 -37z" />
    <glyph glyph-name="Uacute" unicode="&#xda;" horiz-adv-x="1492" 
d="M1251 1329v-835q0 -237 -138 -374q-137 -136 -368 -136q-226 0 -366 134q-139 133 -139 361v860l-162 13v82h481v-78l-160 -27v-848q0 -188 99 -287q100 -100 280 -100q57 0 113 9q52 9 82 20l26 8q11 8 15 13q5 6 30 41q20 27 40 70q16 33 32 101q14 59 14 136v847
l-165 13v82h452v-78zM623 1561l264 294l100 -100l-299 -231z" />
    <glyph glyph-name="Ucircumflex" unicode="&#xdb;" horiz-adv-x="1492" 
d="M1251 1329v-835q0 -237 -138 -374q-137 -136 -368 -136q-226 0 -366 134q-139 133 -139 361v860l-162 13v82h481v-78l-160 -27v-848q0 -188 99 -287q100 -100 280 -100q57 0 113 9q52 9 82 20l26 8q11 8 15 13q5 6 30 41q20 27 40 70q16 33 32 101q14 59 14 136v847
l-165 13v82h452v-78zM475 1561l268 282h21l268 -282l-67 -37l-211 178l-211 -178z" />
    <glyph glyph-name="Udieresis" unicode="&#xdc;" horiz-adv-x="1492" 
d="M1251 1329v-835q0 -237 -138 -374q-137 -136 -368 -136q-226 0 -366 134q-139 133 -139 361v860l-162 13v82h481v-78l-160 -27v-848q0 -188 99 -287q100 -100 280 -100q57 0 113 9q52 9 82 20l26 8q11 8 15 13q5 6 30 41q20 27 40 70q16 33 32 101q14 59 14 136v847
l-165 13v82h452v-78zM467 1677q0 43 26 69t68 26q40 0 68 -26q26 -25 26 -69q0 -41 -26 -67q-27 -27 -68 -27q-43 0 -68 27q-26 28 -26 67zM852 1677q0 43 27 69q28 26 67 26q43 0 69 -26q25 -25 25 -69q0 -41 -25 -67q-25 -27 -69 -27q-40 0 -67 27t-27 67z" />
    <glyph glyph-name="Yacute" unicode="&#xdd;" horiz-adv-x="1368" 
d="M1178 1329l-408 -690v-545l162 -12v-82h-477v78l161 26v531l-430 704l-155 13v82h508v-78l-168 -25l305 -514q34 -56 41 -74h10q12 31 37 74l291 522l-160 13v82h440v-78zM561 1542l264 295l101 -100l-297 -230z" />
    <glyph glyph-name="Thorn" unicode="&#xde;" horiz-adv-x="1224" 
d="M406 96l184 -6v-90h-502v78l162 26v1235l-162 13v82h479v-78l-161 -27v-192h239q214 0 344 -106q129 -105 129 -294q0 -188 -129 -293q-128 -104 -344 -104h-239v-244zM612 1028h-206v-579h215q53 0 102 7q63 9 82 13l29 6q5 3 31 27q20 18 53 86q32 65 32 149
q0 143 -89 217t-249 74z" />
    <glyph glyph-name="germandbls" unicode="&#xdf;" horiz-adv-x="1320" 
d="M698 133q62 -41 191 -41q52 0 95 7q41 7 69 16l22 6q35 62 35 141q0 55 -17 93q-18 41 -59 68q-45 30 -71 43q-30 15 -93 38q-299 114 -299 424q151 69 222 142q73 74 73 181q0 91 -55 145t-164 54q-55 0 -106 -13q-55 -14 -80 -28l-27 -12q-57 -83 -57 -252v-1145h-293
v76l143 26v1043q0 198 122 302q121 103 321 103q175 0 258 -80q82 -79 82 -210q0 -128 -80 -214q-79 -84 -232 -165q0 -165 250 -271q148 -63 193 -98q98 -82 98 -223q0 -138 -89 -221q-88 -82 -273 -82q-90 0 -167 19t-112 38l-35 18v242h109z" />
    <glyph glyph-name="agrave" unicode="&#xe0;" horiz-adv-x="1105" 
d="M111 242q0 129 77 210q78 83 238 101l326 39v131q0 123 -52 183q-51 59 -182 59q-57 0 -108 -12q-55 -13 -74 -23l-23 -10l-26 -170h-109v241q6 3 40 23q23 14 115 37q87 22 189 22q204 0 293 -90q88 -89 88 -276v-531q0 -76 76 -76h78l10 -69q-51 -39 -145 -39
q-144 0 -166 123q-150 -129 -361 -129q-141 0 -213 66q-71 65 -71 190zM254 260q0 -164 190 -164q168 0 308 113v299l-430 -74q-68 -62 -68 -174zM231 1436l101 100l264 -295l-66 -37z" />
    <glyph glyph-name="aacute" unicode="&#xe1;" horiz-adv-x="1105" 
d="M111 242q0 129 77 210q78 83 238 101l326 39v131q0 123 -52 183q-51 59 -182 59q-57 0 -108 -12q-55 -13 -74 -23l-23 -10l-26 -170h-109v241q6 3 40 23q23 14 115 37q87 22 189 22q204 0 293 -90q88 -89 88 -276v-531q0 -76 76 -76h78l10 -69q-51 -39 -145 -39
q-144 0 -166 123q-150 -129 -361 -129q-141 0 -213 66q-71 65 -71 190zM254 260q0 -164 190 -164q168 0 308 113v299l-430 -74q-68 -62 -68 -174zM418 1241l264 295l100 -100l-297 -232z" />
    <glyph glyph-name="acircumflex" unicode="&#xe2;" horiz-adv-x="1105" 
d="M111 242q0 129 77 210q78 83 238 101l326 39v131q0 123 -52 183q-51 59 -182 59q-57 0 -108 -12q-55 -13 -74 -23l-23 -10l-26 -170h-109v241q6 3 40 23q23 14 115 37q87 22 189 22q204 0 293 -90q88 -89 88 -276v-531q0 -76 76 -76h78l10 -69q-51 -39 -145 -39
q-144 0 -166 123q-150 -129 -361 -129q-141 0 -213 66q-71 65 -71 190zM254 260q0 -164 190 -164q168 0 308 113v299l-430 -74q-68 -62 -68 -174zM244 1241l268 283h20l269 -283l-68 -37l-211 178l-211 -178z" />
    <glyph glyph-name="atilde" unicode="&#xe3;" horiz-adv-x="1105" 
d="M111 242q0 129 77 210q78 83 238 101l326 39v131q0 123 -52 183q-51 59 -182 59q-57 0 -108 -12q-55 -13 -74 -23l-23 -10l-26 -170h-109v241q6 3 40 23q23 14 115 37q87 22 189 22q204 0 293 -90q88 -89 88 -276v-531q0 -76 76 -76h78l10 -69q-51 -39 -145 -39
q-144 0 -166 123q-150 -129 -361 -129q-141 0 -213 66q-71 65 -71 190zM254 260q0 -164 190 -164q168 0 308 113v299l-430 -74q-68 -62 -68 -174zM256 1280l-39 45q11 17 30 39q18 20 77 61q57 39 112 39q46 0 123 -40t131 -40l117 82l37 -43l-4 -5q-4 -6 -7 -10
q-10 -12 -31 -33q-27 -27 -47 -42q-23 -17 -59 -33q-32 -14 -69 -14q-45 0 -122 39q-76 39 -130 39z" />
    <glyph glyph-name="adieresis" unicode="&#xe4;" horiz-adv-x="1105" 
d="M111 242q0 129 77 210q78 83 238 101l326 39v131q0 123 -52 183q-51 59 -182 59q-57 0 -108 -12q-55 -13 -74 -23l-23 -10l-26 -170h-109v241q6 3 40 23q23 14 115 37q87 22 189 22q204 0 293 -90q88 -89 88 -276v-531q0 -76 76 -76h78l10 -69q-51 -39 -145 -39
q-144 0 -166 123q-150 -129 -361 -129q-141 0 -213 66q-71 65 -71 190zM254 260q0 -164 190 -164q168 0 308 113v299l-430 -74q-68 -62 -68 -174zM627 1368q0 44 26 69t68 25q44 0 69 -25t25 -69q0 -42 -25 -68t-69 -26q-42 0 -68 26t-26 68zM242 1368q0 44 25 69t69 25
q41 0 67 -25q27 -25 27 -69q0 -41 -27 -68q-26 -26 -67 -26q-44 0 -69 26t-25 68z" />
    <glyph glyph-name="aring" unicode="&#xe5;" horiz-adv-x="1105" 
d="M111 242q0 129 77 210q78 83 238 101l326 39v131q0 123 -52 183q-51 59 -182 59q-57 0 -108 -12q-55 -13 -74 -23l-23 -10l-26 -170h-109v241q6 3 40 23q23 14 115 37q87 22 189 22q204 0 293 -90q88 -89 88 -276v-531q0 -76 76 -76h78l10 -69q-51 -39 -145 -39
q-144 0 -166 123q-150 -129 -361 -129q-141 0 -213 66q-71 65 -71 190zM254 260q0 -164 190 -164q168 0 308 113v299l-430 -74q-68 -62 -68 -174zM363 1376q0 76 46 121t123 45q80 0 127 -45q48 -46 48 -121t-48 -121q-47 -45 -127 -45q-76 0 -123 45q-46 45 -46 121z
M444 1380q0 -98 97 -98l67 12q19 28 19 76q0 98 -95 98l-69 -10q-19 -30 -19 -78z" />
    <glyph glyph-name="ae" unicode="&#xe6;" horiz-adv-x="1634" 
d="M1475 168l30 -84q-15 -10 -42 -27q-28 -17 -113 -44q-86 -27 -174 -27q-241 0 -371 172q-34 -36 -69 -63q-40 -31 -137 -70t-202 -39q-144 0 -215 67t-71 191q0 128 77 208t238 101l274 33q7 109 48 209q-12 85 -67 128q-54 42 -163 42q-57 0 -108 -12q-55 -13 -74 -23
l-23 -10l-26 -170h-109v241q6 3 40 23q23 14 115 37q87 22 189 22q236 0 324 -127q121 127 307 127t291 -137q105 -136 90 -387l-49 -35h-627q1 -209 97 -314q95 -104 249 -104q66 0 133 18q70 19 103 36zM967 924q-14 -14 -31 -38q-18 -26 -48 -111t-30 -179l537 20
q1 167 -65 258q-67 91 -187 91q-39 0 -85 -11q-50 -12 -67 -20zM254 260q0 -164 190 -164q180 0 322 125q-67 119 -68 281l-376 -68q-68 -62 -68 -174z" />
    <glyph glyph-name="ccedilla" unicode="&#xe7;" horiz-adv-x="1036" 
d="M518 -182l19 170q-201 17 -318 159q-119 145 -119 381q0 246 129 396q128 149 367 149q90 0 167 -20q85 -22 120 -41l39 -19v-243h-111l-25 170q-76 45 -206 45q-54 0 -111 -13q-58 -13 -78 -22l-24 -12q-11 -11 -30 -38q-16 -22 -47 -121q-30 -95 -30 -210
q0 -453 354 -453q72 0 144 18q71 18 106 36l37 18l31 -84q-22 -16 -41 -26q-28 -15 -109 -42q-81 -26 -166 -28l-16 -125q3 0 15 -2q3 0 7.5 -2t12.5 -4.5t14 -4.5q24 -8 43 -20q20 -13 34 -39q15 -27 15 -61q0 -67 -56 -104q-58 -38 -148 -38q-32 0 -67 5q-25 4 -46 12
l-14 6l18 82q38 -33 109 -33l84 10q10 31 10 60q0 36 -29 59q-28 23 -57 27z" />
    <glyph glyph-name="egrave" unicode="&#xe8;" horiz-adv-x="1077" 
d="M918 168l30 -84q-16 -10 -45 -27q-30 -17 -119 -44q-90 -27 -182 -27q-226 0 -363 143q-139 145 -139 395t133 399q133 150 345 150q197 0 305 -137q109 -138 94 -387l-49 -35h-668q0 -212 101 -314q102 -104 266 -104q70 0 142 18q74 19 112 36zM375 924
q-13 -13 -32 -38q-19 -26 -51 -111q-32 -87 -32 -179l580 20q1 167 -71 258q-73 91 -202 91q-45 0 -95 -11q-55 -12 -73 -20zM272 1436l101 100l264 -295l-68 -37z" />
    <glyph glyph-name="eacute" unicode="&#xe9;" horiz-adv-x="1077" 
d="M918 168l30 -84q-16 -10 -45 -27q-30 -17 -119 -44q-90 -27 -182 -27q-226 0 -363 143q-139 145 -139 395t133 399q133 150 345 150q197 0 305 -137q109 -138 94 -387l-49 -35h-668q0 -212 101 -314q102 -104 266 -104q70 0 142 18q74 19 112 36zM375 924
q-13 -13 -32 -38q-19 -26 -51 -111q-32 -87 -32 -179l580 20q1 167 -71 258q-73 91 -202 91q-45 0 -95 -11q-55 -12 -73 -20zM492 1241l264 295l100 -100l-297 -232z" />
    <glyph glyph-name="ecircumflex" unicode="&#xea;" horiz-adv-x="1077" 
d="M918 168l30 -84q-16 -10 -45 -27q-30 -17 -119 -44q-90 -27 -182 -27q-226 0 -363 143q-139 145 -139 395t133 399q133 150 345 150q197 0 305 -137q109 -138 94 -387l-49 -35h-668q0 -212 101 -314q102 -104 266 -104q70 0 142 18q74 19 112 36zM375 924
q-13 -13 -32 -38q-19 -26 -51 -111q-32 -87 -32 -179l580 20q1 167 -71 258q-73 91 -202 91q-45 0 -95 -11q-55 -12 -73 -20zM289 1241l268 283h21l268 -283l-68 -37l-211 178l-211 -178z" />
    <glyph glyph-name="edieresis" unicode="&#xeb;" horiz-adv-x="1077" 
d="M918 168l30 -84q-16 -10 -45 -27q-30 -17 -119 -44q-90 -27 -182 -27q-226 0 -363 143q-139 145 -139 395t133 399q133 150 345 150q197 0 305 -137q109 -138 94 -387l-49 -35h-668q0 -212 101 -314q102 -104 266 -104q70 0 142 18q74 19 112 36zM375 924
q-13 -13 -32 -38q-19 -26 -51 -111q-32 -87 -32 -179l580 20q1 167 -71 258q-73 91 -202 91q-45 0 -95 -11q-55 -12 -73 -20zM283 1368q0 44 26 69t68 25q43 0 68 -25q26 -26 26 -69q0 -40 -26 -68q-25 -26 -68 -26q-42 0 -68 26t-26 68zM670 1368q0 44 25 69t67 25
q43 0 68 -25q26 -26 26 -69q0 -40 -26 -68q-25 -26 -68 -26q-42 0 -67 26t-25 68z" />
    <glyph glyph-name="igrave" unicode="&#xec;" horiz-adv-x="598" 
d="M-2 1436l100 100l264 -295l-67 -37zM88 979v72l277 22l16 -16v-967l143 -12v-78h-436v76l141 26v834z" />
    <glyph glyph-name="iacute" unicode="&#xed;" horiz-adv-x="598" 
d="M188 1241l265 295l100 -100l-297 -232zM88 979v72l277 22l16 -16v-967l143 -12v-78h-436v76l141 26v834z" />
    <glyph glyph-name="icircumflex" unicode="&#xee;" horiz-adv-x="598" 
d="M88 979v72l277 22l16 -16v-967l143 -12v-78h-436v76l141 26v834zM6 1241l268 283h21l268 -283l-65 -37l-213 178l-211 -178z" />
    <glyph glyph-name="idieresis" unicode="&#xef;" horiz-adv-x="598" 
d="M0 1368q0 43 26 69q25 25 66 25q44 0 69 -25t25 -69q0 -42 -25 -68t-69 -26q-41 0 -66 26q-26 28 -26 68zM385 1368q0 43 26 69q25 25 68 25q42 0 68 -25t26 -69q0 -42 -26 -68t-68 -26q-43 0 -68 26q-26 28 -26 68zM88 979v72l277 22l16 -16v-967l143 -12v-78h-436v76
l141 26v834z" />
    <glyph glyph-name="eth" unicode="&#xf0;" horiz-adv-x="1116" 
d="M811 1468l-176 -98q377 -297 377 -801q0 -289 -120 -436t-329 -147q-211 0 -337 145q-126 146 -126 401q0 252 122 397q122 144 329 144q96 0 201 -39q-83 165 -213 283l-224 -125l-45 76l197 108q-49 38 -99 66q-48 28 -77 39l-25 10l39 59q117 -34 252 -123l211 117z
M860 537q0 189 -49 346q-106 82 -254 82q-42 0 -94 -10q-45 -9 -70 -17l-24 -10q-12 -12 -30 -39q-16 -24 -47 -129q-30 -102 -30 -225q0 -216 80 -328q80 -111 225 -111q43 0 89 9q35 7 71 18l25 8q4 4 11 14q7 11 27 45q16 28 33 78q13 38 26 115q11 66 11 154z" />
    <glyph glyph-name="ntilde" unicode="&#xf1;" horiz-adv-x="1261" 
d="M92 979v72l273 22l16 -16l-8 -117l4 -6q161 139 387 139q157 0 226 -81t69 -247v-655l141 -12v-78h-436v76l143 26v633q0 119 -45 173q-46 55 -160 55q-182 0 -317 -129v-744l143 -12v-78h-436v76l141 26v834zM346 1280l-39 45q11 17 30 39q18 20 77 61q57 39 112 39
q46 0 122 -40t132 -40l115 82l37 -43q-10 -17 -30 -39q-20 -23 -76 -60q-58 -38 -111 -38q-43 0 -121 39t-129 39z" />
    <glyph glyph-name="ograve" unicode="&#xf2;" horiz-adv-x="1142" 
d="M100 530q0 256 130 399q130 144 343 144t342 -145t129 -398q0 -254 -129 -399t-342 -145t-343 145t-130 399zM262 535q0 -213 84 -326t236 -113q44 0 90 9q35 7 71 18l25 8q11 11 32 40q19 26 51 130t32 225q0 216 -84 327q-85 112 -236 112q-40 0 -92 -10
q-46 -9 -72 -17l-24 -10q-15 -15 -31 -39q-19 -28 -50 -129q-32 -104 -32 -225zM266 1436l101 100l264 -295l-66 -37z" />
    <glyph glyph-name="oacute" unicode="&#xf3;" horiz-adv-x="1142" 
d="M100 530q0 256 130 399q130 144 343 144t342 -145t129 -398q0 -254 -129 -399t-342 -145t-343 145t-130 399zM262 535q0 -213 84 -326t236 -113q44 0 90 9q35 7 71 18l25 8q11 11 32 40q19 26 51 130t32 225q0 216 -84 327q-85 112 -236 112q-40 0 -92 -10
q-46 -9 -72 -17l-24 -10q-15 -15 -31 -39q-19 -28 -50 -129q-32 -104 -32 -225zM487 1241l265 295l100 -100l-297 -232z" />
    <glyph glyph-name="ocircumflex" unicode="&#xf4;" horiz-adv-x="1142" 
d="M100 530q0 256 130 399q130 144 343 144t342 -145t129 -398q0 -254 -129 -399t-342 -145t-343 145t-130 399zM262 535q0 -213 84 -326t236 -113q44 0 90 9q35 7 71 18l25 8q11 11 32 40q19 26 51 130t32 225q0 216 -84 327q-85 112 -236 112q-40 0 -92 -10
q-46 -9 -72 -17l-24 -10q-15 -15 -31 -39q-19 -28 -50 -129q-32 -104 -32 -225zM293 1241l268 283h21l268 -283l-68 -37l-211 178l-211 -178z" />
    <glyph glyph-name="otilde" unicode="&#xf5;" horiz-adv-x="1142" 
d="M100 530q0 256 130 399q130 144 343 144t342 -145t129 -398q0 -254 -129 -399t-342 -145t-343 145t-130 399zM262 535q0 -213 84 -326t236 -113q44 0 90 9q35 7 71 18l25 8q11 11 32 40q19 26 51 130t32 225q0 216 -84 327q-85 112 -236 112q-40 0 -92 -10
q-46 -9 -72 -17l-24 -10q-15 -15 -31 -39q-19 -28 -50 -129q-32 -104 -32 -225zM297 1280l-39 45q10 17 30 39q18 20 77 61q57 39 112 39q46 0 123 -40t131 -40l117 82l37 -43q-5 -6 -12 -15q-15 -18 -30 -33q-27 -27 -47 -42q-23 -17 -59 -33q-32 -14 -69 -14
q-46 0 -122 39q-77 39 -130 39z" />
    <glyph glyph-name="odieresis" unicode="&#xf6;" horiz-adv-x="1142" 
d="M100 530q0 256 130 399q130 144 343 144t342 -145t129 -398q0 -254 -129 -399t-342 -145t-343 145t-130 399zM262 535q0 -213 84 -326t236 -113q44 0 90 9q35 7 71 18l25 8q11 11 32 40q19 26 51 130t32 225q0 216 -84 327q-85 112 -236 112q-40 0 -92 -10
q-46 -9 -72 -17l-24 -10q-15 -15 -31 -39q-19 -28 -50 -129q-32 -104 -32 -225zM285 1368q0 44 25 69t67 25q43 0 68 -25q26 -26 26 -69q0 -40 -26 -68q-25 -26 -68 -26q-42 0 -67 26t-25 68zM670 1368q0 44 25 69t69 25q41 0 67 -25q27 -25 27 -69q0 -41 -27 -68
q-26 -26 -67 -26q-44 0 -69 26t-25 68z" />
    <glyph glyph-name="divide" unicode="&#xf7;" horiz-adv-x="1026" 
d="M129 645v103h768v-103h-768zM410 1020q0 46 28 74t74 28t74 -28t28 -74q0 -48 -28 -76q-29 -29 -74 -29q-48 0 -75 29q-27 28 -27 76zM512 258q-45 0 -74 29q-28 28 -28 73q0 48 27 75q28 28 75 28q44 0 74 -28q28 -27 28 -75q0 -45 -28 -73q-29 -29 -74 -29z" />
    <glyph glyph-name="oslash" unicode="&#xf8;" horiz-adv-x="1142" 
d="M121 -20l108 151q-129 145 -129 399q0 256 130 399q130 144 343 144q157 0 275 -84l90 125l86 -37l-109 -151q129 -146 129 -396q0 -254 -129 -399t-342 -145q-162 0 -276 84l-88 -123zM258 537q0 -176 57 -287l459 637q-82 82 -209 82q-47 0 -96 -12q-58 -14 -76 -21
l-24 -10q-15 -15 -31 -39q-20 -30 -49 -127q-31 -104 -31 -223zM887 524q0 172 -58 285l-458 -637q80 -80 211 -80q47 0 93 10q48 10 75 21l24 10q7 7 12 13q10 12 28 44q17 30 34 76q13 34 26 111q13 75 13 147z" />
    <glyph glyph-name="ugrave" unicode="&#xf9;" horiz-adv-x="1234" 
d="M725 979v72l276 22l17 -16v-934l143 -41v-74l-272 -22l-19 18l11 115l-7 6q-155 -139 -380 -139q-159 0 -225 82t-66 247v621l-142 43v72l277 22l16 -16v-731q0 -119 43 -174q44 -56 156 -56q170 0 315 131v709zM262 1436l100 100l265 -295l-66 -37z" />
    <glyph glyph-name="uacute" unicode="&#xfa;" horiz-adv-x="1234" 
d="M725 979v72l276 22l17 -16v-934l143 -41v-74l-272 -22l-19 18l11 115l-7 6q-155 -139 -380 -139q-159 0 -225 82t-66 247v621l-142 43v72l277 22l16 -16v-731q0 -119 43 -174q44 -56 156 -56q170 0 315 131v709zM494 1241l264 295l100 -100l-297 -232z" />
    <glyph glyph-name="ucircumflex" unicode="&#xfb;" horiz-adv-x="1234" 
d="M725 979v72l276 22l17 -16v-934l143 -41v-74l-272 -22l-19 18l11 115l-7 6q-155 -139 -380 -139q-159 0 -225 82t-66 247v621l-142 43v72l277 22l16 -16v-731q0 -119 43 -174q44 -56 156 -56q170 0 315 131v709zM313 1241l269 283h20l268 -283l-67 -37l-211 178
l-211 -178z" />
    <glyph glyph-name="udieresis" unicode="&#xfc;" horiz-adv-x="1234" 
d="M725 979v72l276 22l17 -16v-934l143 -41v-74l-272 -22l-19 18l11 115l-7 6q-155 -139 -380 -139q-159 0 -225 82t-66 247v621l-142 43v72l277 22l16 -16v-731q0 -119 43 -174q44 -56 156 -56q170 0 315 131v709zM297 1368q0 43 26 69q25 25 66 25q44 0 70 -25t26 -69
q0 -42 -26 -68t-70 -26q-41 0 -66 26q-26 28 -26 68zM682 1368q0 44 27 69q26 25 67 25q42 0 68 -25t26 -69q0 -42 -26 -68t-68 -26q-41 0 -67 26q-27 27 -27 68z" />
    <glyph glyph-name="yacute" unicode="&#xfd;" horiz-adv-x="1200" 
d="M551 -23l-397 992l-140 12v78h457v-74l-149 -24l272 -695q17 -46 33 -112h10q12 61 33 112l254 703l-144 12v78h402v-74l-135 -27l-361 -958q-111 -292 -191 -388q-81 -97 -227 -97q-37 0 -80 5q-37 4 -57 11l-20 6l24 144q79 -41 260 -41q110 144 156 337zM530 1241
l267 295l100 -100l-299 -232z" />
    <glyph glyph-name="thorn" unicode="&#xfe;" horiz-adv-x="1163" 
d="M51 1454v74l273 22l16 -18v-473q0 -60 -8 -119l4 -6q129 139 311 139q179 0 298 -141q118 -140 118 -387q0 -260 -129 -410q-128 -149 -354 -149q-131 0 -236 49v-414l205 -6v-86h-498v76l142 26v1782zM901 516q0 222 -81 333q-82 112 -224 112q-158 0 -252 -127v-680
q96 -58 242 -58q59 0 108 10q51 10 72 21l22 10q15 15 31 39q20 29 50 125q32 101 32 215z" />
    <glyph glyph-name="ydieresis" unicode="&#xff;" horiz-adv-x="1200" 
d="M551 -23l-397 992l-140 12v78h457v-74l-149 -24l272 -695q17 -46 33 -112h10q12 61 33 112l254 703l-144 12v78h402v-74l-135 -27l-361 -958q-111 -292 -191 -388q-81 -97 -227 -97q-37 0 -80 5q-37 4 -57 11l-20 6l24 144q79 -41 260 -41q110 144 156 337zM324 1368
q0 44 25 69t67 25q43 0 68 -25q26 -26 26 -69q0 -40 -26 -68q-25 -26 -68 -26q-42 0 -67 26t-25 68zM709 1368q0 44 25 69t69 25q41 0 67 -25q27 -25 27 -69q0 -41 -27 -68q-26 -26 -67 -26q-44 0 -69 26t-25 68z" />
    <glyph glyph-name="Amacron" unicode="&#x100;" horiz-adv-x="1443" 
d="M641 1434h150l20 -21l465 -1319l160 -12v-82h-504v78l162 26l-119 347h-561l-123 -357l166 -12v-82h-449v78l156 26zM664 1167l-213 -608h489l-207 608q-14 43 -31 113h-10q-12 -59 -28 -113zM457 1602v102h528v-102h-528z" />
    <glyph glyph-name="amacron" unicode="&#x101;" horiz-adv-x="1105" 
d="M111 242q0 129 77 210q78 83 238 101l326 39v131q0 123 -52 183q-51 59 -182 59q-57 0 -108 -12q-55 -13 -74 -23l-23 -10l-26 -170h-109v241q6 3 40 23q23 14 115 37q87 22 189 22q204 0 293 -90q88 -89 88 -276v-531q0 -76 76 -76h78l10 -69q-51 -39 -145 -39
q-144 0 -166 123q-150 -129 -361 -129q-141 0 -213 66q-71 65 -71 190zM254 260q0 -164 190 -164q168 0 308 113v299l-430 -74q-68 -62 -68 -174zM266 1300v103h531v-103h-531z" />
    <glyph glyph-name="Abreve" unicode="&#x102;" horiz-adv-x="1443" 
d="M641 1434h150l20 -21l465 -1319l160 -12v-82h-504v78l162 26l-119 347h-561l-123 -357l166 -12v-82h-449v78l156 26zM664 1167l-213 -608h489l-207 608q-14 43 -31 113h-10q-12 -59 -28 -113zM926 1769l53 -20q-2 -10 -6 -22q-4 -11 -23 -48q-17 -32 -44 -61
q-26 -27 -75 -48q-52 -22 -108 -22q-95 0 -159 49t-81 99l-18 47l82 29q2 -7 5 -15q4 -11 18 -30q12 -17 35 -38q19 -17 55 -31q35 -13 79 -13q66 0 112 31q43 29 60 63z" />
    <glyph glyph-name="abreve" unicode="&#x103;" horiz-adv-x="1105" 
d="M111 242q0 129 77 210q78 83 238 101l326 39v131q0 123 -52 183q-51 59 -182 59q-57 0 -108 -12q-55 -13 -74 -23l-23 -10l-26 -170h-109v241q6 3 40 23q23 14 115 37q87 22 189 22q204 0 293 -90q88 -89 88 -276v-531q0 -76 76 -76h78l10 -69q-51 -39 -145 -39
q-144 0 -166 123q-150 -129 -361 -129q-141 0 -213 66q-71 65 -71 190zM254 260q0 -164 190 -164q168 0 308 113v299l-430 -74q-68 -62 -68 -174zM735 1464l51 -20q-2 -10 -6 -22q-6 -19 -21 -47q-17 -32 -43 -60q-26 -27 -75 -48q-52 -22 -109 -22q-94 0 -158 49
q-65 50 -83 99l-17 47l82 28q1 -4 5 -14q3 -6 19 -31q14 -22 35 -39q16 -14 55 -30q36 -15 79 -15q40 0 76 14q37 15 54 30q19 18 33 36q11 14 17 31z" />
    <glyph glyph-name="Aogonek" unicode="&#x104;" horiz-adv-x="1443" 
d="M1223 -225q0 -101 102 -101q24 0 52 5q18 3 40 12l13 6l10 -43q-50 -51 -152 -51q-82 0 -127 42t-45 113q0 65 38 126q38 60 75 87l37 29h-334v78l162 26l-119 347h-561l-123 -357l166 -12v-82h-449v78l156 26l477 1330h150l20 -21l465 -1319l160 -12v-82h-95
q-4 -4 -15 -14.5t-17 -15.5q-22 -20 -54 -79q-32 -58 -32 -116zM664 1167l-213 -608h489l-207 608q-14 43 -31 113h-10q-12 -59 -28 -113z" />
    <glyph glyph-name="aogonek" unicode="&#x105;" horiz-adv-x="1105" 
d="M850 -219q0 -100 100 -100q27 0 54 6q26 6 40 10l13 6l10 -43q-51 -51 -154 -51q-80 0 -125 42t-45 113q0 127 134 232q-100 15 -121 119q-150 -129 -361 -129q-141 0 -213 66q-71 65 -71 190q0 129 77 210q78 83 238 101l326 39v131q0 123 -52 183q-51 59 -182 59
q-57 0 -108 -12q-55 -13 -74 -23l-23 -10l-26 -170h-109v241q6 3 40 23q23 14 115 37q87 22 189 22q204 0 293 -90q88 -89 88 -276v-531q0 -76 76 -76h78l10 -69q-42 -31 -113 -37q-104 -95 -104 -213zM254 260q0 -164 190 -164q168 0 308 113v299l-430 -74
q-68 -62 -68 -174z" />
    <glyph glyph-name="Cacute" unicode="&#x106;" horiz-adv-x="1216" 
d="M1004 1034l-54 248q-89 53 -245 53q-79 0 -144 -16q-68 -17 -98 -33l-31 -16q-1 -1 -6.5 -7.5t-10.5 -11.5q-11 -11 -39 -59q-25 -44 -48 -105q-19 -53 -38 -155q-18 -99 -18 -211q0 -303 116 -463t323 -160q52 0 117 13q62 12 94 24l30 15l56 251h100l-23 -327
q-18 -11 -49 -26q-33 -16 -127 -40q-96 -24 -188 -24q-284 0 -450 196q-167 197 -167 539q0 340 168 535q169 196 457 196q94 0 184 -23q88 -22 127 -45l41 -22l25 -326h-102zM575 1561l267 294l100 -100l-299 -231z" />
    <glyph glyph-name="cacute" unicode="&#x107;" horiz-adv-x="1036" 
d="M811 750l-25 170q-76 45 -206 45q-54 0 -111 -13q-58 -13 -78 -22l-24 -12q-11 -11 -30 -38q-16 -22 -47 -121q-30 -95 -30 -210q0 -453 354 -453q72 0 144 18q71 18 106 36l37 18l31 -84q-4 -3 -44 -27q-27 -17 -117 -44q-89 -27 -179 -27q-225 0 -358 143
q-134 145 -134 399q0 246 129 396q128 149 367 149q90 0 167 -20q85 -22 120 -41l39 -19v-243h-111zM487 1241l265 295l100 -100l-299 -232z" />
    <glyph glyph-name="Ccircumflex" unicode="&#x108;" horiz-adv-x="1216" 
d="M1004 1034l-54 248q-89 53 -245 53q-79 0 -144 -16q-68 -17 -98 -33l-31 -16q-1 -1 -6.5 -7.5t-10.5 -11.5q-11 -11 -39 -59q-25 -44 -48 -105q-19 -53 -38 -155q-18 -99 -18 -211q0 -303 116 -463t323 -160q52 0 117 13q62 12 94 24l30 15l56 251h100l-23 -327
q-18 -11 -49 -26q-33 -16 -127 -40q-96 -24 -188 -24q-284 0 -450 196q-167 197 -167 539q0 340 168 535q169 196 457 196q94 0 184 -23q88 -22 127 -45l41 -22l25 -326h-102zM430 1561l268 282h21l268 -282l-67 -37l-211 178l-211 -178z" />
    <glyph glyph-name="ccircumflex" unicode="&#x109;" horiz-adv-x="1036" 
d="M811 750l-25 170q-76 45 -206 45q-54 0 -111 -13q-58 -13 -78 -22l-24 -12q-11 -11 -30 -38q-16 -22 -47 -121q-30 -95 -30 -210q0 -453 354 -453q72 0 144 18q71 18 106 36l37 18l31 -84q-4 -3 -44 -27q-27 -17 -117 -44q-89 -27 -179 -27q-225 0 -358 143
q-134 145 -134 399q0 246 129 396q128 149 367 149q90 0 167 -20q85 -22 120 -41l39 -19v-243h-111zM301 1241l268 283h21l268 -283l-65 -37l-213 178l-211 -178z" />
    <glyph glyph-name="Cdotaccent" unicode="&#x10a;" horiz-adv-x="1216" 
d="M1004 1034l-54 248q-89 53 -245 53q-79 0 -144 -16q-68 -17 -98 -33l-31 -16q-1 -1 -6.5 -7.5t-10.5 -11.5q-11 -11 -39 -59q-25 -44 -48 -105q-19 -53 -38 -155q-18 -99 -18 -211q0 -303 116 -463t323 -160q52 0 117 13q62 12 94 24l30 15l56 251h100l-23 -327
q-18 -11 -49 -26q-33 -16 -127 -40q-96 -24 -188 -24q-284 0 -450 196q-167 197 -167 539q0 340 168 535q169 196 457 196q94 0 184 -23q88 -22 127 -45l41 -22l25 -326h-102zM580 1690q0 52 30 82t82 30q50 0 81 -30q32 -30 32 -82q0 -50 -32 -80q-33 -31 -81 -31
q-51 0 -82 31q-30 30 -30 80z" />
    <glyph glyph-name="cdotaccent" unicode="&#x10b;" horiz-adv-x="1036" 
d="M811 750l-25 170q-76 45 -206 45q-54 0 -111 -13q-58 -13 -78 -22l-24 -12q-11 -11 -30 -38q-16 -22 -47 -121q-30 -95 -30 -210q0 -453 354 -453q72 0 144 18q71 18 106 36l37 18l31 -84q-4 -3 -44 -27q-27 -17 -117 -44q-89 -27 -179 -27q-225 0 -358 143
q-134 145 -134 399q0 246 129 396q128 149 367 149q90 0 167 -20q85 -22 120 -41l39 -19v-243h-111zM457 1382q0 50 31 80q33 31 81 31q52 0 82 -30q31 -31 31 -81q0 -51 -31 -82q-30 -30 -82 -30q-49 0 -81 30q-31 30 -31 82z" />
    <glyph glyph-name="Ccaron" unicode="&#x10c;" horiz-adv-x="1216" 
d="M1004 1034l-54 248q-89 53 -245 53q-79 0 -144 -16q-68 -17 -98 -33l-31 -16q-1 -1 -6.5 -7.5t-10.5 -11.5q-11 -11 -39 -59q-25 -44 -48 -105q-19 -53 -38 -155q-18 -99 -18 -211q0 -303 116 -463t323 -160q52 0 117 13q62 12 94 24l30 15l56 251h100l-23 -327
q-18 -11 -49 -26q-33 -16 -127 -40q-96 -24 -188 -24q-284 0 -450 196q-167 197 -167 539q0 340 168 535q169 196 457 196q94 0 184 -23q88 -22 127 -45l41 -22l25 -326h-102zM690 1524l-260 276l55 47l215 -182l215 182l54 -47l-258 -276h-21z" />
    <glyph glyph-name="ccaron" unicode="&#x10d;" horiz-adv-x="1036" 
d="M811 750l-25 170q-76 45 -206 45q-54 0 -111 -13q-58 -13 -78 -22l-24 -12q-11 -11 -30 -38q-16 -22 -47 -121q-30 -95 -30 -210q0 -453 354 -453q72 0 144 18q71 18 106 36l37 18l31 -84q-4 -3 -44 -27q-27 -17 -117 -44q-89 -27 -179 -27q-225 0 -358 143
q-134 145 -134 399q0 246 129 396q128 149 367 149q90 0 167 -20q85 -22 120 -41l39 -19v-243h-111zM561 1212l-260 275l55 49l215 -182l215 182l54 -49l-258 -275h-21z" />
    <glyph glyph-name="Dcaron" unicode="&#x10e;" horiz-adv-x="1349" 
d="M670 0h-582v78l162 26v1235l-162 13v82h582q260 0 417 -192q158 -193 158 -525q0 -333 -158 -526q-157 -191 -417 -191zM655 1325h-249v-1216h258q65 0 124 13q68 15 93 25l28 13q10 10 18 19t41 62q31 49 51 107q23 67 40 161q18 102 18 216q0 295 -112 447
q-113 153 -310 153zM625 1524l-258 276l53 47l215 -182l215 182l55 -47l-260 -276h-20z" />
    <glyph glyph-name="dcaron" unicode="&#x10f;" horiz-adv-x="1400" 
d="M1110 82v-74l-270 -22l-19 18l10 115l-6 6q-123 -139 -311 -139q-180 0 -297 142t-117 388q0 258 129 408q128 149 353 149q130 0 235 -49v389l-141 41v74l276 22l17 -18v-1409zM260 530q0 -214 82 -321q83 -109 225 -109q154 0 250 123v682q-99 60 -237 60
q-57 0 -112 -11q-56 -11 -75 -20l-22 -10q-14 -14 -31 -38q-20 -28 -49 -127q-31 -105 -31 -229zM1128 1096l-28 43q21 13 39 29q19 17 59 77q37 56 35 111q-41 2 -65 29q-23 26 -23 69q0 46 27 73t73 27q103 0 103 -133q0 -59 -23 -116t-55 -93q-30 -34 -65 -64t-54 -40z
" />
    <glyph glyph-name="Dcroat" unicode="&#x110;" horiz-adv-x="1355" 
d="M94 678v90l162 20v551l-162 13v82h582q260 0 418 -192q157 -191 157 -525q0 -335 -157 -526t-418 -191h-582v78l162 26v574h-162zM664 1325h-252v-537h315v-110h-315v-569h260q66 0 125 13q64 14 90 25l28 13q10 10 18 19t41 62q31 49 51 107q23 67 40 161q18 102 18 216
q0 295 -112 447q-112 153 -307 153z" />
    <glyph glyph-name="dcroat" unicode="&#x111;" horiz-adv-x="1179" 
d="M514 1202v86h303v137l-141 41v62l276 22l17 -18v-244h141v-86h-141v-1079l141 -41v-74l-270 -22l-19 18l10 115l-6 6q-123 -139 -311 -139q-180 0 -297 142t-117 388q0 258 129 408q128 149 353 149q130 0 235 -49v178h-303zM260 530q0 -214 82 -321q83 -109 225 -109
q154 0 250 123v682q-99 60 -237 60q-57 0 -112 -11q-56 -11 -75 -20l-22 -10q-14 -14 -31 -38q-20 -28 -49 -127q-31 -105 -31 -229z" />
    <glyph glyph-name="Emacron" unicode="&#x112;" horiz-adv-x="1228" 
d="M1100 0h-1012v78l162 26v1235l-162 13v82h989l23 -336h-101l-51 227h-542v-543h315l27 172h86v-454h-86l-27 172h-315v-563h567l49 231h102zM362 1602v102h531v-102h-531z" />
    <glyph glyph-name="emacron" unicode="&#x113;" horiz-adv-x="1077" 
d="M918 168l30 -84q-16 -10 -45 -27q-30 -17 -119 -44q-90 -27 -182 -27q-226 0 -363 143q-139 145 -139 395t133 399q133 150 345 150q197 0 305 -137q109 -138 94 -387l-49 -35h-668q0 -212 101 -314q102 -104 266 -104q70 0 142 18q74 19 112 36zM375 924
q-13 -13 -32 -38q-19 -26 -51 -111q-32 -87 -32 -179l580 20q1 167 -71 258q-73 91 -202 91q-45 0 -95 -11q-55 -12 -73 -20zM307 1300v103h531v-103h-531z" />
    <glyph glyph-name="Ebreve" unicode="&#x114;" horiz-adv-x="1228" 
d="M1100 0h-1012v78l162 26v1235l-162 13v82h989l23 -336h-101l-51 227h-542v-543h315l27 172h86v-454h-86l-27 172h-315v-563h567l49 231h102zM838 1769l53 -20q-2 -10 -6 -22q-4 -11 -23 -48q-17 -32 -44 -61q-26 -27 -75 -48q-52 -22 -108 -22q-95 0 -159 49
q-65 50 -83 99l-16 47l82 29q2 -7 5 -15q4 -11 18 -30q12 -17 35 -38q19 -17 55 -31q35 -13 79 -13q67 0 113 31t59 63z" />
    <glyph glyph-name="ebreve" unicode="&#x115;" horiz-adv-x="1077" 
d="M918 168l30 -84q-16 -10 -45 -27q-30 -17 -119 -44q-90 -27 -182 -27q-226 0 -363 143q-139 145 -139 395t133 399q133 150 345 150q197 0 305 -137q109 -138 94 -387l-49 -35h-668q0 -212 101 -314q102 -104 266 -104q70 0 142 18q74 19 112 36zM375 924
q-13 -13 -32 -38q-19 -26 -51 -111q-32 -87 -32 -179l580 20q1 167 -71 258q-73 91 -202 91q-45 0 -95 -11q-55 -12 -73 -20zM766 1464l53 -20q-2 -10 -6 -22q-4 -13 -22 -47q-14 -28 -45 -60q-26 -28 -74 -48q-52 -22 -109 -22q-59 0 -107 21q-49 21 -75 49q-26 27 -45 56
q-20 30 -25 48l-6 21l82 28q2 -7 6 -14q6 -10 20 -31q16 -23 34 -39q16 -13 56 -30q36 -15 77 -15q63 0 111 31q45 29 61 64z" />
    <glyph glyph-name="Edotaccent" unicode="&#x116;" horiz-adv-x="1228" 
d="M1100 0h-1012v78l162 26v1235l-162 13v82h989l23 -336h-101l-51 227h-542v-543h315l27 172h86v-454h-86l-27 172h-315v-563h567l49 231h102zM522 1690q0 49 31 80q30 30 82 30q48 0 81 -31q32 -30 32 -79q0 -52 -32 -82q-33 -31 -81 -31q-51 0 -82 31t-31 82z" />
    <glyph glyph-name="edotaccent" unicode="&#x117;" horiz-adv-x="1077" 
d="M918 168l30 -84q-16 -10 -45 -27q-30 -17 -119 -44q-90 -27 -182 -27q-226 0 -363 143q-139 145 -139 395t133 399q133 150 345 150q197 0 305 -137q109 -138 94 -387l-49 -35h-668q0 -212 101 -314q102 -104 266 -104q70 0 142 18q74 19 112 36zM375 924
q-13 -13 -32 -38q-19 -26 -51 -111q-32 -87 -32 -179l580 20q1 167 -71 258q-73 91 -202 91q-45 0 -95 -11q-55 -12 -73 -20zM444 1382q0 50 32 80q33 31 81 31q52 0 82 -30q31 -31 31 -81q0 -51 -31 -82q-30 -30 -82 -30q-49 0 -81 30t-32 82z" />
    <glyph glyph-name="Eogonek" unicode="&#x118;" horiz-adv-x="1228" 
d="M909 -225q0 -101 101 -101q24 0 52 5q18 3 40 12l12 6l12 -43q-51 -51 -153 -51q-83 0 -126 42q-44 42 -44 113q0 67 37 126q39 63 73 87l37 29h-862v78l162 26v1235l-162 13v82h989l23 -336h-101l-51 227h-542v-543h315l27 172h86v-454h-86l-27 172h-315v-563h567
l49 231h102l-24 -340h-74q-16 -14 -32 -30q-19 -19 -52 -79t-33 -116z" />
    <glyph glyph-name="eogonek" unicode="&#x119;" horiz-adv-x="1077" 
d="M731 -188q0 -101 100 -101q25 0 53 5q22 4 38 12l14 6l12 -43q-51 -51 -153 -51q-83 0 -126 42q-44 42 -44 115q0 109 96 201q-55 -12 -119 -12q-226 0 -363 143q-139 145 -139 395t133 399q133 150 345 150q197 0 305 -137q109 -138 94 -387l-49 -35h-668
q0 -212 101 -314q102 -104 266 -104q70 0 142 18q74 19 112 36l37 18l30 -84q-48 -33 -110 -55q-107 -107 -107 -217zM375 924q-13 -13 -32 -38q-19 -26 -51 -111q-32 -87 -32 -179l580 20q1 167 -71 258q-73 91 -202 91q-45 0 -95 -11q-55 -12 -73 -20z" />
    <glyph glyph-name="Ecaron" unicode="&#x11a;" horiz-adv-x="1228" 
d="M1100 0h-1012v78l162 26v1235l-162 13v82h989l23 -336h-101l-51 227h-542v-543h315l27 172h86v-454h-86l-27 172h-315v-563h567l49 231h102zM618 1524l-260 276l54 47l217 -182l215 182l53 -47l-260 -276h-19z" />
    <glyph glyph-name="ecaron" unicode="&#x11b;" horiz-adv-x="1077" 
d="M918 168l30 -84q-16 -10 -45 -27q-30 -17 -119 -44q-90 -27 -182 -27q-226 0 -363 143q-139 145 -139 395t133 399q133 150 345 150q197 0 305 -137q109 -138 94 -387l-49 -35h-668q0 -212 101 -314q102 -104 266 -104q70 0 142 18q74 19 112 36zM375 924
q-13 -13 -32 -38q-19 -26 -51 -111q-32 -87 -32 -179l580 20q1 167 -71 258q-73 91 -202 91q-45 0 -95 -11q-55 -12 -73 -20zM553 1212l-260 275l55 49l215 -182l215 182l53 -49l-258 -275h-20z" />
    <glyph glyph-name="Gcircumflex" unicode="&#x11c;" horiz-adv-x="1277" 
d="M1100 623v-547q-18 -12 -47 -26q-32 -16 -128 -41t-196 -25q-289 0 -457 196t-168 539q0 341 168 536t457 195q94 0 184 -23q88 -22 127 -45l41 -22l25 -326h-102l-54 248q-89 53 -245 53q-79 0 -144 -16q-68 -17 -98 -33l-31 -16q-1 -1 -6.5 -7.5t-10.5 -11.5
q-11 -11 -39 -59q-25 -44 -48 -105q-19 -53 -38 -155q-18 -99 -18 -211q0 -301 117 -463t322 -162q138 0 250 56v481l-187 12v82h475v-78zM424 1561l270 282h19l270 -282l-68 -37l-213 178l-210 -178z" />
    <glyph glyph-name="gcircumflex" unicode="&#x11d;" horiz-adv-x="1116" 
d="M1061 1133l-17 -123q-21 10 -75 10q-88 0 -162 -41q113 -96 113 -266q0 -167 -109 -264t-289 -97q-75 0 -145 19q-84 -45 -84 -133q0 -121 153 -121h271q325 0 325 -252q0 -161 -137 -256q-136 -94 -416 -94q-423 0 -423 239q0 101 58 169q58 69 130 106q-92 50 -92 164
q0 140 133 213q-170 95 -170 309q0 166 108 262t289 96q125 0 221 -51q102 119 248 119zM434 -10q-49 0 -98 10q-123 -86 -123 -211q0 -85 70 -126q68 -40 225 -40q94 0 170 11q85 12 121 22l39 12q61 62 61 168q0 154 -203 154h-262zM264 725q0 -127 73 -195
q71 -67 195 -67q39 0 81 6q43 6 65 12l22 6q4 4 22 24q13 14 36 70q22 53 22 117q0 127 -72 196t-196 69q-32 0 -81 -7q-41 -6 -64 -12l-23 -6q-3 -3 -10 -11.5t-11 -12.5q-14 -15 -36 -70q-23 -57 -23 -119zM240 1241l268 283h20l269 -283l-68 -37l-211 178l-211 -178z" />
    <glyph glyph-name="Gbreve" unicode="&#x11e;" horiz-adv-x="1277" 
d="M1100 623v-547q-18 -12 -47 -26q-32 -16 -128 -41t-196 -25q-289 0 -457 196t-168 539q0 341 168 536t457 195q94 0 184 -23q88 -22 127 -45l41 -22l25 -326h-102l-54 248q-89 53 -245 53q-79 0 -144 -16q-68 -17 -98 -33l-31 -16q-1 -1 -6.5 -7.5t-10.5 -11.5
q-11 -11 -39 -59q-25 -44 -48 -105q-19 -53 -38 -155q-18 -99 -18 -211q0 -301 117 -463t322 -162q138 0 250 56v481l-187 12v82h475v-78zM889 1769l51 -20q-2 -10 -6 -22q-5 -16 -22 -48q-18 -35 -43 -61q-26 -28 -74 -48q-52 -22 -109 -22q-95 0 -159 49q-65 49 -81 99
l-18 47l82 29q2 -7 5 -15t19 -30q14 -19 34 -38q18 -17 56 -31q35 -13 78 -13q66 0 112 31q43 29 60 63z" />
    <glyph glyph-name="gbreve" unicode="&#x11f;" horiz-adv-x="1116" 
d="M1061 1133l-17 -123q-21 10 -75 10q-88 0 -162 -41q113 -96 113 -266q0 -167 -109 -264t-289 -97q-75 0 -145 19q-84 -45 -84 -133q0 -121 153 -121h271q325 0 325 -252q0 -161 -137 -256q-136 -94 -416 -94q-423 0 -423 239q0 101 58 169q58 69 130 106q-92 50 -92 164
q0 140 133 213q-170 95 -170 309q0 166 108 262t289 96q125 0 221 -51q102 119 248 119zM434 -10q-49 0 -98 10q-123 -86 -123 -211q0 -85 70 -126q68 -40 225 -40q94 0 170 11q85 12 121 22l39 12q61 62 61 168q0 154 -203 154h-262zM264 725q0 -127 73 -195
q71 -67 195 -67q39 0 81 6q43 6 65 12l22 6q4 4 22 24q13 14 36 70q22 53 22 117q0 127 -72 196t-196 69q-32 0 -81 -7q-41 -6 -64 -12l-23 -6q-3 -3 -10 -11.5t-11 -12.5q-14 -15 -36 -70q-23 -57 -23 -119zM725 1464l53 -20q-2 -10 -6 -22q-4 -13 -22 -47q-16 -30 -44 -60
q-26 -27 -75 -48q-52 -22 -109 -22q-94 0 -158 49q-64 50 -81 99l-19 47l82 28q1 -4 5 -14q3 -6 19 -31q16 -23 34 -39q16 -13 56 -30q36 -15 79 -15q63 0 111 31q45 29 61 64z" />
    <glyph glyph-name="Gdotaccent" unicode="&#x120;" horiz-adv-x="1277" 
d="M1100 623v-547q-18 -12 -47 -26q-32 -16 -128 -41t-196 -25q-289 0 -457 196t-168 539q0 341 168 536t457 195q94 0 184 -23q88 -22 127 -45l41 -22l25 -326h-102l-54 248q-89 53 -245 53q-79 0 -144 -16q-68 -17 -98 -33l-31 -16q-1 -1 -6.5 -7.5t-10.5 -11.5
q-11 -11 -39 -59q-25 -44 -48 -105q-19 -53 -38 -155q-18 -99 -18 -211q0 -301 117 -463t322 -162q138 0 250 56v481l-187 12v82h475v-78zM584 1690q0 49 31 79q33 31 81 31q52 0 82 -30q31 -31 31 -80q0 -51 -31 -82t-82 -31q-48 0 -81 31q-31 30 -31 82z" />
    <glyph glyph-name="gdotaccent" unicode="&#x121;" horiz-adv-x="1116" 
d="M1061 1133l-17 -123q-21 10 -75 10q-88 0 -162 -41q113 -96 113 -266q0 -167 -109 -264t-289 -97q-75 0 -145 19q-84 -45 -84 -133q0 -121 153 -121h271q325 0 325 -252q0 -161 -137 -256q-136 -94 -416 -94q-423 0 -423 239q0 101 58 169q58 69 130 106q-92 50 -92 164
q0 140 133 213q-170 95 -170 309q0 166 108 262t289 96q125 0 221 -51q102 119 248 119zM434 -10q-49 0 -98 10q-123 -86 -123 -211q0 -85 70 -126q68 -40 225 -40q94 0 170 11q85 12 121 22l39 12q61 62 61 168q0 154 -203 154h-262zM264 725q0 -127 73 -195
q71 -67 195 -67q39 0 81 6q43 6 65 12l22 6q4 4 22 24q13 14 36 70q22 53 22 117q0 127 -72 196t-196 69q-32 0 -81 -7q-41 -6 -64 -12l-23 -6q-3 -3 -10 -11.5t-11 -12.5q-14 -15 -36 -70q-23 -57 -23 -119zM408 1382q0 51 30 81t82 30t82 -30q31 -31 31 -81q0 -51 -31 -82
q-30 -30 -82 -30t-82 30t-30 82z" />
    <glyph glyph-name="Gcommaaccent" unicode="&#x122;" horiz-adv-x="1277" 
d="M1100 623v-547q-18 -12 -47 -26q-32 -16 -128 -41t-196 -25q-289 0 -457 196t-168 539q0 341 168 536t457 195q94 0 184 -23q88 -22 127 -45l41 -22l25 -326h-102l-54 248q-89 53 -245 53q-79 0 -144 -16q-68 -17 -98 -33l-31 -16q-1 -1 -6.5 -7.5t-10.5 -11.5
q-11 -11 -39 -59q-25 -44 -48 -105q-19 -53 -38 -155q-18 -99 -18 -211q0 -301 117 -463t322 -162q138 0 250 56v481l-187 12v82h475v-78zM618 -526l-22 37q19 13 35 27q19 16 53 69q33 50 31 100q-37 1 -58 26q-20 23 -20 60q0 39 23 62q24 24 63 24q88 0 88 -115
q0 -56 -19 -104q-18 -46 -49 -82q-29 -33 -57 -57q-32 -27 -47 -37z" />
    <glyph glyph-name="gcommaaccent" unicode="&#x123;" horiz-adv-x="1116" 
d="M1061 1133l-17 -123q-21 10 -75 10q-88 0 -162 -41q113 -96 113 -266q0 -167 -109 -264t-289 -97q-75 0 -145 19q-84 -45 -84 -133q0 -121 153 -121h271q325 0 325 -252q0 -161 -137 -256q-136 -94 -416 -94q-423 0 -423 239q0 101 58 169q58 69 130 106q-92 50 -92 164
q0 140 133 213q-170 95 -170 309q0 166 108 262t289 96q125 0 221 -51q102 119 248 119zM434 -10q-49 0 -98 10q-123 -86 -123 -211q0 -85 70 -126q68 -40 225 -40q94 0 170 11q85 12 121 22l39 12q61 62 61 168q0 154 -203 154h-262zM264 725q0 -127 73 -195
q71 -67 195 -67q39 0 81 6q43 6 65 12l22 6q4 4 22 24q13 14 36 70q22 53 22 117q0 127 -72 196t-196 69q-32 0 -81 -7q-41 -6 -64 -12l-23 -6q-3 -3 -10 -11.5t-11 -12.5q-14 -15 -36 -70q-23 -57 -23 -119zM631 1616l24 -37q-7 -5 -34 -28q-22 -19 -55 -69t-31 -102
q77 -4 77 -86q0 -38 -23 -61q-25 -25 -63 -25q-88 0 -88 117q0 52 20 103q20 50 48 83q32 37 57 58q32 27 47 37z" />
    <glyph glyph-name="Hcircumflex" unicode="&#x124;" horiz-adv-x="1503" 
d="M406 94l161 -12v-82h-479v78l162 26v1235l-162 13v82h479v-78l-161 -27v-547h692v557l-162 13v82h479v-78l-162 -27v-1235l162 -12v-82h-479v78l162 26v568h-692v-578zM473 1561l268 282h21l268 -282l-67 -37l-211 178l-211 -178z" />
    <glyph glyph-name="hcircumflex" unicode="&#x125;" horiz-adv-x="1253" 
d="M84 1454v74l276 22l17 -18v-473l-8 -109l6 -4q167 127 379 127q159 0 228 -81t69 -247v-655l141 -12v-78h-434v76l141 26v633q0 119 -45 173q-46 55 -160 55q-178 0 -317 -111v-762l143 -12v-78h-436v76l143 26v1311zM0 1630l270 283h19l270 -283l-67 -37l-213 179
l-211 -179z" />
    <glyph glyph-name="Hbar" unicode="&#x126;" horiz-adv-x="1503" 
d="M88 1014v102h162v223l-162 13v82h479v-78l-161 -27v-213h692v223l-162 13v82h479v-78l-162 -27v-213h162v-102h-162v-920l162 -12v-82h-479v78l162 26v568h-692v-578l161 -12v-82h-479v78l162 26v910h-162zM406 782h692v232h-692v-232z" />
    <glyph glyph-name="hbar" unicode="&#x127;" horiz-adv-x="1253" 
d="M84 1245v82l149 19l23 190h121v-190h334v-101h-334v-186l-8 -109l6 -4q167 127 379 127q159 0 228 -81t69 -247v-655l141 -12v-78h-434v76l141 26v633q0 119 -45 173q-46 55 -160 55q-178 0 -317 -111v-762l143 -12v-78h-436v76l143 26v1143h-143z" />
    <glyph glyph-name="Itilde" unicode="&#x128;" horiz-adv-x="655" 
d="M406 94l161 -12v-82h-479v78l162 26v1235l-162 13v82h479v-78l-161 -27v-1235zM55 1599l-39 46q8 13 30 38q20 23 77 62t113 39q45 0 121 -40t130 -40l117 82l37 -43q-11 -17 -30 -39q-21 -25 -75 -60q-58 -38 -112 -38q-44 0 -121 40t-131 40z" />
    <glyph glyph-name="itilde" unicode="&#x129;" horiz-adv-x="598" 
d="M18 1280l-38 45q13 21 29 39q18 20 77 61q57 39 113 39q46 0 123 -40t131 -40l116 82l37 -43l-4 -5q-4 -6 -7 -10q-10 -12 -31 -33q-27 -27 -47 -42q-25 -19 -58 -33q-32 -14 -70 -14q-45 0 -122 39t-130 39zM88 979v72l277 22l16 -16v-967l143 -12v-78h-436v76l141 26
v834z" />
    <glyph glyph-name="Imacron" unicode="&#x12a;" horiz-adv-x="655" 
d="M406 94l161 -12v-82h-479v78l162 26v1235l-162 13v82h479v-78l-161 -27v-1235zM63 1602v102h531v-102h-531z" />
    <glyph glyph-name="imacron" unicode="&#x12b;" horiz-adv-x="598" 
d="M20 1300v103h531v-103h-531zM88 979v72l277 22l16 -16v-967l143 -12v-78h-436v76l141 26v834z" />
    <glyph glyph-name="Ibreve" unicode="&#x12c;" horiz-adv-x="655" 
d="M406 94l161 -12v-82h-479v78l162 26v1235l-162 13v82h479v-78l-161 -27v-1235zM532 1769l54 -20q-2 -10 -6 -22q-4 -11 -23 -48q-17 -32 -44 -61q-25 -27 -75 -48q-52 -22 -108 -22q-95 0 -159 49q-65 49 -81 99l-18 47l82 29q2 -7 5 -15q4 -11 18 -30q12 -17 35 -38
q19 -17 55 -31q35 -13 79 -13q66 0 112 31q43 29 60 63z" />
    <glyph glyph-name="ibreve" unicode="&#x12d;" horiz-adv-x="598" 
d="M483 1464l54 -20q-1 -2 -7 -22q-4 -13 -22 -47q-16 -30 -44 -60q-26 -27 -75 -48q-52 -22 -108 -22q-95 0 -159 49q-64 50 -81 99l-18 47l81 28q1 -2 3 -7t3 -7q4 -10 18 -31q14 -22 35 -39q16 -14 55 -30q36 -15 79 -15q64 0 112 31q44 28 60 64zM88 979v72l277 22
l16 -16v-967l143 -12v-78h-436v76l141 26v834z" />
    <glyph glyph-name="Iogonek" unicode="&#x12e;" horiz-adv-x="655" 
d="M354 -225q0 -101 101 -101q23 0 53 5q19 3 41 12l12 6l10 -43q-51 -51 -153 -51q-82 0 -126 42t-44 113q0 65 38 126t74 87l37 29h-309v78l162 26v1235l-162 13v82h479v-78l-161 -27v-1235l161 -12v-82h-94q-12 -10 -33 -30q-20 -18 -53 -79q-33 -60 -33 -116z" />
    <glyph glyph-name="iogonek" unicode="&#x12f;" horiz-adv-x="598" 
d="M266 -225q0 -101 103 -101q24 0 52 5q22 4 38 12l14 6l10 -43q-49 -51 -153 -51q-80 0 -125 42t-45 113q0 40 15 81q14 39 37 68q21 27 44 50q22 23 39 33l14 10h-221v76l141 26v834l-141 43v72l277 22l16 -16v-967l143 -12v-78h-139q-12 -10 -33 -30q-20 -18 -53 -79
q-33 -60 -33 -116zM176 1413q0 52 32 82q33 31 81 31q51 0 82 -31q30 -30 30 -82q0 -50 -30 -80t-82 -30q-49 0 -81 30t-32 80z" />
    <glyph glyph-name="Idotaccent" unicode="&#x130;" horiz-adv-x="655" 
d="M406 94l161 -12v-82h-479v78l162 26v1235l-162 13v82h479v-78l-161 -27v-1235zM215 1690q0 49 31 80q30 30 82 30t82 -30t30 -80q0 -52 -30 -82q-31 -31 -82 -31t-82 31t-31 82z" />
    <glyph glyph-name="dotlessi" unicode="&#x131;" horiz-adv-x="598" 
d="M88 979v72l277 22l16 -16v-967l143 -12v-78h-436v76l141 26v834z" />
    <glyph glyph-name="IJ" unicode="&#x132;" horiz-adv-x="1310" 
d="M1061 1329v-1497q0 -165 -95 -263q-94 -97 -266 -97q-60 0 -112 12q-54 12 -76 24l-25 13l19 102q68 -39 180 -39q38 0 79 6q30 4 60 13l21 6q59 78 59 244v1486l-162 13v82h480v-78zM406 94l161 -12v-82h-479v78l162 26v1235l-162 13v82h479v-78l-161 -27v-1235z" />
    <glyph glyph-name="ij" unicode="&#x133;" horiz-adv-x="1161" 
d="M88 979v72l277 22l16 -16v-967l143 -12v-78h-436v76l141 26v834zM176 1413q0 52 32 82q33 31 81 31q51 0 82 -31q30 -30 30 -82q0 -50 -30 -80t-82 -30q-49 0 -81 30t-32 80zM770 1413q0 52 32 82q33 31 81 31q51 0 82 -31q30 -30 30 -82q0 -50 -30 -80t-82 -30
q-49 0 -81 30t-32 80zM682 979v72l276 22l17 -16v-1055q0 -268 -84 -378q-84 -109 -256 -109q-36 0 -83 5q-43 5 -65 9l-22 6l22 131q74 -41 166 -41q26 0 58 5q20 3 43 10l14 4q57 92 57 358v934z" />
    <glyph glyph-name="Jcircumflex" unicode="&#x134;" horiz-adv-x="917" 
d="M676 1329v-985q0 -166 -94 -263t-267 -97q-59 0 -112 12q-54 12 -76 24l-25 13l19 102q67 -39 180 -39q39 0 79 6q30 4 60 13l21 6q61 79 61 244v970l-186 8v91h502v-78zM309 1561l269 282h20l268 -282l-67 -37l-211 178l-211 -178z" />
    <glyph glyph-name="jcircumflex" unicode="&#x135;" horiz-adv-x="563" 
d="M84 979v72l276 22l17 -16v-1055q0 -268 -84 -378q-84 -109 -256 -109q-36 0 -83 5q-43 5 -65 9l-22 6l22 131q74 -41 166 -41q27 0 57 5q19 3 42 10l14 4q59 90 59 358v934zM10 1241l269 283h20l268 -283l-67 -37l-211 178l-211 -178z" />
    <glyph glyph-name="Kcommaaccent" unicode="&#x136;" horiz-adv-x="1335" 
d="M406 94l161 -12v-82h-479v78l162 26v1235l-162 13v82h479v-78l-161 -27v-555l184 21l391 544l-156 13v82h445v-78l-156 -27l-414 -571l449 -664l156 -12v-82h-281l-455 686h-163v-592zM612 -526l-24 37q19 13 35 27q19 16 53 69q33 50 31 100q-35 2 -57 27q-21 24 -21 59
q0 38 24 62t64 24q88 0 88 -115q0 -53 -20 -104q-19 -49 -48 -82t-57 -57q-33 -28 -49 -37z" />
    <glyph glyph-name="kcommaaccent" unicode="&#x137;" horiz-adv-x="1130" 
d="M920 958l-289 -380l334 -488l133 -12v-78h-246l-348 514h-127v-424l143 -12v-78h-436v76l143 26v1311l-143 41v74l276 22l17 -18v-930l147 21l264 346l-139 12v78h404v-74zM530 -526l-24 37q1 1 6 4.5t8 5.5q20 16 30 26q24 24 38 43q15 20 28 55q12 33 11 62
q-37 1 -58 26q-20 23 -20 60q0 39 23 62q24 24 63 24q88 0 88 -115q0 -53 -20 -104q-19 -49 -48 -82t-57 -57q-33 -28 -49 -37z" />
    <glyph glyph-name="Lacute" unicode="&#x139;" horiz-adv-x="1179" 
d="M1079 0h-991v78l162 26v1235l-162 13v82h479v-78l-161 -27v-1220h546l49 235h103zM209 1561l264 294l100 -100l-297 -231z" />
    <glyph glyph-name="lacute" unicode="&#x13a;" horiz-adv-x="587" 
d="M84 1454v74l276 22l17 -18v-1442l143 -12v-78h-436v82l143 27v1304zM160 1630l264 295l100 -100l-299 -232z" />
    <glyph glyph-name="Lcommaaccent" unicode="&#x13b;" horiz-adv-x="1179" 
d="M1079 0h-991v78l162 26v1235l-162 13v82h479v-78l-161 -27v-1220h546l49 235h103zM553 -526l-25 37q2 1 7 4.5t8 5.5q15 12 29 26q24 24 38 43q17 23 29 55q12 30 10 62q-35 1 -57 26q-21 24 -21 60q0 38 24 62t62 24q88 0 88 -115q0 -56 -19 -104q-19 -49 -48 -82
q-28 -33 -57 -57t-48 -37z" />
    <glyph glyph-name="lcommaaccent" unicode="&#x13c;" horiz-adv-x="587" 
d="M84 1454v74l276 22l17 -18v-1442l143 -12v-78h-436v82l143 27v1304zM199 -526l-23 37q19 13 35 27q19 16 53 69q33 50 31 100q-34 1 -56 27q-22 25 -22 59q0 37 25 62q24 24 63 24q88 0 88 -115q0 -87 -49 -158q-52 -75 -98 -102z" />
    <glyph glyph-name="Lcaron" unicode="&#x13d;" horiz-adv-x="1179" 
d="M1079 0h-991v78l162 26v1235l-162 13v82h479v-78l-161 -27v-1220h546l49 235h103zM811 987l-29 43q16 10 39 30q22 19 60 77q36 54 34 110q-39 1 -64 30q-24 27 -24 69q0 44 28 72t73 28q102 0 102 -133q0 -63 -22 -117q-21 -51 -55 -92q-34 -40 -64 -65q-37 -31 -55 -40
z" />
    <glyph glyph-name="lcaron" unicode="&#x13e;" horiz-adv-x="808" 
d="M84 1454v74l276 22l17 -18v-1442l143 -12v-78h-436v82l143 27v1304zM541 1096l-29 43q21 13 39 29q19 17 59 77q37 56 35 111q-40 1 -64 29q-24 27 -24 69q0 45 28 73q27 27 72 27q103 0 103 -133q0 -59 -23 -116q-23 -55 -54 -93q-29 -35 -65 -64q-37 -31 -55 -40z" />
    <glyph glyph-name="Ldot" unicode="&#x13f;" horiz-adv-x="1179" 
d="M1079 0h-991v78l162 26v1235l-162 13v82h479v-78l-161 -27v-1220h546l49 235h103zM836 737q0 50 30 80q31 31 78 31t78 -31t31 -80t-31 -80q-30 -30 -78 -30t-78 30t-30 80z" />
    <glyph glyph-name="Lslash" unicode="&#x141;" horiz-adv-x="1183" 
d="M696 819l-286 -141v-569h546l50 235h102l-25 -344h-991v78l162 26v496l-148 -72l-43 93l191 94v624l-162 13v82h477v-78l-159 -27v-536l243 120z" />
    <glyph glyph-name="lslash" unicode="&#x142;" horiz-adv-x="606" 
d="M555 786l-170 -86v-610l143 -12v-78h-436v82l141 27v516l-129 -66l-38 92l167 84v678l-141 41v74l277 22l16 -18v-721l133 68z" />
    <glyph glyph-name="Nacute" unicode="&#x143;" horiz-adv-x="1509" 
d="M371 94l166 -12v-82h-453v78l166 26v1235l-166 13v82h315l693 -1076q29 -41 47 -86l6 2q-6 44 -6 84v981l-166 13v82h452v-78l-165 -27v-1329h-115l-729 1128q-26 43 -45 89l-6 -3q6 -46 6 -86v-1034zM629 1561l264 294l100 -100l-299 -231z" />
    <glyph glyph-name="nacute" unicode="&#x144;" horiz-adv-x="1261" 
d="M92 979v72l273 22l16 -16l-8 -117l4 -6q161 139 387 139q157 0 226 -81t69 -247v-655l141 -12v-78h-436v76l143 26v633q0 119 -45 173q-46 55 -160 55q-182 0 -317 -129v-744l143 -12v-78h-436v76l141 26v834zM524 1241l264 295l101 -100l-297 -232z" />
    <glyph glyph-name="Ncommaaccent" unicode="&#x145;" horiz-adv-x="1509" 
d="M371 94l166 -12v-82h-453v78l166 26v1235l-166 13v82h315l693 -1076q29 -41 47 -86l6 2q-6 44 -6 84v981l-166 13v82h452v-78l-165 -27v-1329h-115l-729 1128q-26 43 -45 89l-6 -3q6 -46 6 -86v-1034zM688 -526l-24 37q14 10 34 27q21 18 54 69q32 49 30 100
q-34 1 -56 27q-21 24 -21 59q0 38 24 62t64 24q88 0 88 -115q0 -53 -20 -104q-19 -49 -48 -82t-57 -57q-32 -27 -47 -37z" />
    <glyph glyph-name="ncommaaccent" unicode="&#x146;" horiz-adv-x="1261" 
d="M92 979v72l273 22l16 -16l-8 -117l4 -6q161 139 387 139q157 0 226 -81t69 -247v-655l141 -12v-78h-436v76l143 26v633q0 119 -45 173q-46 55 -160 55q-182 0 -317 -129v-744l143 -12v-78h-436v76l141 26v834zM545 -526l-23 37q19 13 35 27q19 16 53 69q33 50 31 100
q-35 1 -57 26q-21 24 -21 60q0 38 24 62t62 24q90 0 90 -115q0 -57 -20 -104q-21 -48 -48 -82q-24 -29 -57 -57t-49 -37z" />
    <glyph glyph-name="Ncaron" unicode="&#x147;" horiz-adv-x="1509" 
d="M371 94l166 -12v-82h-453v78l166 26v1235l-166 13v82h315l693 -1076q29 -41 47 -86l6 2q-6 44 -6 84v981l-166 13v82h452v-78l-165 -27v-1329h-115l-729 1128q-26 43 -45 89l-6 -3q6 -46 6 -86v-1034zM743 1524l-258 276l54 47l215 -182l215 182l55 -47l-260 -276h-21z
" />
    <glyph glyph-name="ncaron" unicode="&#x148;" horiz-adv-x="1261" 
d="M92 979v72l273 22l16 -16l-8 -117l4 -6q161 139 387 139q157 0 226 -81t69 -247v-655l141 -12v-78h-436v76l143 26v633q0 119 -45 173q-46 55 -160 55q-182 0 -317 -129v-744l143 -12v-78h-436v76l141 26v834zM625 1212l-260 275l55 49l215 -182l215 182l53 -49
l-258 -275h-20z" />
    <glyph glyph-name="Eng" unicode="&#x14a;" horiz-adv-x="1509" 
d="M371 94l166 -12v-82h-453v78l166 26v1235l-166 13v82h315l693 -1076q29 -41 47 -86l6 2q-6 44 -6 84v981l-166 13v82h452v-78l-165 -27v-1497q0 -164 -91 -263q-90 -97 -256 -97q-57 0 -110 12q-55 13 -78 24l-25 13l21 102q66 -39 178 -39q39 0 79 6q30 4 60 13l21 6
q61 79 61 244v184l-704 1091q-26 43 -45 89l-6 -3q6 -46 6 -86v-1034z" />
    <glyph glyph-name="eng" unicode="&#x14b;" horiz-adv-x="1245" 
d="M92 979v72l273 22l16 -16l-8 -117l4 -6q161 139 387 139q157 0 226 -81t69 -247v-743q0 -269 -85 -378t-255 -109q-36 0 -84 5q-43 4 -66 9l-22 6l22 131q74 -41 168 -41q24 0 56 5q20 3 43 10l14 4q57 92 57 358v733q0 119 -45 173q-46 55 -160 55q-182 0 -317 -129
v-744l143 -12v-78h-436v76l141 26v834z" />
    <glyph glyph-name="Omacron" unicode="&#x14c;" horiz-adv-x="1357" 
d="M104 717q0 336 158 535q158 198 418 198q258 0 417 -198q158 -197 158 -535q0 -339 -158 -536t-417 -197q-261 0 -418 197q-158 199 -158 536zM272 719q0 -302 110 -462q110 -159 306 -159q60 0 120 15q68 17 89 28l31 15q1 1 17 19q12 13 39 63q28 51 48 107
q19 52 38 158q17 94 17 212q0 304 -110 462t-305 158q-64 0 -125 -15q-62 -15 -92 -30l-29 -16q-2 -2 -7.5 -8.5t-8.5 -10.5q-9 -10 -37 -60q-25 -44 -47 -106q-20 -55 -37 -158q-17 -102 -17 -212zM414 1602v102h530v-102h-530z" />
    <glyph glyph-name="omacron" unicode="&#x14d;" horiz-adv-x="1142" 
d="M100 530q0 256 130 399q130 144 343 144t342 -145t129 -398q0 -254 -129 -399t-342 -145t-343 145t-130 399zM262 535q0 -213 84 -326t236 -113q44 0 90 9q35 7 71 18l25 8q11 11 32 40q19 26 51 130t32 225q0 216 -84 327q-85 112 -236 112q-40 0 -92 -10
q-46 -9 -72 -17l-24 -10q-15 -15 -31 -39q-19 -28 -50 -129q-32 -104 -32 -225zM305 1300v103h531v-103h-531z" />
    <glyph glyph-name="Obreve" unicode="&#x14e;" horiz-adv-x="1357" 
d="M104 717q0 336 158 535q158 198 418 198q258 0 417 -198q158 -197 158 -535q0 -339 -158 -536t-417 -197q-261 0 -418 197q-158 199 -158 536zM272 719q0 -302 110 -462q110 -159 306 -159q60 0 120 15q68 17 89 28l31 15q1 1 17 19q12 13 39 63q28 51 48 107
q19 52 38 158q17 94 17 212q0 304 -110 462t-305 158q-64 0 -125 -15q-62 -15 -92 -30l-29 -16q-2 -2 -7.5 -8.5t-8.5 -10.5q-9 -10 -37 -60q-25 -44 -47 -106q-20 -55 -37 -158q-17 -102 -17 -212zM883 1769l53 -20q-2 -10 -6 -22q-4 -11 -23 -48q-17 -32 -44 -61
q-25 -27 -75 -48q-52 -22 -108 -22q-95 0 -159 49q-65 50 -83 99l-16 47l82 29q2 -7 5 -15q4 -11 18 -30q12 -17 35 -38q19 -17 55 -31q35 -13 79 -13q67 0 113 31t59 63z" />
    <glyph glyph-name="obreve" unicode="&#x14f;" horiz-adv-x="1142" 
d="M100 530q0 256 130 399q130 144 343 144t342 -145t129 -398q0 -254 -129 -399t-342 -145t-343 145t-130 399zM262 535q0 -213 84 -326t236 -113q44 0 90 9q35 7 71 18l25 8q11 11 32 40q19 26 51 130t32 225q0 216 -84 327q-85 112 -236 112q-40 0 -92 -10
q-46 -9 -72 -17l-24 -10q-15 -15 -31 -39q-19 -28 -50 -129q-32 -104 -32 -225zM774 1464l53 -20q-2 -10 -6 -22q-6 -19 -21 -47q-17 -32 -43 -60q-25 -27 -75 -48q-52 -22 -109 -22q-94 0 -158 49q-65 50 -83 99l-17 47l82 28q1 -4 5 -14q2 -6 19 -31q14 -22 35 -39
q16 -14 55 -30q36 -15 79 -15q63 0 111 31q45 29 61 64z" />
    <glyph glyph-name="Ohungarumlaut" unicode="&#x150;" horiz-adv-x="1357" 
d="M104 717q0 336 158 535q158 198 418 198q258 0 417 -198q158 -197 158 -535q0 -339 -158 -536t-417 -197q-261 0 -418 197q-158 199 -158 536zM272 719q0 -302 110 -462q110 -159 306 -159q60 0 120 15q68 17 89 28l31 15q1 1 17 19q12 13 39 63q28 51 48 107
q19 52 38 158q17 94 17 212q0 304 -110 462t-305 158q-64 0 -125 -15q-62 -15 -92 -30l-29 -16q-2 -2 -7.5 -8.5t-8.5 -10.5q-9 -10 -37 -60q-25 -44 -47 -106q-20 -55 -37 -158q-17 -102 -17 -212zM393 1561l230 294l100 -86l-262 -245zM719 1561l229 294l101 -86
l-263 -245z" />
    <glyph glyph-name="ohungarumlaut" unicode="&#x151;" horiz-adv-x="1142" 
d="M100 530q0 256 130 399q130 144 343 144t342 -145t129 -398q0 -254 -129 -399t-342 -145t-343 145t-130 399zM262 535q0 -213 84 -326t236 -113q44 0 90 9q35 7 71 18l25 8q11 11 32 40q19 26 51 130t32 225q0 216 -84 327q-85 112 -236 112q-40 0 -92 -10
q-46 -9 -72 -17l-24 -10q-15 -15 -31 -39q-19 -28 -50 -129q-32 -104 -32 -225zM301 1241l229 295l101 -86l-262 -246zM629 1241l227 295l100 -86l-262 -246z" />
    <glyph glyph-name="OE" unicode="&#x152;" horiz-adv-x="1755" 
d="M1628 0h-774q-70 -16 -141 -16q-276 0 -442 196q-167 197 -167 537q0 339 167 536t442 197q71 0 141 -16h750l24 -336h-102l-49 227h-469v-543h256l24 172h86v-454h-86l-24 172h-256v-563h493l49 231h103zM721 98q39 0 86 11q43 10 47 10v1173q-65 43 -149 43
q-67 0 -133 -15q-67 -15 -101 -30l-33 -16q-2 -2 -7.5 -8.5t-9.5 -10.5q-11 -11 -40 -60q-30 -51 -50 -106q-23 -64 -40 -159q-19 -106 -19 -213q0 -300 119 -460q119 -159 330 -159z" />
    <glyph glyph-name="oe" unicode="&#x153;" horiz-adv-x="1849" 
d="M1688 168l32 -84q-16 -10 -45 -27q-30 -17 -119 -44q-90 -27 -182 -27q-145 0 -253 66q-106 65 -158 200h-9q-46 -129 -147 -198q-99 -68 -234 -68q-213 0 -343 145t-130 399q0 256 130 399q130 144 343 144q136 0 236 -66t147 -196h7q52 131 152 196q102 66 235 66
q195 0 303 -137q108 -136 96 -387l-49 -35h-670q1 -210 104 -314q102 -104 265 -104q70 0 142 18q73 18 110 36zM262 537q0 -215 84 -328t236 -113q44 0 91 9q44 8 70 20l25 10q14 14 32 39q20 27 51 127q32 102 32 223q0 216 -84 328q-84 113 -234 113q-45 0 -94 -11
q-54 -12 -72 -20l-24 -10q-15 -15 -31 -39q-19 -28 -50 -126q-32 -101 -32 -222zM1147 924q-13 -13 -32 -38q-19 -26 -51 -111q-32 -87 -32 -179l578 20q2 169 -70 258q-73 91 -203 91q-43 0 -92 -11q-54 -12 -74 -20z" />
    <glyph glyph-name="Racute" unicode="&#x154;" horiz-adv-x="1300" 
d="M406 94l161 -12v-82h-479v78l162 26v1235l-162 13v82h557q213 0 343 -108t130 -296q0 -155 -90 -257t-246 -132l330 -547l156 -12v-82h-283l-354 629h-225v-535zM612 1325h-206v-588h215q49 0 102 6q44 5 82 15l29 6q2 2 12 10q6 5 28 30q21 24 36 51q16 29 28 75t12 98
q0 144 -89 221q-88 76 -249 76zM498 1561l266 294l100 -100l-299 -231z" />
    <glyph glyph-name="racute" unicode="&#x155;" horiz-adv-x="829" 
d="M795 1069l-15 -156q-49 19 -116 19q-174 0 -279 -139v-701l205 -6v-86h-498v76l141 26v834l-141 43v72l273 22l16 -16l-10 -170l4 -6q127 194 327 194zM360 1241l265 295l100 -100l-297 -232z" />
    <glyph glyph-name="Rcommaaccent" unicode="&#x156;" horiz-adv-x="1300" 
d="M406 94l161 -12v-82h-479v78l162 26v1235l-162 13v82h557q213 0 343 -108t130 -296q0 -155 -90 -257t-246 -132l330 -547l156 -12v-82h-283l-354 629h-225v-535zM612 1325h-206v-588h215q49 0 102 6q44 5 82 15l29 6q2 2 12 10q6 5 28 30q21 24 36 51q16 29 28 75t12 98
q0 144 -89 221q-88 76 -249 76zM602 -526l-22 37q14 10 34 27q21 18 54 69q32 49 30 100q-35 1 -57 26q-20 23 -20 60q0 39 23 62q24 24 63 24q90 0 90 -115q0 -54 -21 -104q-21 -48 -48 -82q-26 -32 -56 -57q-33 -28 -49 -37z" />
    <glyph glyph-name="rcommaaccent" unicode="&#x157;" horiz-adv-x="829" 
d="M795 1069l-15 -156q-49 19 -116 19q-174 0 -279 -139v-701l205 -6v-86h-498v76l141 26v834l-141 43v72l273 22l16 -16l-10 -170l4 -6q127 194 327 194zM229 -526l-24 37q1 1 6 4.5t8 5.5q20 16 30 26q24 24 38 43q15 20 28 55q12 33 11 62q-37 1 -58 26q-20 23 -20 60
q0 39 23 62q24 24 63 24q88 0 88 -115q0 -53 -20 -104q-19 -49 -48 -82q-28 -33 -57 -57q-32 -27 -47 -37z" />
    <glyph glyph-name="Rcaron" unicode="&#x158;" horiz-adv-x="1300" 
d="M406 94l161 -12v-82h-479v78l162 26v1235l-162 13v82h557q213 0 343 -108t130 -296q0 -155 -90 -257t-246 -132l330 -547l156 -12v-82h-283l-354 629h-225v-535zM612 1325h-206v-588h215q49 0 102 6q44 5 82 15l29 6q2 2 12 10q6 5 28 30q21 24 36 51q16 29 28 75t12 98
q0 144 -89 221q-88 76 -249 76zM618 1524l-260 276l56 47l215 -182l215 182l55 -47l-260 -276h-21z" />
    <glyph glyph-name="rcaron" unicode="&#x159;" horiz-adv-x="829" 
d="M795 1069l-15 -156q-49 19 -116 19q-174 0 -279 -139v-701l205 -6v-86h-498v76l141 26v834l-141 43v72l273 22l16 -16l-10 -170l4 -6q127 194 327 194zM481 1212l-260 275l55 49l216 -182l215 182l53 -49l-258 -275h-21z" />
    <glyph glyph-name="Sacute" unicode="&#x15a;" horiz-adv-x="1107" 
d="M840 354q0 35 -10 72q-10 36 -20 55q-13 24 -40 47q-43 36 -44 37q-17 14 -58 32q-49 22 -60 26q-33 12 -68 24q-31 11 -67 25q-83 30 -134 58q-55 31 -109 77q-55 47 -82 117q-27 69 -27 161q0 167 102 266t334 99q107 0 204 -25q90 -23 132 -49l37 -22v-320h-107
l-28 236q-78 65 -242 65q-60 0 -116 -10q-64 -11 -87 -20l-28 -11q-52 -78 -52 -190q0 -32 6 -60q4 -17 13 -50q7 -23 25 -43q20 -22 29 -35q7 -11 39 -30q31 -19 40 -25q8 -6 49 -23q11 -5 22 -9.5t17 -7t8 -3.5t8.5 -3t19 -6.5t25.5 -9.5q51 -19 52 -19q84 -30 141 -60
q58 -31 113 -78t82 -117q28 -72 28 -158q0 -383 -479 -383q-119 0 -218 24q-96 23 -138 49l-41 23v321h102l35 -237q93 -64 276 -64q66 0 129 12q77 15 95 21l30 10q62 91 62 211zM428 1561l264 294l101 -100l-297 -231z" />
    <glyph glyph-name="sacute" unicode="&#x15b;" horiz-adv-x="968" 
d="M723 266q0 47 -18 80q-17 31 -59 56q-39 23 -76 37q-42 16 -99 32q-29 8 -35 10q-71 22 -121 44q-42 18 -94 56q-49 36 -73 88q-23 50 -23 126q0 280 352 280q100 0 177 -20q85 -22 116 -41l33 -21v-239h-109l-26 170q-63 45 -195 45q-48 0 -90 -7q-40 -7 -68 -16l-22 -6
q-37 -55 -37 -127q0 -40 15 -70t35 -50q18 -18 64 -40q38 -18 72 -29q28 -9 90 -30q83 -28 125 -45q46 -18 98 -54q51 -35 74 -87t23 -125q0 -297 -389 -297q-102 0 -185 19q-87 20 -120 40l-35 18v240h108l27 -170q73 -41 213 -41q57 0 106 7q46 7 76 16l25 6q45 63 45 145
zM348 1241l264 295l101 -100l-297 -232z" />
    <glyph glyph-name="Scircumflex" unicode="&#x15c;" horiz-adv-x="1107" 
d="M840 354q0 35 -10 72q-10 36 -20 55q-13 24 -40 47q-43 36 -44 37q-17 14 -58 32q-49 22 -60 26q-33 12 -68 24q-31 11 -67 25q-83 30 -134 58q-55 31 -109 77q-55 47 -82 117q-27 69 -27 161q0 167 102 266t334 99q107 0 204 -25q90 -23 132 -49l37 -22v-320h-107
l-28 236q-78 65 -242 65q-60 0 -116 -10q-64 -11 -87 -20l-28 -11q-52 -78 -52 -190q0 -32 6 -60q4 -17 13 -50q7 -23 25 -43q20 -22 29 -35q7 -11 39 -30q31 -19 40 -25q8 -6 49 -23q11 -5 22 -9.5t17 -7t8 -3.5t8.5 -3t19 -6.5t25.5 -9.5q51 -19 52 -19q84 -30 141 -60
q58 -31 113 -78t82 -117q28 -72 28 -158q0 -383 -479 -383q-119 0 -218 24q-96 23 -138 49l-41 23v321h102l35 -237q93 -64 276 -64q66 0 129 12q77 15 95 21l30 10q62 91 62 211zM274 1561l271 282h18l271 -282l-68 -37l-213 178l-211 -178z" />
    <glyph glyph-name="scircumflex" unicode="&#x15d;" horiz-adv-x="968" 
d="M723 266q0 47 -18 80q-17 31 -59 56q-39 23 -76 37q-42 16 -99 32q-29 8 -35 10q-71 22 -121 44q-42 18 -94 56q-49 36 -73 88q-23 50 -23 126q0 280 352 280q100 0 177 -20q85 -22 116 -41l33 -21v-239h-109l-26 170q-63 45 -195 45q-48 0 -90 -7q-40 -7 -68 -16l-22 -6
q-37 -55 -37 -127q0 -40 15 -70t35 -50q18 -18 64 -40q38 -18 72 -29q28 -9 90 -30q83 -28 125 -45q46 -18 98 -54q51 -35 74 -87t23 -125q0 -297 -389 -297q-102 0 -185 19q-87 20 -120 40l-35 18v240h108l27 -170q73 -41 213 -41q57 0 106 7q46 7 76 16l25 6q45 63 45 145
zM203 1241l268 283h21l268 -283l-68 -37l-211 178l-211 -178z" />
    <glyph glyph-name="Scedilla" unicode="&#x15e;" horiz-adv-x="1107" 
d="M475 -182l21 166q-117 2 -211 25q-96 24 -135 48l-39 23v321h102l35 -237q93 -64 276 -64q66 0 129 12q77 15 95 21l30 10q62 91 62 211q0 35 -10 72q-10 36 -20 55q-13 24 -40 47q-43 36 -44 37q-17 14 -58 32q-49 22 -60 26q-33 12 -68 24q-31 11 -67 25
q-83 30 -134 58q-55 31 -109 77q-55 47 -82 117q-27 69 -27 161q0 167 102 266t334 99q107 0 204 -25q90 -23 132 -49l37 -22v-320h-107l-28 236q-78 65 -242 65q-60 0 -116 -10q-64 -11 -87 -20l-28 -11q-52 -78 -52 -190q0 -32 6 -60q4 -17 13 -50q7 -23 25 -43
q20 -22 29 -35q7 -11 39 -30q31 -19 40 -25q8 -6 49 -23q11 -5 22 -9.5t17 -7t8 -3.5t8.5 -3t19 -6.5t25.5 -9.5q51 -19 52 -19q84 -30 141 -60q58 -31 113 -78t82 -117q28 -72 28 -158q0 -354 -412 -381l-16 -123q3 0 15 -2q3 0 7.5 -2t12.5 -4.5t14 -4.5q24 -8 43 -20
q20 -13 34 -39q15 -27 15 -61q0 -67 -56 -104q-58 -38 -148 -38q-31 0 -68 5q-26 4 -47 12l-14 6l20 82q37 -33 109 -33l82 10q12 33 12 60q0 36 -29 59t-57 27z" />
    <glyph glyph-name="scedilla" unicode="&#x15f;" horiz-adv-x="968" 
d="M412 -182l18 168q-96 5 -167 23q-77 20 -107 36l-33 18v240h108l27 -170q73 -41 213 -41q57 0 106 7q46 7 76 16l25 6q45 63 45 145q0 47 -18 80q-17 31 -59 56q-39 23 -76 37q-42 16 -99 32q-29 8 -35 10q-71 22 -121 44q-42 18 -94 56q-49 36 -73 88q-23 50 -23 126
q0 280 352 280q100 0 177 -20q85 -22 116 -41l33 -21v-239h-109l-26 170q-63 45 -195 45q-48 0 -90 -7q-40 -7 -68 -16l-22 -6q-37 -55 -37 -127q0 -40 15 -70t35 -50q18 -18 64 -40q38 -18 72 -29q28 -9 90 -30q83 -28 125 -45q46 -18 98 -54q51 -35 74 -87t23 -125
q0 -278 -342 -295l-16 -125q3 0 15 -2q3 0 7.5 -2t12.5 -4.5t14 -4.5q24 -8 43 -20q20 -13 34 -39q15 -27 15 -61q0 -67 -56 -104q-58 -38 -149 -38q-31 0 -66 5q-26 4 -47 12l-14 6l19 82q38 -33 108 -33l82 10q12 33 12 60q0 37 -28 59t-58 27z" />
    <glyph glyph-name="Scaron" unicode="&#x160;" horiz-adv-x="1107" 
d="M840 354q0 35 -10 72q-10 36 -20 55q-13 24 -40 47q-43 36 -44 37q-17 14 -58 32q-49 22 -60 26q-33 12 -68 24q-31 11 -67 25q-83 30 -134 58q-55 31 -109 77q-55 47 -82 117q-27 69 -27 161q0 167 102 266t334 99q107 0 204 -25q90 -23 132 -49l37 -22v-320h-107
l-28 236q-78 65 -242 65q-60 0 -116 -10q-64 -11 -87 -20l-28 -11q-52 -78 -52 -190q0 -32 6 -60q4 -17 13 -50q7 -23 25 -43q20 -22 29 -35q7 -11 39 -30q31 -19 40 -25q8 -6 49 -23q11 -5 22 -9.5t17 -7t8 -3.5t8.5 -3t19 -6.5t25.5 -9.5q51 -19 52 -19q84 -30 141 -60
q58 -31 113 -78t82 -117q28 -72 28 -158q0 -383 -479 -383q-119 0 -218 24q-96 23 -138 49l-41 23v321h102l35 -237q93 -64 276 -64q66 0 129 12q77 15 95 21l30 10q62 91 62 211zM532 1524l-260 276l56 47l215 -182l215 182l55 -47l-260 -276h-21z" />
    <glyph glyph-name="scaron" unicode="&#x161;" horiz-adv-x="968" 
d="M723 266q0 47 -18 80q-17 31 -59 56q-39 23 -76 37q-42 16 -99 32q-29 8 -35 10q-71 22 -121 44q-42 18 -94 56q-49 36 -73 88q-23 50 -23 126q0 280 352 280q100 0 177 -20q85 -22 116 -41l33 -21v-239h-109l-26 170q-63 45 -195 45q-48 0 -90 -7q-40 -7 -68 -16l-22 -6
q-37 -55 -37 -127q0 -40 15 -70t35 -50q18 -18 64 -40q38 -18 72 -29q28 -9 90 -30q83 -28 125 -45q46 -18 98 -54q51 -35 74 -87t23 -125q0 -297 -389 -297q-102 0 -185 19q-87 20 -120 40l-35 18v240h108l27 -170q73 -41 213 -41q57 0 106 7q46 7 76 16l25 6q45 63 45 145
zM465 1212l-258 275l53 49l215 -182l215 182l55 -49l-260 -275h-20z" />
    <glyph glyph-name="Tcommaaccent" unicode="&#x162;" horiz-adv-x="1300" 
d="M727 94l162 -12v-82h-477v78l161 26v1221h-344l-49 -256h-102l24 365h1098l25 -365h-103l-49 256h-346v-1231zM551 -526l-23 37q19 13 35 27q19 16 53 69q33 50 31 100q-35 1 -57 26q-21 24 -21 60q0 38 24 62t62 24q90 0 90 -115q0 -87 -49 -158q-52 -75 -98 -102z" />
    <glyph glyph-name="tcommaaccent" unicode="&#x163;" horiz-adv-x="776" 
d="M61 950v90l142 19l22 217h129v-217h334v-109h-334v-678q0 -174 158 -174q39 0 88 13q46 12 68 24l24 12l21 -81l-14 -10.5t-15 -11.5q-17 -13 -82 -36q-62 -22 -135 -22q-264 0 -264 282v682h-142zM358 -526l-24 37q1 1 6 4.5t8 5.5q20 16 30 26q24 24 38 43q15 20 28 55
q12 33 11 62q-37 1 -58 26q-20 23 -20 60q0 39 23 62q24 24 63 24q88 0 88 -115q0 -53 -20 -104q-19 -49 -48 -82t-57 -57q-33 -28 -49 -37z" />
    <glyph glyph-name="Tcaron" unicode="&#x164;" horiz-adv-x="1300" 
d="M727 94l162 -12v-82h-477v78l161 26v1221h-344l-49 -256h-102l24 365h1098l25 -365h-103l-49 256h-346v-1231zM639 1524l-258 276l53 47l215 -182l215 182l56 -47l-261 -276h-20z" />
    <glyph glyph-name="tcaron" unicode="&#x165;" horiz-adv-x="776" 
d="M61 950v90l142 19l22 217h129v-217h334v-109h-334v-678q0 -174 158 -174q39 0 88 13q46 12 68 24l24 12l21 -81l-14 -10.5t-15 -11.5q-17 -13 -82 -36q-62 -22 -135 -22q-264 0 -264 282v682h-142zM575 1159l-22 35q12 8 34 27q18 16 52 66t29 97q-33 1 -54 26
q-20 23 -20 58q0 38 22 60t62 22q84 0 84 -110q0 -82 -47 -153q-46 -70 -92 -99z" />
    <glyph glyph-name="Tbar" unicode="&#x166;" horiz-adv-x="1300" 
d="M324 713v100h249v512h-344l-49 -256h-102l24 365h1098l25 -365h-103l-49 256h-346v-512h250v-100h-250v-619l162 -12v-82h-477v78l161 26v609h-249z" />
    <glyph glyph-name="tbar" unicode="&#x167;" horiz-adv-x="776" 
d="M61 950v90l142 19l22 217h129v-217h334v-109h-334v-272h334v-103h-334v-303q0 -174 158 -174q39 0 88 13q46 12 68 24l24 12l21 -81l-14 -10.5t-15 -11.5q-17 -13 -82 -36q-62 -22 -135 -22q-264 0 -264 282v307h-142v103h142v272h-142z" />
    <glyph glyph-name="Utilde" unicode="&#x168;" horiz-adv-x="1492" 
d="M1251 1329v-835q0 -237 -138 -374q-137 -136 -368 -136q-226 0 -366 134q-139 133 -139 361v860l-162 13v82h481v-78l-160 -27v-848q0 -188 99 -287q100 -100 280 -100q57 0 113 9q52 9 82 20l26 8q11 8 15 13q5 6 30 41q20 27 40 70q16 33 32 101q14 59 14 136v847
l-165 13v82h452v-78zM471 1593l-39 43q10 16 30 39t77 62t112 39q45 0 123 -39t131 -39l117 82l37 -45q-9 -12 -30 -37q-21 -24 -77 -61q-58 -38 -110 -38q-46 0 -122 39q-77 39 -130 39z" />
    <glyph glyph-name="utilde" unicode="&#x169;" horiz-adv-x="1234" 
d="M725 979v72l276 22l17 -16v-934l143 -41v-74l-272 -22l-19 18l11 115l-7 6q-155 -139 -380 -139q-159 0 -225 82t-66 247v621l-142 43v72l277 22l16 -16v-731q0 -119 43 -174q44 -56 156 -56q170 0 315 131v709zM319 1280l-38 45q13 21 29 39q18 20 77 61q57 39 113 39
q46 0 123 -40t131 -40l116 82l37 -43l-4 -5q-4 -6 -7 -10q-10 -12 -31 -33q-27 -27 -47 -42q-25 -19 -58 -33q-32 -14 -70 -14q-46 0 -122 39q-77 39 -130 39z" />
    <glyph glyph-name="Umacron" unicode="&#x16a;" horiz-adv-x="1492" 
d="M1251 1329v-835q0 -237 -138 -374q-137 -136 -368 -136q-226 0 -366 134q-139 133 -139 361v860l-162 13v82h481v-78l-160 -27v-848q0 -188 99 -287q100 -100 280 -100q57 0 113 9q52 9 82 20l26 8q11 8 15 13q5 6 30 41q20 27 40 70q16 33 32 101q14 59 14 136v847
l-165 13v82h452v-78zM481 1602v102h531v-102h-531z" />
    <glyph glyph-name="umacron" unicode="&#x16b;" horiz-adv-x="1234" 
d="M725 979v72l276 22l17 -16v-934l143 -41v-74l-272 -22l-19 18l11 115l-7 6q-155 -139 -380 -139q-159 0 -225 82t-66 247v621l-142 43v72l277 22l16 -16v-731q0 -119 43 -174q44 -56 156 -56q170 0 315 131v709zM332 1300v103h528v-103h-528z" />
    <glyph glyph-name="Ubreve" unicode="&#x16c;" horiz-adv-x="1492" 
d="M1251 1329v-835q0 -237 -138 -374q-137 -136 -368 -136q-226 0 -366 134q-139 133 -139 361v860l-162 13v82h481v-78l-160 -27v-848q0 -188 99 -287q100 -100 280 -100q57 0 113 9q52 9 82 20l26 8q11 8 15 13q5 6 30 41q20 27 40 70q16 33 32 101q14 59 14 136v847
l-165 13v82h452v-78zM956 1769l54 -20q-2 -10 -6 -22q-4 -11 -23 -48q-17 -32 -44 -61q-25 -27 -75 -48q-52 -22 -108 -22q-95 0 -159 49q-65 50 -83 99l-16 47l82 29q2 -9 6 -15q13 -21 19 -30q12 -17 35 -38q19 -17 55 -31q35 -13 77 -13q67 0 113 31t59 63z" />
    <glyph glyph-name="ubreve" unicode="&#x16d;" horiz-adv-x="1234" 
d="M725 979v72l276 22l17 -16v-934l143 -41v-74l-272 -22l-19 18l11 115l-7 6q-155 -139 -380 -139q-159 0 -225 82t-66 247v621l-142 43v72l277 22l16 -16v-731q0 -119 43 -174q44 -56 156 -56q170 0 315 131v709zM801 1464l53 -20q-2 -10 -6 -22q-3 -8 -23 -47
q-16 -30 -44 -60q-26 -27 -73 -48q-50 -22 -110 -22q-96 0 -158 49q-64 50 -80 99l-18 47l82 28q1 -4 5 -14t18 -31q14 -22 35 -39q16 -13 56 -30q36 -15 78 -15q64 0 112 31q45 29 58 64z" />
    <glyph glyph-name="Uring" unicode="&#x16e;" horiz-adv-x="1492" 
d="M1251 1329v-835q0 -237 -138 -374q-137 -136 -368 -136q-226 0 -366 134q-139 133 -139 361v860l-162 13v82h481v-78l-160 -27v-848q0 -188 99 -287q100 -100 280 -100q57 0 113 9q52 9 82 20l26 8q11 8 15 13q5 6 30 41q20 27 40 70q16 33 32 101q14 59 14 136v847
l-165 13v82h452v-78zM582 1692q0 75 46 120q48 46 124 46q77 0 126 -46q48 -45 48 -120q0 -76 -48 -122q-47 -46 -126 -46q-78 0 -124 46t-46 122zM662 1696q0 -99 96 -99l67 11q19 30 19 75q0 101 -94 101l-70 -12q-18 -27 -18 -76z" />
    <glyph glyph-name="uring" unicode="&#x16f;" horiz-adv-x="1234" 
d="M725 979v72l276 22l17 -16v-934l143 -41v-74l-272 -22l-19 18l11 115l-7 6q-155 -139 -380 -139q-159 0 -225 82t-66 247v621l-142 43v72l277 22l16 -16v-731q0 -119 43 -174q44 -56 156 -56q170 0 315 131v709zM414 1376q0 76 46 121q47 45 124 45q80 0 127 -45t47 -121
t-47 -121t-127 -45q-78 0 -124 45t-46 121zM494 1380q0 -98 96 -98l67 12q19 28 19 76q0 98 -94 98l-70 -10q-18 -28 -18 -78z" />
    <glyph glyph-name="Uhungarumlaut" unicode="&#x170;" horiz-adv-x="1492" 
d="M1251 1329v-835q0 -237 -138 -374q-137 -136 -368 -136q-226 0 -366 134q-139 133 -139 361v860l-162 13v82h481v-78l-160 -27v-848q0 -188 99 -287q100 -100 280 -100q57 0 113 9q52 9 82 20l26 8q11 8 15 13q5 6 30 41q20 27 40 70q16 33 32 101q14 59 14 136v847
l-165 13v82h452v-78zM475 1561l227 294l101 -86l-262 -245zM801 1561l229 294l100 -86l-262 -245z" />
    <glyph glyph-name="uhungarumlaut" unicode="&#x171;" horiz-adv-x="1234" 
d="M725 979v72l276 22l17 -16v-934l143 -41v-74l-272 -22l-19 18l11 115l-7 6q-155 -139 -380 -139q-159 0 -225 82t-66 247v621l-142 43v72l277 22l16 -16v-731q0 -119 43 -174q44 -56 156 -56q170 0 315 131v709zM643 1241l229 295l101 -86l-262 -246zM317 1241l230 295
l100 -86l-262 -246z" />
    <glyph glyph-name="Uogonek" unicode="&#x172;" horiz-adv-x="1492" 
d="M799 -215q0 -100 100 -100q27 0 52 6q31 7 40 10l13 6l12 -43q-51 -51 -154 -51q-82 0 -126 42t-44 114q0 119 115 219q-36 -4 -62 -4q-226 0 -366 134q-139 133 -139 361v860l-162 13v82h481v-78l-160 -27v-848q0 -188 99 -287q100 -100 280 -100q57 0 113 9q52 9 82 20
l26 8q11 8 15 13q5 6 30 41q20 27 40 70q16 33 32 101q14 59 14 136v847l-165 13v82h452v-78l-166 -27v-835q0 -190 -91 -317q-92 -127 -249 -171q-112 -100 -112 -221z" />
    <glyph glyph-name="uogonek" unicode="&#x173;" horiz-adv-x="1234" 
d="M948 -219q0 -103 103 -103q22 0 52 7q24 6 40 12l12 6l10 -45q-49 -51 -153 -51q-80 0 -125 42t-45 115q0 128 129 230l-82 -8l-19 18l11 115l-7 6q-155 -139 -380 -139q-159 0 -225 82t-66 247v621l-142 43v72l277 22l16 -16v-731q0 -119 43 -174q44 -56 156 -56
q170 0 315 131v709l-143 43v72l276 22l17 -16v-934l143 -41v-74l-102 -8q-111 -100 -111 -219z" />
    <glyph glyph-name="Wcircumflex" unicode="&#x174;" horiz-adv-x="2113" 
d="M752 0h-148l-20 20l-412 1315l-164 17v82h510v-78l-166 -23l303 -1050q26 -86 31 -115h10q6 28 27 115l297 1130h147l308 -1130q1 -3 5.5 -21.5t9.5 -34.5q2 -5 15 -59h8q1 4 5 19.5t10.5 41.5l13.5 54l285 1056l-160 13v82h436v-78l-159 -27l-379 -1329h-148l-20 20
l-299 1096q-22 68 -23 105h-10q-5 -33 -21 -105zM813 1561l268 282h21l268 -282l-67 -37l-211 178l-211 -178z" />
    <glyph glyph-name="wcircumflex" unicode="&#x175;" horiz-adv-x="1716" 
d="M627 0h-140l-18 18l-311 947l-144 16v78h457v-74l-147 -20l204 -682q26 -86 31 -115h10q5 28 27 115l221 766h135l224 -766q1 -7 14 -51q11 -37 16 -64h8q1 4 5 19.5t10.5 41.5l13.5 54l199 686l-144 12v78h400v-74l-137 -27l-293 -958h-140l-16 18l-217 723
q-13 43 -25 103h-8q-7 -51 -22 -103zM604 1241l268 283h21l268 -283l-67 -37l-211 178l-211 -178z" />
    <glyph glyph-name="Ycircumflex" unicode="&#x176;" horiz-adv-x="1368" 
d="M1178 1329l-408 -690v-545l162 -12v-82h-477v78l161 26v531l-430 704l-155 13v82h508v-78l-168 -25l305 -514q34 -56 41 -74h10q12 31 37 74l291 522l-160 13v82h440v-78zM426 1561l268 282h21l268 -282l-68 -37l-210 178l-211 -178z" />
    <glyph glyph-name="ycircumflex" unicode="&#x177;" horiz-adv-x="1200" 
d="M551 -23l-397 992l-140 12v78h457v-74l-149 -24l272 -695q17 -46 33 -112h10q12 61 33 112l254 703l-144 12v78h402v-74l-135 -27l-361 -958q-111 -292 -191 -388q-81 -97 -227 -97q-37 0 -80 5q-37 4 -57 11l-20 6l24 144q79 -41 260 -41q110 144 156 337zM338 1241
l268 283h21l268 -283l-66 -37l-213 178l-210 -178z" />
    <glyph glyph-name="Ydieresis" unicode="&#x178;" horiz-adv-x="1368" 
d="M1178 1329l-408 -690v-545l162 -12v-82h-477v78l161 26v531l-430 704l-155 13v82h508v-78l-168 -25l305 -514q34 -56 41 -74h10q12 31 37 74l291 522l-160 13v82h440v-78zM412 1667q0 44 25 69t67 25q43 0 68 -25q26 -26 26 -69q0 -40 -26 -68q-25 -26 -68 -26
q-42 0 -67 26t-25 68zM797 1667q0 44 25 69t69 25q41 0 67 -25q27 -26 27 -69q0 -41 -27 -68q-26 -26 -67 -26q-44 0 -69 26t-25 68z" />
    <glyph glyph-name="Zacute" unicode="&#x179;" horiz-adv-x="1208" 
d="M104 0v66l781 1259h-633l-49 -235h-103l25 344h958v-66l-780 -1259h664l26 235h105v-344h-994zM477 1561l266 294l101 -100l-299 -231z" />
    <glyph glyph-name="zacute" unicode="&#x17a;" horiz-adv-x="1034" 
d="M115 0v61l602 893h-451l-24 -188h-111v293h770v-60l-600 -895h479l27 189h108v-293h-800zM389 1241l266 295l101 -100l-299 -232z" />
    <glyph glyph-name="Zdotaccent" unicode="&#x17b;" horiz-adv-x="1208" 
d="M104 0v66l781 1259h-633l-49 -235h-103l25 344h958v-66l-780 -1259h664l26 235h105v-344h-994zM492 1690q0 49 31 79q33 31 81 31q52 0 82 -30q31 -31 31 -80q0 -51 -31 -82t-82 -31q-48 0 -81 31q-31 30 -31 82z" />
    <glyph glyph-name="zdotaccent" unicode="&#x17c;" horiz-adv-x="1034" 
d="M115 0v61l602 893h-451l-24 -188h-111v293h770v-60l-600 -895h479l27 189h108v-293h-800zM403 1382q0 50 32 80q33 31 81 31q52 0 82 -30q31 -31 31 -81q0 -51 -31 -82q-30 -30 -82 -30q-50 0 -81 30q-32 30 -32 82z" />
    <glyph glyph-name="Zcaron" unicode="&#x17d;" horiz-adv-x="1208" 
d="M104 0v66l781 1259h-633l-49 -235h-103l25 344h958v-66l-780 -1259h664l26 235h105v-344h-994zM594 1505l-260 275l55 49l215 -182l215 182l55 -49l-260 -275h-20z" />
    <glyph glyph-name="zcaron" unicode="&#x17e;" horiz-adv-x="1034" 
d="M115 0v61l602 893h-451l-24 -188h-111v293h770v-60l-600 -895h479l27 189h108v-293h-800zM510 1212l-260 275l53 49l217 -182l215 182l53 -49l-260 -275h-18z" />
    <glyph glyph-name="uni018F" unicode="&#x18f;" horiz-adv-x="1253" 
d="M1151 711q0 -337 -159 -532t-421 -195q-264 0 -381 196t-73 531l53 37h813q-1 286 -117 438q-113 149 -317 149q-61 0 -123 -12q-54 -11 -94 -25l-31 -14l-53 -252h-103l25 328q6 4 49 25q33 17 127 40q100 25 189 25q280 0 448 -198t168 -541zM827 156q10 10 16 18
q12 16 35 58q26 46 45 99q16 44 36 139q17 84 22 181l-715 -20q-33 -252 55 -393q87 -140 267 -140q58 0 118 15q70 17 91 28z" />
    <glyph glyph-name="florin" unicode="&#x192;" horiz-adv-x="839" 
d="M119 813l16 90l164 19l27 143q50 270 151 377q102 108 275 108q36 0 81 -5q37 -4 60 -9l20 -6l-39 -121q-64 35 -153 35q-31 0 -64 -5q-24 -4 -45 -12l-14 -6q-76 -89 -121 -356l-26 -143h331l-20 -109h-330l-145 -811q-46 -267 -151 -378q-103 -109 -273 -109
q-37 0 -82 5q-42 5 -62 9l-20 6l41 121q62 -35 151 -35q30 0 65 5q25 4 48 12l14 6q72 92 119 358l144 811h-162z" />
    <glyph glyph-name="uni01DD" unicode="&#x1dd;" horiz-adv-x="1077" 
d="M162 891l-33 84q5 3 11.5 7t16.5 9.5t17 9.5q33 19 119 45q90 27 182 27q227 0 364 -143q138 -144 138 -393q0 -252 -133 -401q-134 -150 -344 -150q-196 0 -304 137t-96 389l50 35h669q-1 211 -103 313q-103 103 -265 103q-67 0 -143 -19q-68 -17 -109 -35zM702 135
q4 5 15 18t17 21q18 23 51 111q32 87 32 178l-577 -21q-2 -170 69 -257q72 -89 201 -89q47 0 95 9t73 20z" />
    <glyph glyph-name="Aringacute" unicode="&#x1fa;" horiz-adv-x="1443" 
d="M549 1526q0 76 45 120q46 45 121 46l184 217l92 -101l-180 -137q82 -43 82 -145q0 -97 -74 -142l457 -1290l160 -12v-82h-504v78l162 26l-119 347h-561l-123 -357l166 -12v-82h-449v78l156 26l459 1278q-74 45 -74 144zM664 1167l-213 -608h489l-207 608q-14 43 -31 113
h-10q-12 -59 -28 -113zM629 1530q0 -84 69 -96h56l39 8q18 28 18 76q0 100 -94 100l-70 -12q-18 -27 -18 -76z" />
    <glyph glyph-name="aringacute" unicode="&#x1fb;" horiz-adv-x="1105" 
d="M111 242q0 129 77 210q78 83 238 101l326 39v131q0 123 -52 183q-51 59 -182 59q-57 0 -108 -12q-55 -13 -74 -23l-23 -10l-26 -170h-109v241q6 3 40 23q23 14 115 37q87 22 189 22q204 0 293 -90q88 -89 88 -276v-531q0 -76 76 -76h78l10 -69q-51 -39 -145 -39
q-144 0 -166 123q-150 -129 -361 -129q-141 0 -213 66q-71 65 -71 190zM254 260q0 -164 190 -164q168 0 308 113v299l-430 -74q-68 -62 -68 -174zM363 1321q0 76 41 118q42 43 116 48l185 215l92 -100l-176 -134q86 -44 86 -147q0 -75 -48 -121q-47 -45 -127 -45
q-76 0 -123 45q-46 45 -46 121zM444 1325q0 -98 97 -98l67 10q19 30 19 78q0 98 -95 98l-69 -10q-19 -30 -19 -78z" />
    <glyph glyph-name="AEacute" unicode="&#x1fc;" horiz-adv-x="1677" 
d="M1548 0h-796v78l159 26l-51 347h-432l-137 -357l166 -12v-82h-449v78l156 26l518 1330h842l24 -336h-102l-49 227h-518l86 -543h217l24 172h84v-454h-84l-24 172h-201l90 -563h350l49 231h103zM700 1167l-237 -608h387l-107 723h-8q-7 -45 -35 -115zM711 1561l264 294
l100 -100l-297 -231z" />
    <glyph glyph-name="aeacute" unicode="&#x1fd;" horiz-adv-x="1634" 
d="M1475 168l30 -84q-15 -10 -42 -27q-28 -17 -113 -44q-86 -27 -174 -27q-241 0 -371 172q-34 -36 -69 -63q-40 -31 -137 -70t-202 -39q-144 0 -215 67t-71 191q0 128 77 208t238 101l274 33q7 109 48 209q-12 85 -67 128q-54 42 -163 42q-57 0 -108 -12q-55 -13 -74 -23
l-23 -10l-26 -170h-109v241q6 3 40 23q23 14 115 37q87 22 189 22q236 0 324 -127q121 127 307 127t291 -137q105 -136 90 -387l-49 -35h-627q1 -209 97 -314q95 -104 249 -104q66 0 133 18q70 19 103 36zM967 924q-14 -14 -31 -38q-18 -26 -48 -111t-30 -179l537 20
q1 167 -65 258q-67 91 -187 91q-39 0 -85 -11q-50 -12 -67 -20zM254 260q0 -164 190 -164q180 0 322 125q-67 119 -68 281l-376 -68q-68 -62 -68 -174zM752 1241l266 295l100 -100l-299 -232z" />
    <glyph glyph-name="Oslashacute" unicode="&#x1fe;" horiz-adv-x="1357" 
d="M133 4l125 182q-154 196 -154 531q0 336 158 535q158 198 418 198q209 0 354 -133l105 151l88 -41l-125 -182q153 -198 153 -528q0 -339 -157 -536t-418 -197q-211 0 -356 133l-105 -152zM1087 715q0 248 -75 401l-611 -887q105 -131 287 -131q61 0 121 15q66 17 88 28
l31 15q1 1 17 19q12 13 39 63q28 51 48 107q19 52 38 158q17 94 17 212zM272 719q0 -247 76 -402l608 887q-107 131 -284 131q-62 0 -123 -15t-90 -30l-31 -16q-2 -2 -7.5 -8.5t-8.5 -10.5q-12 -14 -38 -60q-27 -49 -48 -106q-20 -55 -37 -158q-17 -102 -17 -212zM553 1561
l264 294l101 -100l-297 -231z" />
    <glyph glyph-name="oslashacute" unicode="&#x1ff;" horiz-adv-x="1142" 
d="M121 -20l108 151q-129 145 -129 399q0 256 130 399q130 144 343 144q157 0 275 -84l90 125l86 -37l-109 -151q129 -146 129 -396q0 -254 -129 -399t-342 -145q-162 0 -276 84l-88 -123zM258 537q0 -176 57 -287l459 637q-82 82 -209 82q-47 0 -96 -12q-58 -14 -76 -21
l-24 -10q-15 -15 -31 -39q-20 -30 -49 -127q-31 -104 -31 -223zM887 524q0 172 -58 285l-458 -637q80 -80 211 -80q47 0 93 10q48 10 75 21l24 10q7 7 12 13q10 12 28 44q17 30 34 76q13 34 26 111q13 75 13 147zM446 1241l267 295l100 -100l-299 -232z" />
    <glyph glyph-name="Scommaaccent" unicode="&#x218;" horiz-adv-x="1107" 
d="M840 354q0 35 -10 72q-10 36 -20 55q-13 24 -40 47q-43 36 -44 37q-17 14 -58 32q-49 22 -60 26q-33 12 -68 24q-31 11 -67 25q-83 30 -134 58q-55 31 -109 77q-55 47 -82 117q-27 69 -27 161q0 167 102 266t334 99q107 0 204 -25q90 -23 132 -49l37 -22v-320h-107
l-28 236q-78 65 -242 65q-60 0 -116 -10q-64 -11 -87 -20l-28 -11q-52 -78 -52 -190q0 -32 6 -60q4 -17 13 -50q7 -23 25 -43q20 -22 29 -35q7 -11 39 -30q31 -19 40 -25q8 -6 49 -23q11 -5 22 -9.5t17 -7t8 -3.5t8.5 -3t19 -6.5t25.5 -9.5q51 -19 52 -19q84 -30 141 -60
q58 -31 113 -78t82 -117q28 -72 28 -158q0 -383 -479 -383q-119 0 -218 24q-96 23 -138 49l-41 23v321h102l35 -237q93 -64 276 -64q66 0 129 12q77 15 95 21l30 10q62 91 62 211zM438 -526l-22 37q19 13 35 27q19 16 53 69q33 50 31 100q-37 1 -58 26q-20 23 -20 60
q0 39 23 62q24 24 63 24q90 0 90 -115q0 -54 -21 -104q-21 -48 -48 -82q-26 -32 -56 -57q-33 -28 -49 -37z" />
    <glyph glyph-name="scommaaccent" unicode="&#x219;" horiz-adv-x="968" 
d="M723 266q0 47 -18 80q-17 31 -59 56q-39 23 -76 37q-42 16 -99 32q-29 8 -35 10q-71 22 -121 44q-42 18 -94 56q-49 36 -73 88q-23 50 -23 126q0 280 352 280q100 0 177 -20q85 -22 116 -41l33 -21v-239h-109l-26 170q-63 45 -195 45q-48 0 -90 -7q-40 -7 -68 -16l-22 -6
q-37 -55 -37 -127q0 -40 15 -70t35 -50q18 -18 64 -40q38 -18 72 -29q28 -9 90 -30q83 -28 125 -45q46 -18 98 -54q51 -35 74 -87t23 -125q0 -297 -389 -297q-102 0 -185 19q-87 20 -120 40l-35 18v240h108l27 -170q73 -41 213 -41q57 0 106 7q46 7 76 16l25 6q45 63 45 145
zM395 -526l-22 37q19 13 35 27q19 16 53 69q33 50 31 100q-37 1 -58 26q-20 23 -20 60q0 39 23 62q24 24 63 24q88 0 88 -115q0 -53 -20 -104q-19 -49 -48 -82q-28 -33 -57 -57q-33 -28 -49 -37z" />
    <glyph glyph-name="uni021A" unicode="&#x21a;" horiz-adv-x="1300" 
d="M727 94l162 -12v-82h-477v78l161 26v1221h-344l-49 -256h-102l24 365h1098l25 -365h-103l-49 256h-346v-1231zM551 -526l-23 37q19 13 35 27q19 16 53 69q33 50 31 100q-35 1 -57 26q-21 24 -21 60q0 38 24 62t62 24q90 0 90 -115q0 -87 -49 -158q-52 -75 -98 -102z" />
    <glyph glyph-name="uni021B" unicode="&#x21b;" horiz-adv-x="776" 
d="M61 950v90l142 19l22 217h129v-217h334v-109h-334v-678q0 -174 158 -174q39 0 88 13q46 12 68 24l24 12l21 -81l-14 -10.5t-15 -11.5q-17 -13 -82 -36q-62 -22 -135 -22q-264 0 -264 282v682h-142zM358 -526l-24 37q1 1 6 4.5t8 5.5q20 16 30 26q24 24 38 43q15 20 28 55
q12 33 11 62q-37 1 -58 26q-20 23 -20 60q0 39 23 62q24 24 63 24q88 0 88 -115q0 -53 -20 -104q-19 -49 -48 -82t-57 -57q-33 -28 -49 -37z" />
    <glyph glyph-name="dotlessj" unicode="&#x237;" horiz-adv-x="563" 
d="M84 979v72l276 22l17 -16v-1055q0 -268 -84 -378q-84 -109 -256 -109q-36 0 -83 5q-43 5 -65 9l-22 6l22 131q74 -41 166 -41q27 0 57 5q19 3 42 10l14 4q59 90 59 358v934z" />
    <glyph glyph-name="circumflex" unicode="&#x2c6;" horiz-adv-x="749" 
d="M96 1241l269 283h20l268 -283l-67 -37l-211 178l-211 -178z" />
    <glyph glyph-name="caron" unicode="&#x2c7;" horiz-adv-x="749" 
d="M365 1212l-261 275l56 49l215 -182l215 182l55 -49l-260 -275h-20z" />
    <glyph glyph-name="breve" unicode="&#x2d8;" horiz-adv-x="749" 
d="M575 1464l54 -20q-2 -10 -6 -22q-4 -13 -22 -47q-17 -32 -43 -60q-26 -27 -75 -48q-52 -22 -108 -22q-95 0 -159 49q-64 50 -81 99l-18 47l82 28q1 -4 5 -14t18 -31q14 -22 35 -39q16 -14 55 -30q36 -15 79 -15q64 0 112 31q45 29 58 64z" />
    <glyph glyph-name="dotaccent" unicode="&#x2d9;" horiz-adv-x="591" 
d="M176 1382q0 50 32 80q33 31 81 31q52 0 82 -30t30 -81q0 -52 -30 -82t-82 -30q-49 0 -81 30t-32 82z" />
    <glyph glyph-name="ring" unicode="&#x2da;" horiz-adv-x="1150" 
d="M426 1376q0 76 46 121t124 45q80 0 127 -45t47 -121t-47 -121t-127 -45q-78 0 -124 45t-46 121zM506 1380q0 -98 96 -98l68 12q18 27 18 76q0 98 -94 98l-70 -10q-18 -28 -18 -78z" />
    <glyph glyph-name="ogonek" unicode="&#x2db;" horiz-adv-x="671" 
d="M276 -225q0 -101 101 -101q23 0 53 5q19 3 41 12l12 6l11 -43q-51 -51 -154 -51q-80 0 -125 42t-45 113q0 65 38 126q38 60 75 87l36 29h76q-12 -10 -33 -30q-20 -18 -53 -79q-33 -60 -33 -116z" />
    <glyph glyph-name="tilde" unicode="&#x2dc;" horiz-adv-x="952" 
d="M203 1280l-39 45q10 17 30 39q19 22 76 61t113 39q46 0 122 -40t132 -40l115 82l36 -43q-13 -21 -29 -39q-20 -23 -76 -60q-58 -38 -112 -38q-42 0 -120 39t-129 39z" />
    <glyph glyph-name="hungarumlaut" unicode="&#x2dd;" horiz-adv-x="933" 
d="M129 1241l229 295l101 -86l-262 -246zM457 1241l227 295l100 -86l-262 -246z" />
    <glyph glyph-name="uni0400" unicode="&#x400;" horiz-adv-x="1228" 
d="M1100 0h-1012v78l162 26v1235l-162 13v82h989l23 -336h-101l-51 227h-542v-543h315l27 172h86v-454h-86l-27 172h-315v-563h567l49 231h102zM356 1755l101 100l264 -294l-68 -37z" />
    <glyph glyph-name="afii10023" unicode="&#x401;" horiz-adv-x="1228" 
d="M1100 0h-1012v78l162 26v1235l-162 13v82h989l23 -336h-101l-51 227h-542v-543h315l27 172h86v-454h-86l-27 172h-315v-563h567l49 231h102zM332 1677q0 44 25 69q26 26 67 26q43 0 69 -26q25 -25 25 -69q0 -41 -25 -67q-25 -27 -69 -27q-42 0 -67 27q-25 26 -25 67z
M717 1677q0 44 25 69q26 26 69 26q40 0 68 -26q26 -25 26 -69q0 -41 -26 -67q-27 -27 -68 -27q-43 0 -69 27q-25 26 -25 67z" />
    <glyph glyph-name="afii10051" unicode="&#x402;" horiz-adv-x="1626" 
d="M1348 332v114q0 135 -71 201t-220 66q-77 0 -162 -17q-86 -17 -125 -32l-43 -19v-551l162 -12v-82h-477v78l161 26v1221h-344l-49 -256h-102l24 365h1098l25 -365h-103l-49 256h-346v-571q156 69 360 69q416 0 416 -362v-142q0 -159 -84 -247t-237 -88q-58 0 -102 11
q-52 13 -68 21l-23 13l17 100q56 -33 149 -33q31 0 69 5q26 3 50 10l18 6q56 77 56 215z" />
    <glyph glyph-name="afii10052" unicode="&#x403;" horiz-adv-x="1146" 
d="M475 1561l264 294l101 -100l-299 -231zM406 96l184 -6v-90h-502v78l162 26v1235l-162 13v82h956l25 -365h-102l-49 256h-512v-1229z" />
    <glyph glyph-name="afii10053" unicode="&#x404;" horiz-adv-x="1216" 
d="M1004 1034l-54 248q-89 53 -246 53q-78 0 -143 -16q-68 -17 -98 -33l-31 -16q-2 -2 -16 -18q-12 -14 -36 -53t-46 -93q-20 -48 -40 -138q-20 -87 -24 -186h453l25 172h88v-454h-88l-25 172h-453q10 -280 126 -427t315 -147q52 0 117 13q62 12 94 24l30 15l56 251h100
l-23 -327q-18 -11 -49 -26q-33 -16 -127 -40q-96 -24 -188 -24q-284 0 -450 196q-167 197 -167 539q0 340 168 535q169 196 457 196q94 0 184 -23q88 -22 127 -45l41 -22l25 -326h-102z" />
    <glyph glyph-name="afii10054" unicode="&#x405;" horiz-adv-x="1107" 
d="M840 354q0 35 -10 72q-10 36 -20 55q-13 24 -40 47q-43 36 -44 37q-17 14 -58 32q-49 22 -60 26q-33 12 -68 24q-31 11 -67 25q-83 30 -134 58q-55 31 -109 77q-55 47 -82 117q-27 69 -27 161q0 167 102 266t334 99q107 0 204 -25q90 -23 132 -49l37 -22v-320h-107
l-28 236q-78 65 -242 65q-60 0 -116 -10q-64 -11 -87 -20l-28 -11q-52 -78 -52 -190q0 -32 6 -60q4 -17 13 -50q7 -23 25 -43q20 -22 29 -35q7 -11 39 -30q31 -19 40 -25q8 -6 49 -23q11 -5 22 -9.5t17 -7t8 -3.5t8.5 -3t19 -6.5t25.5 -9.5q51 -19 52 -19q84 -30 141 -60
q58 -31 113 -78t82 -117q28 -72 28 -158q0 -383 -479 -383q-119 0 -218 24q-96 23 -138 49l-41 23v321h102l35 -237q93 -64 276 -64q66 0 129 12q77 15 95 21l30 10q62 91 62 211z" />
    <glyph glyph-name="afii10055" unicode="&#x406;" horiz-adv-x="655" 
d="M406 94l161 -12v-82h-479v78l162 26v1235l-162 13v82h479v-78l-161 -27v-1235z" />
    <glyph glyph-name="afii10056" unicode="&#x407;" horiz-adv-x="655" 
d="M57 1677q0 43 27 69q28 26 68 26q42 0 68 -26t26 -69q0 -39 -26 -67q-25 -27 -68 -27q-41 0 -68 27t-27 67zM410 1677q0 44 26 69q28 26 68 26q42 0 68 -26t26 -69q0 -39 -26 -67q-26 -27 -68 -27q-41 0 -68 27q-26 26 -26 67zM403 94l162 -12v-82h-477v78l162 26v1235
l-162 13v82h477v-78l-162 -27v-1235z" />
    <glyph glyph-name="afii10057" unicode="&#x408;" horiz-adv-x="917" 
d="M676 1329v-985q0 -166 -94 -263t-267 -97q-59 0 -112 12q-54 12 -76 24l-25 13l19 102q67 -39 180 -39q39 0 79 6q30 4 60 13l21 6q61 79 61 244v970l-186 8v91h502v-78z" />
    <glyph glyph-name="afii10058" unicode="&#x409;" horiz-adv-x="2099" 
d="M1098 1325h-498q0 -545 -36 -838t-105 -398t-195 -105q-46 0 -92 12q-50 13 -72 24l-24 11l22 125q90 -43 260 -43q10 13 14 20q10 16 30 96q22 87 38 202q16 119 30 361q13 231 13 547l-159 13v82h1091v-78l-162 -27v-524h281q212 0 342 -107q129 -106 129 -295
q0 -191 -129 -297q-128 -106 -344 -106h-596v78l162 26v1221zM1501 694h-248v-585h256q53 0 102 7q60 9 81 13l28 6q9 5 32 27q18 16 52 88q33 69 33 151q0 146 -89 220q-88 73 -247 73z" />
    <glyph glyph-name="afii10059" unicode="&#x40a;" horiz-adv-x="2086" 
d="M1085 1339l-161 13v82h477v-78l-160 -27v-526h279q214 0 344 -106q129 -105 129 -294q0 -191 -129 -297q-128 -106 -344 -106h-596v78l161 26v590h-679v-600l161 -12v-82h-479v78l162 26v1235l-162 13v82h479v-78l-161 -27v-526h679v536zM1487 692h-246v-583h254
q53 0 102 7q63 9 82 13l29 6q2 2 12 10q9 7 29 30q21 24 36 51q14 26 27 75q13 50 13 98q0 145 -89 219t-249 74z" />
    <glyph glyph-name="afii10060" unicode="&#x40b;" horiz-adv-x="1708" 
d="M727 94l162 -12v-82h-477v78l161 26v1221h-344l-49 -256h-102l24 365h1098l25 -365h-103l-49 256h-346v-571q153 69 358 69q410 0 410 -362v-367l162 -12v-82h-477v78l161 26v342q0 267 -288 267q-75 0 -160 -17q-87 -17 -123 -32l-43 -19v-551z" />
    <glyph glyph-name="afii10061" unicode="&#x40c;" horiz-adv-x="1335" 
d="M567 1561l264 294l101 -100l-297 -231zM406 94l161 -12v-82h-479v78l162 26v1235l-162 13v82h479v-78l-161 -27v-555l184 21l391 544l-156 13v82h445v-78l-156 -27l-414 -571l449 -664l156 -12v-82h-281l-455 686h-163v-592z" />
    <glyph glyph-name="uni040D" unicode="&#x40d;" horiz-adv-x="1503" 
d="M510 1755l100 100l264 -294l-65 -37zM406 94l161 -12v-82h-479v78l162 26v1235l-162 13v82h479v-78l-161 -27v-1014l692 992v32l-162 13v82h479v-78l-162 -27v-1235l162 -12v-82h-479v78l162 26v1006l-692 -981v-35z" />
    <glyph glyph-name="afii10062" unicode="&#x40e;" horiz-adv-x="1374" 
d="M698 1548q-71 0 -131 22q-56 21 -86 52q-26 27 -46 61q-15 25 -21 54l-4 20l108 12q1 -25 16 -54q14 -27 57 -57t107 -30q65 0 108 30q44 30 57 57q15 29 16 54l108 -12q0 -9 -4 -22q-5 -17 -22 -51q-16 -32 -47 -63q-27 -27 -85 -50t-131 -23zM629 383l-461 956l-160 13
v82h502v-78l-166 -25l328 -696q24 -50 39 -113h10q11 44 37 113l323 704l-161 13v82h434v-78l-156 -27l-418 -895q-133 -289 -208 -368q-75 -80 -214 -80q-52 0 -93 7q-47 8 -64 13l-19 6l29 150q86 -53 268 -53q67 81 150 274z" />
    <glyph glyph-name="afii10145" unicode="&#x40f;" horiz-adv-x="1503" 
d="M684 0h-596v78l162 26v1235l-162 13v82h479v-78l-161 -27v-1220h692v1230l-162 13v82h479v-78l-162 -27v-1235l162 -12v-82h-596l-16 -319h-103z" />
    <glyph glyph-name="afii10017" unicode="&#x410;" horiz-adv-x="1443" 
d="M641 1434h150l20 -21l465 -1319l160 -12v-82h-504v78l162 26l-119 347h-561l-123 -357l166 -12v-82h-449v78l156 26zM664 1167l-213 -608h489l-207 608q-14 43 -31 113h-10q-12 -59 -28 -113z" />
    <glyph glyph-name="afii10018" unicode="&#x411;" horiz-adv-x="1251" 
d="M250 1339l-162 13v82h956l25 -365h-102l-49 256h-512v-520h278q214 0 344 -107q129 -106 129 -295q0 -191 -129 -297q-128 -106 -344 -106h-596v78l162 26v1235zM653 694h-247v-585h256q52 0 101 7q60 9 81 13l28 6q9 5 32 27q18 16 52 88q33 69 33 151q0 146 -89 220
q-88 73 -247 73z" />
    <glyph glyph-name="afii10019" unicode="&#x412;" horiz-adv-x="1261" 
d="M684 0h-596v78l162 26v1235l-162 13v82h549q213 0 343 -99t130 -266q0 -115 -63 -204q-64 -90 -158 -120q-19 -4 -27 -4v-6q3 0 5 -1q1 -1 4.5 -1.5t5.5 -0.5q4 -1 12 -1q118 -33 193 -127q75 -95 75 -223q0 -175 -130 -278t-343 -103zM653 678h-247v-567h256q50 0 106 6
q52 6 84 14l31 6q8 5 29 26q17 17 47 83t30 145q0 143 -88 215t-248 72zM604 1325h-198v-537h206q44 0 109 7q55 6 84 12l29 6q9 5 30 25q19 17 48 77q30 61 30 136q0 135 -90 204q-91 70 -248 70z" />
    <glyph glyph-name="afii10020" unicode="&#x413;" horiz-adv-x="1146" 
d="M406 96l184 -6v-90h-502v78l162 26v1235l-162 13v82h956l25 -365h-102l-49 256h-512v-1229z" />
    <glyph glyph-name="afii10021" unicode="&#x414;" horiz-adv-x="1462" 
d="M1243 0h-1022l-35 -319h-102v428h180q13 17 26 42t40 118q27 92 45 215q20 137 34 351q15 227 15 504l-162 13v82h1108v-78l-162 -27v-1220h170v-428h-102zM1053 1325h-512q0 -950 -160 -1216h672v1216z" />
    <glyph glyph-name="afii10022" unicode="&#x415;" horiz-adv-x="1228" 
d="M1100 0h-1012v78l162 26v1235l-162 13v82h989l23 -336h-101l-51 227h-542v-543h315l27 172h86v-454h-86l-27 172h-315v-563h567l49 231h102z" />
    <glyph glyph-name="afii10024" unicode="&#x416;" horiz-adv-x="1933" 
d="M889 774v565l-162 13v82h479v-78l-162 -27v-555l179 21l364 544l-157 13v82h446v-78l-158 -27l-385 -571l412 -664l158 -12v-82h-281l-420 686h-158v-592l162 -12v-82h-479v78l162 26v582h-160l-418 -686h-280v82l157 12l412 664l-387 571l-156 27v78h447v-82l-158 -13
l365 -544z" />
    <glyph glyph-name="afii10025" unicode="&#x417;" horiz-adv-x="1148" 
d="M532 98q64 0 121 7q56 7 92 14l31 8q7 5 28 26q18 18 45 82q28 67 28 142q0 144 -90 223q-89 78 -246 78h-140l-18 18v92h119q66 0 132 12q72 13 99 23l33 11q63 74 63 223q0 278 -303 278q-65 0 -131 -12q-58 -11 -98 -25l-33 -14l-53 -252h-102l24 328q14 8 51 25
t137 40q108 25 207 25q227 0 348 -100t121 -277q0 -124 -61 -210q-63 -88 -160 -118q-15 -4 -26 -4v-6q7 0 26 -4q113 -30 191 -128q77 -96 77 -228q0 -182 -144 -287q-143 -104 -380 -104q-111 0 -206 22q-96 22 -140 45l-43 23l-25 325h103l53 -249q96 -52 270 -52z" />
    <glyph glyph-name="afii10026" unicode="&#x418;" horiz-adv-x="1503" 
d="M406 94l161 -12v-82h-479v78l162 26v1235l-162 13v82h479v-78l-161 -27v-1014l692 992v32l-162 13v82h479v-78l-162 -27v-1235l162 -12v-82h-479v78l162 26v1006l-692 -981v-35z" />
    <glyph glyph-name="afii10027" unicode="&#x419;" horiz-adv-x="1503" 
d="M752 1548q-71 0 -131 22q-56 21 -86 52q-28 30 -47 61q-15 25 -21 54l-4 20l108 12q1 -25 16 -54q13 -27 57 -57t108 -30t107 30t57 57q15 29 16 54l108 -12q0 -9 -4 -22q-5 -17 -22 -51t-46 -63q-27 -27 -85 -50t-131 -23zM406 94l161 -12v-82h-479v78l162 26v1235
l-162 13v82h479v-78l-161 -27v-1014l692 992v32l-162 13v82h479v-78l-162 -27v-1235l162 -12v-82h-479v78l162 26v1006l-692 -981v-35z" />
    <glyph glyph-name="afii10028" unicode="&#x41a;" horiz-adv-x="1335" 
d="M406 94l161 -12v-82h-479v78l162 26v1235l-162 13v82h479v-78l-161 -27v-555l184 21l391 544l-156 13v82h445v-78l-156 -27l-414 -571l449 -664l156 -12v-82h-281l-455 686h-163v-592z" />
    <glyph glyph-name="afii10029" unicode="&#x41b;" horiz-adv-x="1449" 
d="M1047 1325h-498q0 -428 -23 -710q-23 -277 -70 -409q-48 -134 -103 -178t-140 -44q-47 0 -91 12t-65 24l-20 11l20 125q85 -45 246 -45q8 8 14 20q11 21 31 96q23 83 39 203q16 114 31 362q14 224 14 547l-162 13v82h1092v-78l-162 -27v-1235l162 -12v-82h-477v78l162 26
v1221z" />
    <glyph glyph-name="afii10030" unicode="&#x41c;" horiz-adv-x="1804" 
d="M332 94l166 -12v-82h-451v78l164 26l90 1235l-166 13v82h361l376 -1006q28 -78 33 -104h8q11 58 29 108l379 1002h348v-78l-162 -27l90 -1235l162 -12v-82h-479v78l162 26l-74 1070q-4 40 -4 71h-8q-1 -29 -19 -71l-374 -1008h-136l-20 20l-379 988q-9 29 -14 75h-6
q0 -19 -1 -37t-1 -38z" />
    <glyph glyph-name="afii10031" unicode="&#x41d;" horiz-adv-x="1503" 
d="M406 94l161 -12v-82h-479v78l162 26v1235l-162 13v82h479v-78l-161 -27v-547h692v557l-162 13v82h479v-78l-162 -27v-1235l162 -12v-82h-479v78l162 26v568h-692v-578z" />
    <glyph glyph-name="afii10032" unicode="&#x41e;" horiz-adv-x="1357" 
d="M104 717q0 336 158 535q158 198 418 198q258 0 417 -198q158 -197 158 -535q0 -339 -158 -536t-417 -197q-261 0 -418 197q-158 199 -158 536zM272 719q0 -302 110 -462q110 -159 306 -159q60 0 120 15q68 17 89 28l31 15q1 1 17 19q12 13 39 63q28 51 48 107
q19 52 38 158q17 94 17 212q0 304 -110 462t-305 158q-64 0 -125 -15q-62 -15 -92 -30l-29 -16q-2 -2 -7.5 -8.5t-8.5 -10.5q-9 -10 -37 -60q-25 -44 -47 -106q-20 -55 -37 -158q-17 -102 -17 -212z" />
    <glyph glyph-name="afii10033" unicode="&#x41f;" horiz-adv-x="1503" 
d="M406 94l161 -12v-82h-479v78l162 26v1235l-162 13v82h1327v-78l-162 -27v-1235l162 -12v-82h-479v78l162 26v1221h-692v-1231z" />
    <glyph glyph-name="afii10034" unicode="&#x420;" horiz-adv-x="1224" 
d="M406 96l184 -6v-90h-502v78l162 26v1235l-162 13v82h557q214 0 344 -110q129 -110 129 -304q0 -192 -129 -302q-130 -110 -344 -110h-239v-512zM612 1325h-206v-606h215q49 0 102 6q55 6 82 12l29 6q4 4 15 14t16 15q20 19 53 90q32 70 32 158q0 149 -89 227
q-88 78 -249 78z" />
    <glyph glyph-name="afii10035" unicode="&#x421;" horiz-adv-x="1216" 
d="M1004 1034l-54 248q-89 53 -245 53q-79 0 -144 -16q-68 -17 -98 -33l-31 -16q-1 -1 -6.5 -7.5t-10.5 -11.5q-11 -11 -39 -59q-25 -44 -48 -105q-19 -53 -38 -155q-18 -99 -18 -211q0 -303 116 -463t323 -160q52 0 117 13q62 12 94 24l30 15l56 251h100l-23 -327
q-18 -11 -49 -26q-33 -16 -127 -40q-96 -24 -188 -24q-284 0 -450 196q-167 197 -167 539q0 340 168 535q169 196 457 196q94 0 184 -23q88 -22 127 -45l41 -22l25 -326h-102z" />
    <glyph glyph-name="afii10036" unicode="&#x422;" horiz-adv-x="1300" 
d="M727 94l162 -12v-82h-477v78l161 26v1221h-344l-49 -256h-102l24 365h1098l25 -365h-103l-49 256h-346v-1231z" />
    <glyph glyph-name="afii10037" unicode="&#x423;" horiz-adv-x="1361" 
d="M629 383l-461 956l-160 13v82h502v-78l-166 -25l328 -696q24 -50 39 -113h10q11 44 37 113l323 704l-161 13v82h434v-78l-156 -27l-418 -895q-133 -289 -208 -368q-75 -80 -214 -80q-52 0 -93 7q-47 8 -64 13l-19 6l29 150q86 -53 268 -53q67 81 150 274z" />
    <glyph glyph-name="afii10038" unicode="&#x424;" horiz-adv-x="1542" 
d="M96 717q0 244 144 363q143 118 454 130v129l-162 13v82h478v-78l-162 -27v-119q310 -11 455 -129t145 -364q0 -248 -145 -366t-455 -130v-127l162 -12v-82h-478v78l162 26v117q-308 12 -453 131t-145 365zM1288 717q0 186 -106 276q-107 90 -334 105v-764q82 2 156 12
q60 9 106 19l31 10q2 1 7 4.5t9 6.5q12 8 35 36q26 31 44 64q19 36 36 98q16 60 16 133zM256 717q0 -190 104 -279q105 -90 334 -102v762q-73 -1 -155 -13q-80 -11 -107 -20l-33 -8q-1 0 -6 -4t-9 -7q-12 -10 -34 -36q-24 -28 -44 -64t-35 -96q-15 -62 -15 -133z" />
    <glyph glyph-name="afii10039" unicode="&#x425;" horiz-adv-x="1409" 
d="M1182 1329l-379 -616l420 -619l153 -12v-82h-510v78l170 24l-315 488q-41 64 -41 65h-8q-20 -42 -39 -67l-320 -494l160 -12v-82h-442v78l159 26l416 637l-389 598l-156 13v82h510v-78l-174 -25l295 -469q28 -48 39 -67h8q8 19 35 69l285 475l-160 13v82h442v-78z" />
    <glyph glyph-name="afii10040" unicode="&#x426;" horiz-adv-x="1492" 
d="M1274 0h-1186v78l162 26v1235l-162 13v82h479v-78l-161 -27v-1220h677v1230l-159 13v82h477v-78l-162 -27v-1220h170v-428h-102z" />
    <glyph glyph-name="afii10041" unicode="&#x427;" horiz-adv-x="1392" 
d="M369 1329v-350q0 -135 70 -201q69 -65 220 -65q82 0 162 16t125 33l41 18v559l-160 13v82h478v-78l-162 -27v-1235l162 -12v-82h-478v78l160 26v570q-153 -72 -358 -72q-416 0 -416 365v372l-162 13v82h477v-78z" />
    <glyph glyph-name="afii10042" unicode="&#x428;" horiz-adv-x="2146" 
d="M1741 1339l-162 13v82h477v-78l-160 -27v-1235l160 -12v-82h-1968v78l162 26v1235l-162 13v82h479v-78l-161 -27v-1220h589v1230l-161 13v82h479v-78l-162 -27v-1220h590v1230z" />
    <glyph glyph-name="afii10043" unicode="&#x429;" horiz-adv-x="2150" 
d="M1929 0h-1841v78l162 26v1235l-162 13v82h479v-78l-161 -27v-1220h589v1230l-161 13v82h479v-78l-162 -27v-1220h590v1230l-162 13v82h477v-78l-160 -27v-1220h170v-428h-102z" />
    <glyph glyph-name="afii10044" unicode="&#x42a;" horiz-adv-x="1548" 
d="M385 78l162 26v1221h-318l-49 -256h-102l24 365h762v-78l-162 -27v-524h281q212 0 342 -107q129 -106 129 -295q0 -191 -129 -297q-128 -106 -344 -106h-596v78zM950 694h-248v-585h256q54 0 103 7q63 9 82 13l26 6q9 5 32 27q18 16 52 88q33 69 33 151q0 146 -89 220
q-88 73 -247 73z" />
    <glyph glyph-name="afii10045" unicode="&#x42b;" horiz-adv-x="1824" 
d="M250 1339l-162 13v82h479v-78l-161 -27v-524h278q214 0 344 -107q129 -106 129 -295q0 -191 -129 -297q-128 -106 -344 -106h-596v78l162 26v1235zM653 694h-247v-585h256q52 0 101 7q60 9 81 13l28 6q9 5 32 27q18 16 52 88q33 69 33 151q0 146 -89 220q-88 73 -247 73z
M1573 94l162 -12v-82h-478v78l162 26v1235l-162 13v82h478v-78l-162 -27v-1235z" />
    <glyph glyph-name="afii10046" unicode="&#x42c;" horiz-adv-x="1251" 
d="M250 1339l-162 13v82h479v-78l-161 -27v-524h278q214 0 344 -107q129 -106 129 -295q0 -191 -129 -297q-128 -106 -344 -106h-596v78l162 26v1235zM653 694h-247v-585h256q52 0 101 7q60 9 81 13l28 6q9 5 32 27q18 16 52 88q33 69 33 151q0 146 -89 220q-88 73 -247 73z
" />
    <glyph glyph-name="afii10047" unicode="&#x42d;" horiz-adv-x="1216" 
d="M211 399l53 -247q93 -54 246 -54q73 0 144 17q74 18 100 32l30 17l17 17q8 9 37 56q26 42 48 97q23 57 40 144q19 94 20 194h-383l-26 -172h-86v454h86l26 -172h381q-15 269 -130 411t-308 142q-58 0 -119 -12q-58 -11 -92 -25l-33 -14l-53 -252h-103l25 328q6 4 49 25
q33 17 127 40q100 25 189 25q280 0 448 -197t168 -538t-168 -536t-457 -195q-99 0 -186 22q-89 22 -129 45l-39 23l-24 325h102z" />
    <glyph glyph-name="afii10048" unicode="&#x42e;" horiz-adv-x="1892" 
d="M406 94l161 -12v-82h-479v78l162 26v1235l-162 13v82h479v-78l-161 -27v-547h294q15 311 162 490q147 178 383 178q245 0 395 -198t150 -535q0 -338 -150 -536q-149 -197 -395 -197q-240 0 -388 184q-149 184 -159 504h-292v-578zM866 717q0 -302 103 -461
q102 -158 284 -158q55 0 111 15q60 16 82 26l29 15q6 5 16 19q11 13 36 63q27 52 45 108q20 61 36 160q16 97 16 215q0 301 -102 459q-102 157 -285 157q-59 0 -112 -14q-58 -15 -85 -31l-28 -14q-7 -7 -16 -19q-7 -10 -34 -60q-29 -54 -46 -106q-19 -56 -34 -159
q-16 -107 -16 -215z" />
    <glyph glyph-name="afii10049" unicode="&#x42f;" horiz-adv-x="1267" 
d="M1018 94l162 -12v-82h-480v78l162 26v545h-233l-324 -649h-274v82l157 12l291 561q-170 24 -269 126t-99 257q0 182 131 289t342 107h596v-78l-162 -27v-1235zM614 760h248v565h-256q-52 0 -101 -7q-60 -9 -81 -13l-29 -7q-12 -8 -31 -25q-21 -19 -53 -82t-32 -144
q0 -144 88 -216q87 -71 247 -71z" />
    <glyph glyph-name="afii10065" unicode="&#x430;" horiz-adv-x="1105" 
d="M111 242q0 129 77 210q78 83 238 101l326 39v131q0 123 -52 183q-51 59 -182 59q-57 0 -108 -12q-55 -13 -74 -23l-23 -10l-26 -170h-109v241q6 3 40 23q23 14 115 37q87 22 189 22q204 0 293 -90q88 -89 88 -276v-531q0 -76 76 -76h78l10 -69q-51 -39 -145 -39
q-144 0 -166 123q-150 -129 -361 -129q-141 0 -213 66q-71 65 -71 190zM254 260q0 -164 190 -164q168 0 308 113v299l-430 -74q-68 -62 -68 -174z" />
    <glyph glyph-name="afii10066" unicode="&#x431;" horiz-adv-x="1153" 
d="M289 1182q-40 -102 -41 -308l4 3q140 192 366 192q187 0 311 -142t124 -403q0 -253 -125 -396q-124 -142 -350 -142q-231 0 -345 170q-114 169 -114 571q0 167 18 288q17 116 60 197q39 74 84 122t114 71q75 25 125 35q25 5 143 21q89 12 144 24q42 29 59 80l82 -33
q-16 -71 -77 -115q-58 -42 -141 -62q-88 -21 -164 -35q-84 -15 -160 -49q-79 -35 -117 -89zM588 965q-167 0 -301 -148q-6 -85 -6 -153q0 -307 82 -437q83 -131 235 -131q43 0 88 9q35 7 68 18l24 8q11 11 32 40q19 26 51 130t32 225q0 217 -82 327q-83 112 -223 112z" />
    <glyph glyph-name="afii10067" unicode="&#x432;" horiz-adv-x="1112" 
d="M92 0v76l141 26v867l-141 12v78h531q162 0 254 -71t92 -195q0 -166 -148 -238q195 -67 195 -258q0 -140 -103 -219q-102 -78 -276 -78h-545zM629 500h-244v-398h244q48 0 102 7q45 6 68 14l20 6q43 49 43 158q0 213 -233 213zM616 958h-231v-358h231q51 0 90 7t60 14
l16 6q39 43 39 141q0 190 -205 190z" />
    <glyph glyph-name="afii10068" unicode="&#x433;" horiz-adv-x="976" 
d="M758 958h-373v-866l205 -6v-86h-498v76l141 26v867l-141 12v78h799v-293h-107z" />
    <glyph glyph-name="afii10069" unicode="&#x434;" horiz-adv-x="1234" 
d="M1016 0h-799q-3 0 -5 -1t-5 -1l-33 -277h-102v381h153q6 6 20 27q11 16 34 83q19 54 39 153q16 80 32 247q15 159 15 357l-142 12v78h918v-74l-144 -27v-856h154v-381h-102zM477 958q0 -639 -133 -856h504v856h-371z" />
    <glyph glyph-name="afii10070" unicode="&#x435;" horiz-adv-x="1077" 
d="M918 168l30 -84q-16 -10 -45 -27q-30 -17 -119 -44q-90 -27 -182 -27q-226 0 -363 143q-139 145 -139 395t133 399q133 150 345 150q197 0 305 -137q109 -138 94 -387l-49 -35h-668q0 -212 101 -314q102 -104 266 -104q70 0 142 18q74 19 112 36zM375 924
q-13 -13 -32 -38q-19 -26 -51 -111q-32 -87 -32 -179l580 20q1 167 -71 258q-73 91 -202 91q-45 0 -95 -11q-55 -12 -73 -20z" />
    <glyph glyph-name="afii10072" unicode="&#x436;" horiz-adv-x="1601" 
d="M471 563l-295 395l-137 27v74h407v-78l-133 -12l271 -363l141 -16v379l-141 12v78h434v-74l-141 -27v-368l141 16l270 363l-133 12v78h408v-74l-138 -27l-295 -395l306 -473l135 -12v-78h-244l-319 496h-131v-406l141 -12v-78h-434v76l141 26v394h-131l-320 -496h-243v78
l135 12z" />
    <glyph glyph-name="afii10073" unicode="&#x437;" horiz-adv-x="999" 
d="M481 96q62 0 112 7q52 7 79 14l24 6q52 50 52 164q0 211 -232 211h-133l-16 16v84h137q47 0 89 6t60 12l19 7q37 55 37 141q0 201 -248 201q-50 0 -102 -10q-47 -9 -64 -19l-16 -10l-25 -176h-111v243q20 12 38 22q25 13 115 36q87 22 187 22q186 0 280 -71
q93 -71 93 -199q0 -181 -147 -248q192 -66 192 -266q0 -148 -109 -226q-108 -77 -317 -77q-110 0 -193 20q-91 22 -122 41l-33 21v241h111l24 -168q63 -45 219 -45z" />
    <glyph glyph-name="afii10074" unicode="&#x438;" horiz-adv-x="1292" 
d="M526 985l-141 -27v-622q0 -51 -8 -80h10q18 46 45 80l475 608v25l-141 12v78h434v-74l-141 -27v-868l141 -12v-78h-434v76l141 26v621q0 47 8 82h-10q-12 -38 -45 -82l-475 -608v-25l141 -12v-78h-434v76l141 26v867l-141 12v78h434v-74z" />
    <glyph glyph-name="afii10075" unicode="&#x439;" horiz-adv-x="1292" 
d="M645 1245q-71 0 -131 22q-56 21 -86 52q-26 27 -46 61q-17 28 -22 54l-4 20l109 12q1 -27 15 -54q13 -26 58 -57q44 -30 107 -30q50 0 86 16q35 16 56 41t29 45q10 22 11 39l107 -12q0 -7 -3 -22q-2 -12 -22 -51q-18 -35 -47 -63t-86 -50q-58 -23 -131 -23zM526 985
l-141 -27v-622q0 -51 -8 -80h10q18 46 45 80l475 608v25l-141 12v78h434v-74l-141 -27v-868l141 -12v-78h-434v76l141 26v621q0 47 8 82h-10q-12 -38 -45 -82l-475 -608v-25l141 -12v-78h-434v76l141 26v867l-141 12v78h434v-74z" />
    <glyph glyph-name="afii10076" unicode="&#x43a;" horiz-adv-x="1153" 
d="M377 90l141 -12v-78h-434v76l143 26v867l-143 12v78h434v-74l-141 -27v-368l162 16l295 363l-138 12v78h408v-74l-137 -27l-320 -395l340 -473l135 -12v-78h-245l-357 496h-143v-406z" />
    <glyph glyph-name="afii10077" unicode="&#x43b;" horiz-adv-x="1222" 
d="M365 969l-142 12v78h907v-74l-143 -27v-868l143 -12v-78h-436v76l144 26v856h-361q0 -505 -81 -739q-81 -233 -253 -233q-28 0 -53 4q-31 5 -45 10l-16 4l18 135q51 -33 184 -33q9 9 15 21q10 20 32 79q20 53 40 151q16 79 32 250q15 163 15 362z" />
    <glyph glyph-name="afii10078" unicode="&#x43c;" horiz-adv-x="1462" 
d="M1356 985l-142 -27l58 -868l141 -12v-78h-434v76l141 26l-43 650q-6 59 0 120h-10q-11 -63 -33 -120l-248 -662h-133l-18 16l-250 646q-26 73 -31 120h-10q2 -51 -2 -120l-43 -662l143 -12v-78h-393v76l141 26l56 867l-142 12v78h312l280 -707q27 -85 33 -116h8
q6 45 29 116l283 707h307v-74z" />
    <glyph glyph-name="afii10079" unicode="&#x43d;" horiz-adv-x="1292" 
d="M526 985l-141 -27v-354h522v365l-141 12v78h434v-74l-141 -27v-868l141 -12v-78h-434v76l141 26v396h-522v-408l141 -12v-78h-434v76l141 26v867l-141 12v78h434v-74z" />
    <glyph glyph-name="afii10080" unicode="&#x43e;" horiz-adv-x="1142" 
d="M100 530q0 256 130 399q130 144 343 144t342 -145t129 -398q0 -254 -129 -399t-342 -145t-343 145t-130 399zM262 535q0 -213 84 -326t236 -113q44 0 90 9q35 7 71 18l25 8q11 11 32 40q19 26 51 130t32 225q0 216 -84 327q-85 112 -236 112q-40 0 -92 -10
q-46 -9 -72 -17l-24 -10q-15 -15 -31 -39q-19 -28 -50 -129q-32 -104 -32 -225z" />
    <glyph glyph-name="afii10081" unicode="&#x43f;" horiz-adv-x="1292" 
d="M233 969l-141 12v78h1108v-74l-141 -27v-868l141 -12v-78h-434v76l141 26v856h-522v-868l141 -12v-78h-434v76l141 26v867z" />
    <glyph glyph-name="afii10082" unicode="&#x440;" horiz-adv-x="1185" 
d="M74 979v72l272 22l16 -16l-8 -117l6 -6q123 139 310 139q180 0 298 -141q117 -139 117 -387q0 -260 -129 -410q-128 -149 -354 -149q-124 0 -235 51v-416l204 -6v-86h-497v76l143 26v1305zM926 516q0 223 -82 333q-83 112 -226 112q-157 0 -251 -127v-680q93 -58 241 -58
q60 0 109 10q52 11 74 21l20 10q14 14 32 39q20 28 51 125q32 101 32 215z" />
    <glyph glyph-name="afii10083" unicode="&#x441;" horiz-adv-x="1036" 
d="M811 750l-25 170q-76 45 -206 45q-54 0 -111 -13q-58 -13 -78 -22l-24 -12q-11 -11 -30 -38q-16 -22 -47 -121q-30 -95 -30 -210q0 -453 354 -453q72 0 144 18q71 18 106 36l37 18l31 -84q-4 -3 -44 -27q-27 -17 -117 -44q-89 -27 -179 -27q-225 0 -358 143
q-134 145 -134 399q0 246 129 396q128 149 367 149q90 0 167 -20q85 -22 120 -41l39 -19v-243h-111z" />
    <glyph glyph-name="afii10084" unicode="&#x442;" horiz-adv-x="1105" 
d="M889 958h-260v-868l141 -12v-78h-434v76l141 26v856h-260l-27 -192h-106v293h936v-293h-105z" />
    <glyph glyph-name="afii10085" unicode="&#x443;" horiz-adv-x="1200" 
d="M551 -23l-397 992l-140 12v78h457v-74l-149 -24l272 -695q17 -46 33 -112h10q12 61 33 112l254 703l-144 12v78h402v-74l-135 -27l-361 -958q-111 -292 -191 -388q-81 -97 -227 -97q-37 0 -80 5q-37 4 -57 11l-20 6l24 144q79 -41 260 -41q110 144 156 337z" />
    <glyph glyph-name="afii10086" unicode="&#x444;" horiz-adv-x="1581" 
d="M1004 -14q-81 0 -140 20v-428l144 -12v-78h-437v82l142 27v409q-59 -20 -138 -20q-215 0 -345 145t-130 399q0 256 130 399q130 144 350 144q67 0 133 -18v358l-142 41v74l277 22l16 -18v-483q66 24 144 24q213 0 342 -145t129 -400q0 -252 -129 -397t-346 -145zM999 965
q-69 0 -135 -21v-809q60 -39 150 -39q48 0 94 9q38 7 72 18l24 8q11 11 32 40q19 26 51 130t32 225q0 216 -84 327q-85 112 -236 112zM262 535q0 -213 84 -326t236 -113q60 0 131 17v813q-60 39 -146 39q-42 0 -95 -10q-46 -9 -73 -17l-24 -10q-15 -15 -31 -39
q-19 -28 -50 -129q-32 -104 -32 -225z" />
    <glyph glyph-name="afii10087" unicode="&#x445;" 
d="M967 958l-287 -432l319 -436l134 -12v-78h-457v76l149 24l-217 308q-36 49 -41 61h-10q-13 -25 -37 -61l-223 -318l141 -12v-78h-401v76l139 26l313 449l-294 418l-136 12v78h459v-74l-149 -24l196 -293q33 -45 41 -64h6l35 66l199 299l-144 12v78h402v-74z" />
    <glyph glyph-name="afii10088" unicode="&#x446;" horiz-adv-x="1292" 
d="M1073 0h-981v76l141 26v867l-141 12v78h434v-74l-141 -27v-856h518v867l-141 12v78h434v-74l-141 -27v-856h153v-381h-102z" />
    <glyph glyph-name="afii10089" unicode="&#x447;" horiz-adv-x="1208" 
d="M1116 985l-141 -27v-868l141 -12v-78h-436v76l143 26v394q-157 -86 -336 -86q-297 0 -297 295v264l-141 12v78h434v-74l-141 -27v-249q0 -105 48 -146q49 -41 157 -41q154 0 276 68v379l-141 12v78h434v-74z" />
    <glyph glyph-name="afii10090" unicode="&#x448;" horiz-adv-x="1812" 
d="M1579 90l141 -12v-78h-1628v76l141 26v867l-141 12v78h432v-74l-139 -27v-856h446v867l-139 12v78h428v-74l-139 -27v-856h446v867l-139 12v78h432v-74l-141 -27v-868z" />
    <glyph glyph-name="afii10091" unicode="&#x449;" horiz-adv-x="1816" 
d="M1595 0h-1503v76l141 26v867l-141 12v78h432v-74l-139 -27v-856h446v867l-139 12v78h428v-74l-139 -27v-856h446v867l-139 12v78h432v-74l-141 -27v-856h152v-381h-103z" />
    <glyph glyph-name="afii10092" unicode="&#x44a;" horiz-adv-x="1312" 
d="M84 1059h664v-74l-142 -27v-348h228q178 0 280 -81q103 -82 103 -222q0 -145 -104 -226q-103 -81 -279 -81h-521v76l142 26v856h-238l-27 -192h-106v293zM827 510h-221v-408h221q48 0 104 7q44 6 68 14l21 6q45 53 45 162q0 219 -238 219z" />
    <glyph glyph-name="afii10093" unicode="&#x44b;" horiz-adv-x="1599" 
d="M92 0v76l141 26v867l-141 12v78h434v-74l-141 -27v-348h227q179 0 281 -81t102 -222q0 -145 -103 -226q-104 -81 -280 -81h-520zM606 510h-221v-408h221q49 0 103 7q44 6 67 14l21 6q47 53 47 162q0 219 -238 219zM1507 985l-141 -27v-868l141 -12v-78h-434v76l141 26
v867l-141 12v78h434v-74z" />
    <glyph glyph-name="afii10094" unicode="&#x44c;" horiz-adv-x="1089" 
d="M92 0v76l141 26v867l-141 12v78h434v-74l-141 -27v-348h227q179 0 281 -81t102 -222q0 -145 -103 -226q-104 -81 -280 -81h-520zM606 510h-221v-408h221q49 0 103 7q44 6 67 14l21 6q47 53 47 162q0 219 -238 219z" />
    <glyph glyph-name="afii10095" unicode="&#x44d;" horiz-adv-x="1040" 
d="M379 494v100h403q-15 198 -107 284q-93 87 -237 87q-45 0 -97 -10q-47 -9 -67 -19l-20 -10l-25 -176h-110v243q131 80 334 80q231 0 359 -135q128 -136 128 -393q0 -258 -128 -409q-128 -150 -366 -150q-91 0 -170 20q-83 21 -120 41l-37 21v241h110l25 -168
q80 -45 207 -45q57 0 111 12q59 13 79 23l25 10q14 12 29 34q18 26 47 115q29 90 34 204h-407z" />
    <glyph glyph-name="afii10096" unicode="&#x44e;" horiz-adv-x="1599" 
d="M526 985l-141 -27v-354h221q18 221 139 345t310 124q204 0 327 -144t123 -399q0 -254 -123 -399t-327 -145q-200 0 -321 136q-123 138 -130 376h-219v-408l141 -12v-78h-434v76l141 26v867l-141 12v78h434v-74zM764 537q0 -219 79 -329q80 -112 226 -112q43 0 86 9
q32 7 66 18l20 8q16 20 30 41q18 26 46 128q29 104 29 224q0 217 -80 329t-226 112q-38 0 -86 -10q-37 -8 -65 -17l-23 -10q-9 -9 -28 -40q-16 -27 -45 -128q-29 -102 -29 -223z" />
    <glyph glyph-name="afii10097" unicode="&#x44f;" horiz-adv-x="1128" 
d="M57 78l136 12l196 393q-121 24 -190 99q-68 74 -68 184q0 140 103 216q104 77 280 77h522v-74l-143 -27v-868l143 -12v-78h-436v76l143 26v371h-221l-219 -473h-246v78zM283 780q0 -207 239 -207h221v385h-221q-55 0 -103 -6q-46 -6 -69 -14l-20 -6q-47 -50 -47 -152z
" />
    <glyph glyph-name="uni0450" unicode="&#x450;" horiz-adv-x="1077" 
d="M918 168l30 -84q-16 -10 -45 -27q-30 -17 -119 -44q-90 -27 -182 -27q-226 0 -363 143q-139 145 -139 395t133 399q133 150 345 150q197 0 305 -137q109 -138 94 -387l-49 -35h-668q0 -212 101 -314q102 -104 266 -104q70 0 142 18q74 19 112 36zM375 924
q-13 -13 -32 -38q-19 -26 -51 -111q-32 -87 -32 -179l580 20q1 167 -71 258q-73 91 -202 91q-45 0 -95 -11q-55 -12 -73 -20zM272 1436l101 100l264 -295l-68 -37z" />
    <glyph glyph-name="afii10071" unicode="&#x451;" horiz-adv-x="1077" 
d="M272 1368q0 43 26 69q25 25 67 25q43 0 68 -25q26 -26 26 -69q0 -40 -26 -68q-25 -26 -68 -26q-42 0 -67 26q-26 28 -26 68zM657 1368q0 43 26 69q25 25 69 25q41 0 67 -25q27 -25 27 -69q0 -41 -27 -68q-26 -26 -67 -26q-44 0 -69 26q-26 28 -26 68zM918 168l30 -84
q-16 -10 -45 -27q-30 -17 -119 -44q-90 -27 -182 -27q-226 0 -363 143q-139 145 -139 395t133 399q133 150 345 150q197 0 305 -137q109 -138 94 -387l-49 -35h-668q0 -212 101 -314q102 -104 266 -104q70 0 142 18q74 19 112 36zM375 924q-13 -13 -32 -38q-19 -26 -51 -111
q-32 -87 -32 -179l580 20q1 167 -71 258q-73 91 -202 91q-45 0 -95 -11q-55 -12 -73 -20z" />
    <glyph glyph-name="afii10099" unicode="&#x452;" horiz-adv-x="1253" 
d="M84 1245v82l149 19l23 190h121v-190h334v-101h-334v-186l-8 -109l6 -4q167 127 379 127q159 0 228 -81t69 -247v-743q0 -268 -84 -378q-84 -109 -256 -109q-36 0 -83 5q-43 5 -65 9l-22 6l20 131q77 -41 168 -41q23 0 55 5q20 3 43 10l15 4q57 92 57 358v733
q0 119 -45 173q-46 55 -160 55q-178 0 -317 -111v-762l143 -12v-78h-436v76l143 26v1143h-143z" />
    <glyph glyph-name="afii10100" unicode="&#x453;" horiz-adv-x="976" 
d="M379 1241l266 295l100 -100l-299 -232zM758 958h-373v-866l205 -6v-86h-498v76l141 26v867l-141 12v78h799v-293h-107z" />
    <glyph glyph-name="afii10101" unicode="&#x454;" horiz-adv-x="1036" 
d="M811 750l-25 170q-76 45 -204 45q-56 0 -114 -13t-79 -22l-24 -12q-11 -10 -27 -33q-15 -21 -46 -107q-30 -84 -36 -184h506v-100h-506q12 -216 111 -307q98 -91 249 -91q70 0 142 18q71 18 106 36l37 18l31 -84q-4 -3 -44 -27q-27 -17 -117 -44q-89 -27 -179 -27
q-225 0 -358 143q-134 145 -134 399q0 246 129 396q128 149 367 149q90 0 167 -20q85 -22 120 -41l39 -19v-243h-111z" />
    <glyph glyph-name="afii10102" unicode="&#x455;" horiz-adv-x="968" 
d="M723 266q0 47 -18 80q-17 31 -59 56q-39 23 -76 37q-42 16 -99 32q-29 8 -35 10q-71 22 -121 44q-42 18 -94 56q-49 36 -73 88q-23 50 -23 126q0 280 352 280q100 0 177 -20q85 -22 116 -41l33 -21v-239h-109l-26 170q-63 45 -195 45q-48 0 -90 -7q-40 -7 -68 -16l-22 -6
q-37 -55 -37 -127q0 -40 15 -70t35 -50q18 -18 64 -40q38 -18 72 -29q28 -9 90 -30q83 -28 125 -45q46 -18 98 -54q51 -35 74 -87t23 -125q0 -297 -389 -297q-102 0 -185 19q-87 20 -120 40l-35 18v240h108l27 -170q73 -41 213 -41q57 0 106 7q46 7 76 16l25 6q45 63 45 145
z" />
    <glyph glyph-name="afii10103" unicode="&#x456;" horiz-adv-x="598" 
d="M88 979v72l277 22l16 -16v-967l143 -12v-78h-436v76l141 26v834zM176 1413q0 52 32 82q33 31 81 31q51 0 82 -31q30 -30 30 -82q0 -50 -30 -80t-82 -30q-49 0 -81 30t-32 80z" />
    <glyph glyph-name="afii10104" unicode="&#x457;" horiz-adv-x="598" 
d="M0 1368q0 43 26 69q25 25 66 25q44 0 69 -25t25 -69q0 -42 -25 -68t-69 -26q-41 0 -66 26q-26 28 -26 68zM385 1368q0 43 26 69q25 25 68 25q42 0 68 -25t26 -69q0 -42 -26 -68t-68 -26q-43 0 -68 26q-26 28 -26 68zM88 979v72l277 22l16 -16v-967l143 -12v-78h-436v76
l141 26v834z" />
    <glyph glyph-name="afii10105" unicode="&#x458;" horiz-adv-x="563" 
d="M172 1413q0 52 32 82q33 31 81 31q51 0 82 -31q30 -30 30 -82q0 -50 -30 -80t-82 -30q-49 0 -81 30t-32 80zM84 979v72l276 22l17 -16v-1055q0 -268 -84 -378q-84 -109 -256 -109q-36 0 -83 5q-43 5 -65 9l-22 6l22 131q74 -41 166 -41q27 0 57 5q19 3 42 10l14 4
q59 90 59 358v934z" />
    <glyph glyph-name="afii10106" unicode="&#x459;" horiz-adv-x="1683" 
d="M1217 0h-523v76l144 26v856h-361q0 -505 -81 -739q-81 -233 -253 -233q-28 0 -53 4q-31 5 -45 10l-16 4l18 135q51 -33 184 -33q9 9 15 21q10 20 32 79q20 53 40 151q16 79 32 250q15 163 15 362l-142 12v78h907v-74l-143 -27v-348h230q177 0 278 -81q100 -81 100 -224
q0 -145 -102 -225q-103 -80 -276 -80zM1208 510h-221v-408h221q47 0 101 7q44 6 67 14l21 6q47 53 47 162q0 219 -236 219z" />
    <glyph glyph-name="afii10107" unicode="&#x45a;" horiz-adv-x="1753" 
d="M1286 0h-520v76l141 26v408h-522v-420l141 -12v-78h-434v76l141 26v867l-141 12v78h434v-74l-141 -27v-348h522v359l-141 12v78h434v-74l-141 -27v-348h227q178 0 279 -81q100 -81 100 -224q0 -145 -102 -225q-103 -80 -277 -80zM1278 510h-219v-408h219q48 0 102 7
q47 6 66 14l20 6q47 53 47 162q0 219 -235 219z" />
    <glyph glyph-name="afii10108" unicode="&#x45b;" horiz-adv-x="1253" 
d="M84 1245v82l149 19l23 190h121v-190h334v-101h-334v-186l-8 -109l6 -4q167 127 379 127q159 0 228 -81t69 -247v-655l141 -12v-78h-434v76l141 26v633q0 119 -45 173q-46 55 -160 55q-178 0 -317 -111v-762l143 -12v-78h-436v76l143 26v1143h-143z" />
    <glyph glyph-name="afii10109" unicode="&#x45c;" horiz-adv-x="1153" 
d="M377 90l141 -12v-78h-434v76l143 26v867l-143 12v78h434v-74l-141 -27v-368l162 16l295 363l-138 12v78h408v-74l-137 -27l-320 -395l340 -473l135 -12v-78h-245l-357 496h-143v-406zM473 1241l266 295l101 -100l-299 -232z" />
    <glyph glyph-name="uni045D" unicode="&#x45d;" horiz-adv-x="1292" 
d="M412 1436l100 100l264 -295l-67 -37zM526 985l-141 -27v-622q0 -51 -8 -80h10q18 46 45 80l475 608v25l-141 12v78h434v-74l-141 -27v-868l141 -12v-78h-434v76l141 26v621q0 47 8 82h-10q-12 -38 -45 -82l-475 -608v-25l141 -12v-78h-434v76l141 26v867l-141 12v78h434
v-74z" />
    <glyph glyph-name="afii10110" unicode="&#x45e;" horiz-adv-x="1200" 
d="M610 1245q-71 0 -131 22q-56 21 -86 52q-26 27 -46 61q-15 26 -21 54l-4 20l108 12q2 -27 15 -54q13 -26 58 -57q43 -30 107 -30t108 30t57 57q15 29 16 54l108 -12q0 -9 -4 -22q-4 -12 -23 -51q-17 -34 -46 -63q-27 -27 -85 -50t-131 -23zM551 -23l-397 992l-140 12v78
h457v-74l-149 -24l272 -695q17 -46 33 -112h10q12 61 33 112l254 703l-144 12v78h402v-74l-135 -27l-361 -958q-111 -292 -191 -388q-81 -97 -227 -97q-37 0 -80 5q-37 4 -57 11l-20 6l24 144q79 -41 260 -41q110 144 156 337z" />
    <glyph glyph-name="afii10193" unicode="&#x45f;" horiz-adv-x="1292" 
d="M580 0h-488v76l141 26v867l-141 12v78h434v-74l-141 -27v-856h522v867l-141 12v78h434v-74l-141 -27v-868l141 -12v-78h-485l-17 -279h-102z" />
    <glyph glyph-name="afii10050" unicode="&#x490;" horiz-adv-x="1075" 
d="M844 1434l49 256h102l-24 -365h-565v-1229l184 -6v-90h-502v78l162 26v1235l-162 13v82h756z" />
    <glyph glyph-name="afii10098" unicode="&#x491;" horiz-adv-x="907" 
d="M385 958v-866l205 -6v-86h-498v76l141 26v867l-141 12v78h598l25 203h106v-304h-436z" />
    <glyph glyph-name="uni04D8" unicode="&#x4d8;" horiz-adv-x="1253" 
d="M1151 711q0 -337 -159 -532t-421 -195q-264 0 -381 196t-73 531l53 37h813q-1 286 -117 438q-113 149 -317 149q-61 0 -123 -12q-54 -11 -94 -25l-31 -14l-53 -252h-103l25 328q6 4 49 25q33 17 127 40q100 25 189 25q280 0 448 -198t168 -541zM827 156q10 10 16 18
q12 16 35 58q26 46 45 99q16 44 36 139q17 84 22 181l-715 -20q-33 -252 55 -393q87 -140 267 -140q58 0 118 15q70 17 91 28z" />
    <glyph glyph-name="afii10846" unicode="&#x4d9;" horiz-adv-x="1077" 
d="M162 891l-33 84q5 3 11.5 7t16.5 9.5t17 9.5q33 19 119 45q90 27 182 27q227 0 364 -143q138 -144 138 -393q0 -252 -133 -401q-134 -150 -344 -150q-196 0 -304 137t-96 389l50 35h669q-1 211 -103 313q-103 103 -265 103q-67 0 -143 -19q-68 -17 -109 -35zM702 135
q4 5 15 18t17 21q18 23 51 111q32 87 32 178l-577 -21q-2 -170 69 -257q72 -89 201 -89q47 0 95 9t73 20z" />
    <glyph glyph-name="Wgrave" unicode="&#x1e80;" horiz-adv-x="2113" 
d="M752 0h-148l-20 20l-412 1315l-164 17v82h510v-78l-166 -23l303 -1050q26 -86 31 -115h10q6 28 27 115l297 1130h147l308 -1130q1 -3 5.5 -21.5t9.5 -34.5q2 -5 15 -59h8q1 4 5 19.5t10.5 41.5l13.5 54l285 1056l-160 13v82h436v-78l-159 -27l-379 -1329h-148l-20 20
l-299 1096q-22 68 -23 105h-10q-5 -33 -21 -105zM854 1755l100 100l265 -294l-68 -37z" />
    <glyph glyph-name="wgrave" unicode="&#x1e81;" horiz-adv-x="1716" 
d="M627 0h-140l-18 18l-311 947l-144 16v78h457v-74l-147 -20l204 -682q26 -86 31 -115h10q5 28 27 115l221 766h135l224 -766q1 -7 14 -51q11 -37 16 -64h8q1 4 5 19.5t10.5 41.5l13.5 54l199 686l-144 12v78h400v-74l-137 -27l-293 -958h-140l-16 18l-217 723
q-13 43 -25 103h-8q-7 -51 -22 -103zM645 1436l100 100l267 -295l-68 -37z" />
    <glyph glyph-name="Wacute" unicode="&#x1e82;" horiz-adv-x="2113" 
d="M752 0h-148l-20 20l-412 1315l-164 17v82h510v-78l-166 -23l303 -1050q26 -86 31 -115h10q6 28 27 115l297 1130h147l308 -1130q1 -3 5.5 -21.5t9.5 -34.5q2 -5 15 -59h8q1 4 5 19.5t10.5 41.5l13.5 54l285 1056l-160 13v82h436v-78l-159 -27l-379 -1329h-148l-20 20
l-299 1096q-22 68 -23 105h-10q-5 -33 -21 -105zM965 1561l264 294l100 -100l-297 -231z" />
    <glyph glyph-name="wacute" unicode="&#x1e83;" horiz-adv-x="1716" 
d="M627 0h-140l-18 18l-311 947l-144 16v78h457v-74l-147 -20l204 -682q26 -86 31 -115h10q5 28 27 115l221 766h135l224 -766q1 -7 14 -51q11 -37 16 -64h8q1 4 5 19.5t10.5 41.5l13.5 54l199 686l-144 12v78h400v-74l-137 -27l-293 -958h-140l-16 18l-217 723
q-13 43 -25 103h-8q-7 -51 -22 -103zM760 1241l264 295l100 -100l-299 -232z" />
    <glyph glyph-name="Wdieresis" unicode="&#x1e84;" horiz-adv-x="2113" 
d="M752 0h-148l-20 20l-412 1315l-164 17v82h510v-78l-166 -23l303 -1050q26 -86 31 -115h10q6 28 27 115l297 1130h147l308 -1130q1 -3 5.5 -21.5t9.5 -34.5q2 -5 15 -59h8q1 4 5 19.5t10.5 41.5l13.5 54l285 1056l-160 13v82h436v-78l-159 -27l-379 -1329h-148l-20 20
l-299 1096q-22 68 -23 105h-10q-5 -33 -21 -105zM807 1677q0 43 26 69t66 26q43 0 69 -26q25 -25 25 -69q0 -41 -25 -67q-26 -27 -69 -27q-41 0 -66 27q-26 28 -26 67zM1192 1677q0 43 26 69t68 26q40 0 68 -26q26 -25 26 -69q0 -41 -26 -67q-27 -27 -68 -27q-42 0 -68 27
q-26 28 -26 67z" />
    <glyph glyph-name="wdieresis" unicode="&#x1e85;" horiz-adv-x="1716" 
d="M627 0h-140l-18 18l-311 947l-144 16v78h457v-74l-147 -20l204 -682q26 -86 31 -115h10q5 28 27 115l221 766h135l224 -766q1 -7 14 -51q11 -37 16 -64h8q1 4 5 19.5t10.5 41.5l13.5 54l199 686l-144 12v78h400v-74l-137 -27l-293 -958h-140l-16 18l-217 723
q-13 43 -25 103h-8q-7 -51 -22 -103zM598 1368q0 43 26 69q25 25 68 25q42 0 68 -25t26 -69q0 -42 -26 -68t-68 -26q-43 0 -68 26q-26 28 -26 68zM983 1368q0 44 27 69q26 25 67 25q44 0 69 -25t25 -69q0 -42 -25 -68t-69 -26q-41 0 -67 26q-27 27 -27 68z" />
    <glyph glyph-name="Ygrave" unicode="&#x1ef2;" horiz-adv-x="1368" 
d="M1178 1329l-408 -690v-545l162 -12v-82h-477v78l161 26v531l-430 704l-155 13v82h508v-78l-168 -25l305 -514q34 -56 41 -74h10q12 31 37 74l291 522l-160 13v82h440v-78zM438 1755l101 100l266 -294l-68 -37z" />
    <glyph glyph-name="ygrave" unicode="&#x1ef3;" horiz-adv-x="1200" 
d="M551 -23l-397 992l-140 12v78h457v-74l-149 -24l272 -695q17 -46 33 -112h10q12 61 33 112l254 703l-144 12v78h402v-74l-135 -27l-361 -958q-111 -292 -191 -388q-81 -97 -227 -97q-37 0 -80 5q-37 4 -57 11l-20 6l24 144q79 -41 260 -41q110 144 156 337zM360 1436
l101 100l264 -295l-68 -37z" />
    <glyph glyph-name="endash" unicode="&#x2013;" horiz-adv-x="1026" 
d="M117 584v102h792v-102h-792z" />
    <glyph glyph-name="emdash" unicode="&#x2014;" horiz-adv-x="1538" 
d="M117 584v102h1304v-102h-1304z" />
    <glyph glyph-name="quoteleft" unicode="&#x2018;" horiz-adv-x="430" 
d="M324 1501l28 -43q-16 -10 -39 -30q-21 -18 -59 -76q-37 -56 -35 -111q40 -1 65 -30q23 -26 23 -70t-27 -71q-28 -28 -73 -28q-103 0 -103 134q0 59 23 116q22 54 54 92t65 65q37 31 55 40z" />
    <glyph glyph-name="quoteright" unicode="&#x2019;" horiz-adv-x="430" 
d="M111 1034l-29 43q16 11 39 30q19 17 59 77q37 56 35 110q-40 1 -65 30q-25 28 -25 69q0 45 29 72q30 28 73 28q103 0 103 -133q0 -60 -23 -117q-22 -54 -54 -92t-65 -65q-34 -28 -55 -39z" />
    <glyph glyph-name="quotesinglbase" unicode="&#x201a;" horiz-adv-x="430" 
d="M100 -125l-28 41l6 4q5 4 9 7q12 10 33 31q20 20 41 48q14 19 32 60q14 31 12 69q-41 2 -66 30q-24 27 -24 68q0 44 28 72q29 29 74 29q102 0 102 -133q0 -63 -22 -117q-22 -55 -55 -92q-33 -38 -65 -65q-35 -30 -54 -40z" />
    <glyph glyph-name="quotedblleft" unicode="&#x201c;" horiz-adv-x="729" 
d="M324 1501l28 -43q-16 -10 -39 -30q-21 -18 -59 -76q-37 -56 -35 -111q40 -1 65 -30q23 -26 23 -70t-27 -71q-28 -28 -73 -28q-103 0 -103 134q0 59 23 116q22 54 54 92t65 65q37 31 55 40zM623 1501l26 -43q-1 0 -6 -4t-9 -7q-12 -10 -33 -31q-23 -23 -41 -47
q-17 -23 -31 -58q-13 -32 -11 -70q40 -1 65 -30q23 -26 23 -70t-27 -71q-28 -28 -73 -28q-103 0 -103 134q0 59 23 116q22 54 54 92t65 65q37 31 55 40z" />
    <glyph glyph-name="quotedblright" unicode="&#x201d;" horiz-adv-x="729" 
d="M111 1034l-29 43q16 11 39 30q19 17 59 77q37 56 35 110q-40 1 -65 30q-25 28 -25 69q0 45 29 72q30 28 73 28q103 0 103 -133q0 -60 -23 -117q-22 -54 -54 -92t-65 -65q-34 -28 -55 -39zM410 1034l-29 43q17 11 39 30q19 17 59 77q38 57 33 110q-38 1 -63 30
q-25 28 -25 69q0 45 29 72q30 28 73 28q103 0 103 -133q0 -60 -23 -117q-22 -54 -54 -92t-65 -65q-34 -28 -55 -39z" />
    <glyph glyph-name="quotedblbase" unicode="&#x201e;" horiz-adv-x="729" 
d="M100 -125l-28 41l6 4q5 4 9 7q12 10 33 31q20 20 41 48q14 19 32 60q14 31 12 69q-41 2 -66 30q-24 27 -24 68q0 44 28 72q29 29 74 29q102 0 102 -133q0 -63 -22 -117q-22 -55 -55 -92q-33 -38 -65 -65q-35 -30 -54 -40zM399 -125l-28 41q18 12 39 31q20 19 59 78
q38 57 33 110q-39 1 -64 30q-24 27 -24 68q0 44 28 72q29 29 74 29q102 0 102 -133q0 -63 -22 -117t-54 -92t-65 -65q-37 -31 -55 -40z" />
    <glyph glyph-name="dagger" unicode="&#x2020;" horiz-adv-x="1005" 
d="M434 1434h137l-20 -379l367 20v-137l-367 20l20 -542l-20 -621h-96l-21 621l21 542l-367 -20v137l367 -20z" />
    <glyph glyph-name="daggerdbl" unicode="&#x2021;" horiz-adv-x="1005" 
d="M434 1434h137l-20 -379l367 20v-137l-367 20l20 -325l-20 -336l367 20v-137l-367 21l20 -406h-137l21 406l-367 -21v137l367 -20l-21 336l21 325l-367 -20v137l367 -20z" />
    <glyph glyph-name="bullet" unicode="&#x2022;" horiz-adv-x="667" 
d="M172 614q0 74 45 119t117 45t117 -45t45 -119q0 -72 -46 -118q-47 -47 -116 -47q-72 0 -117 47q-45 46 -45 118z" />
    <glyph glyph-name="ellipsis" unicode="&#x2026;" horiz-adv-x="1312" 
d="M111 98q0 50 30 80q31 31 78 31q50 0 80 -30q31 -31 31 -81q0 -49 -31 -80q-30 -30 -80 -30q-48 0 -78 30t-30 80zM547 98q0 50 30 80q31 31 78 31q50 0 80 -30q31 -31 31 -81q0 -49 -31 -80q-30 -30 -80 -30q-47 0 -77 30q-31 31 -31 80zM983 98q0 49 31 80t78 31
q49 0 79 -30q31 -31 31 -81q0 -49 -31 -80q-30 -30 -79 -30q-48 0 -78 30q-31 31 -31 80z" />
    <glyph glyph-name="perthousand" unicode="&#x2030;" horiz-adv-x="2437" 
d="M436 0h-123l949 1434h122zM121 1075q0 173 87 272t230 99q142 0 229 -99t87 -272q0 -172 -87 -271t-229 -99q-143 0 -230 99t-87 271zM244 1079q0 -135 53 -208q53 -72 147 -72q24 0 56 5q26 4 45 11l14 4q9 9 21 27q10 15 32 84q21 66 21 143q0 134 -53 207
q-52 72 -146 72q-26 0 -56 -6q-21 -4 -46 -11l-17 -6q-10 -10 -20 -25q-13 -20 -32 -82q-19 -63 -19 -143zM944 358q0 173 87 272t231 99q140 0 229 -99q88 -98 88 -272q0 -173 -88 -271q-89 -99 -229 -99q-144 0 -231 99t-87 271zM1067 362q0 -135 54 -207q55 -73 149 -73
q23 0 55 5q26 4 43 11l16 4q9 9 21 27q13 19 32 84q19 64 19 143q0 136 -52 207q-52 72 -147 72q-26 0 -56 -6q-35 -7 -46 -10l-16 -7q-13 -13 -21 -25q-13 -20 -32 -82q-19 -63 -19 -143zM1683 358q0 173 87 272t229 99q143 0 230 -99t87 -272q0 -172 -87 -271t-228 -99
q-144 0 -231 99t-87 271zM1806 363q0 -134 54 -208q53 -73 147 -73q23 0 55 5q26 4 43 11l17 4q6 6 20 27q12 18 33 84q20 63 20 143q0 134 -53 207q-52 72 -147 72q-28 0 -56 -6q-37 -8 -45 -10l-16 -7q-10 -10 -20 -25q-13 -20 -32 -82q-20 -66 -20 -142z" />
    <glyph glyph-name="guilsinglleft" unicode="&#x2039;" horiz-adv-x="645" 
d="M467 268l-363 336v21l363 336l43 -54l-264 -293l264 -292z" />
    <glyph glyph-name="guilsinglright" unicode="&#x203a;" horiz-adv-x="645" 
d="M180 961l365 -336v-21l-365 -336l-43 54l266 292l-266 293z" />
    <glyph glyph-name="fraction" unicode="&#x2044;" horiz-adv-x="1589" 
d="M256 0h-125l1202 1434h125z" />
    <glyph glyph-name="Euro" unicode="&#x20ac;" horiz-adv-x="1341" 
d="M92 829v103h158q49 245 207 382q157 136 397 136q96 0 186 -23q88 -22 127 -45l41 -22l25 -326h-103l-53 248q-89 53 -246 53q-77 0 -144 -16q-69 -17 -99 -33l-31 -16q-14 -14 -29 -34q-19 -26 -56 -111q-38 -89 -56 -193h491v-103h-504q-4 -31 -4 -108q0 -52 4 -117
h504v-102h-489q39 -199 147 -301q109 -103 273 -103q52 0 117 13q62 12 94 24l30 15l54 251h102l-25 -327q-20 -12 -48 -26q-35 -17 -127 -40q-95 -24 -187 -24q-232 0 -389 136q-158 137 -207 382h-160v102h144q-5 82 -5 115q0 28 5 110h-144z" />
    <glyph glyph-name="uni20B4" unicode="&#x20b4;" horiz-adv-x="991" 
d="M86 543v94h819v-94h-555q-67 -79 -67 -189q0 -123 77 -190q79 -68 203 -68q67 0 135 18q70 19 103 36l35 18l28 -84q-21 -15 -40 -27q-27 -17 -111 -44q-85 -27 -178 -27q-190 0 -302 100t-112 264q0 110 57 193h-92zM86 825v95h561q62 79 62 182q0 115 -69 175t-185 60
q-74 0 -139 -17q-68 -18 -103 -36l-33 -18l-30 84q18 12 40 26q28 17 113 44q89 28 178 28q183 0 285 -93t102 -249q0 -107 -53 -186h90v-95h-819z" />
    <glyph glyph-name="afii61352" unicode="&#x2116;" horiz-adv-x="2314" 
d="M371 94l166 -12v-82h-453v78l166 26v1235l-166 13v82h315l693 -1076q29 -41 47 -86l6 2q-6 44 -6 84v981l-166 13v82h452v-78l-165 -27v-1329h-115l-729 1128q-26 43 -45 89l-6 -3q6 -46 6 -86v-1034zM1513 1034q0 190 98 300t257 110q160 0 256 -110t96 -300t-96 -300
q-96 -109 -256 -109t-257 109q-98 110 -98 300zM1642 1038q0 -158 61 -243q60 -84 171 -84q34 0 66 7q40 9 53 13l18 6q2 3 9.5 13l13.5 18q15 21 37 96t22 168q0 161 -61 243q-62 83 -170 83q-36 0 -68 -7t-53 -14l-21 -6q-1 -1 -8.5 -11t-12.5 -18q-14 -21 -35 -96
q-22 -80 -22 -168z" />
    <glyph glyph-name="trademark" unicode="&#x2122;" horiz-adv-x="1972" 
d="M1030 676l100 -6v-56h-284v52l100 18l58 688l-101 6v56h234l225 -555q14 -38 20 -64h4q11 45 21 68l225 551h226v-52l-99 -18l58 -688l98 -6v-56h-305v52l100 18l-47 576q0 10 -1 20t-1 23h-4q0 -4 -4 -20q-5 -22 -8 -26l-224 -548h-94l-12 12l-225 539q-11 22 -11 47h-4
v-47zM481 676l99 -6v-56h-301v52l96 18v676h-201l-33 -143h-69l16 217h684l14 -217h-69l-31 143h-205v-684z" />
    <glyph glyph-name="arrowleft" unicode="&#x2190;" horiz-adv-x="1277" 
d="M1161 618v-94h-874l262 -288l-43 -52l-404 377v21l404 374l43 -51l-262 -287h874z" />
    <glyph glyph-name="arrowup" unicode="&#x2191;" horiz-adv-x="989" 
d="M541 0h-95v877l-286 -265l-51 43l374 404h21l377 -404l-54 -43l-286 265v-877z" />
    <glyph glyph-name="arrowright" unicode="&#x2192;" horiz-adv-x="1277" 
d="M117 494v94h876l-264 286l43 52l404 -375v-21l-404 -376l-43 51l264 289h-876z" />
    <glyph glyph-name="arrowdown" unicode="&#x2193;" horiz-adv-x="989" 
d="M446 1059h95v-875l286 262l54 -43l-377 -403h-21l-374 403l51 43l286 -262v875z" />
    <glyph glyph-name="uni2196" unicode="&#x2196;" horiz-adv-x="989" 
d="M905 213l-65 -66l-621 617l-16 -387l-68 -8l-18 553l14 14l553 -21l-8 -67l-389 -19z" />
    <glyph glyph-name="uni2197" unicode="&#x2197;" horiz-adv-x="989" 
d="M150 147l-66 66l616 616l-387 19l-8 67l553 21l14 -14l-20 -553l-68 8l-18 387z" />
    <glyph glyph-name="uni2198" unicode="&#x2198;" horiz-adv-x="989" 
d="M84 870l66 66l616 -619l18 390l68 6l20 -551l-14 -15l-553 19l8 67l387 17z" />
    <glyph glyph-name="uni2199" unicode="&#x2199;" horiz-adv-x="989" 
d="M840 926l65 -66l-618 -620l389 -17l8 -67l-553 -19l-14 15l18 550l68 -6l16 -389z" />
    <glyph glyph-name="minus" unicode="&#x2212;" horiz-adv-x="1026" 
d="M129 645v103h768v-103h-768z" />
    <glyph glyph-name="approxequal" unicode="&#x2248;" horiz-adv-x="1026" 
d="M129 797v106q85 94 188 94q68 0 197 -57t199 -57q95 0 184 98v-109q-84 -94 -184 -94q-68 0 -198 58q-127 57 -196 57q-94 0 -190 -96zM713 393q-69 0 -198 59q-126 58 -196 58q-95 0 -190 -98v108q88 94 188 94q68 0 197 -57t197 -57q96 0 186 96v-107q-84 -96 -184 -96
z" />
    <glyph glyph-name="notequal" unicode="&#x2260;" horiz-adv-x="1026" 
d="M897 453h-432l-100 -238h-107l98 238h-227v102h272l119 283h-391v100h434l101 240h108l-102 -240h227v-100h-270l-119 -283h389v-102z" />
    <glyph glyph-name="lessequal" unicode="&#x2264;" horiz-adv-x="1026" 
d="M129 889l768 338v-113l-623 -276l623 -277v-112l-768 337v103zM897 225h-768v103h768v-103z" />
    <glyph glyph-name="greaterequal" unicode="&#x2265;" horiz-adv-x="1026" 
d="M897 889v-103l-768 -337v112l625 277l-625 276v113zM897 225h-768v103h768v-103z" />
    <glyph glyph-name="commaaccent" unicode="&#xf6c3;" horiz-adv-x="440" 
d="M117 -526l-25 37q19 13 35 27q19 16 53 69q33 50 31 100q-34 1 -56 27q-22 25 -22 59q0 37 25 62q24 24 63 24q88 0 88 -115q0 -56 -19 -104q-19 -49 -48 -82q-26 -30 -58 -57q-33 -28 -49 -37z" />
    <glyph glyph-name="zerooldstyle" unicode="&#xf730;" horiz-adv-x="1196" 
d="M117 614q0 292 132 462q132 169 349 169q218 0 348 -169q131 -170 131 -462q0 -291 -131 -461q-130 -169 -348 -169q-217 0 -349 170t-132 460zM281 618q0 -253 86 -387q85 -133 237 -133q43 0 95 13q49 12 71 24l25 12q4 4 8.5 11t11.5 17.5t12 17.5q21 30 54 150
q32 116 32 267q0 254 -85 387t-234 133q-49 0 -97 -12q-50 -12 -73 -24l-25 -15q-4 -5 -32 -45q-21 -30 -54 -149q-32 -115 -32 -267z" />
    <glyph glyph-name="oneoldstyle" unicode="&#xf731;" horiz-adv-x="880" 
d="M133 1069v78q222 27 395 96l17 -18v-1123l225 -10v-92h-614v92l239 27v950h-262z" />
    <glyph glyph-name="twooldstyle" unicode="&#xf732;" horiz-adv-x="1120" 
d="M975 963q0 -108 -72 -213q-73 -106 -166 -183q-57 -47 -244 -206q-154 -131 -253 -240h608l51 223h100l-22 -344h-875v121q108 127 248 252q149 134 235 204q89 73 158 171q68 97 68 192q0 190 -279 190q-80 0 -139 -14q-64 -15 -90 -31l-24 -14l-54 -231h-102l24 307
q10 8 40 27q28 17 127 44t221 27q227 0 333 -76q107 -77 107 -206z" />
    <glyph glyph-name="threeoldstyle" unicode="&#xf733;" horiz-adv-x="1114" 
d="M983 225q0 -222 -136 -333q-137 -111 -368 -111q-115 0 -206 23q-93 24 -134 49l-41 24l29 90l40 -20q29 -14 115 -34q93 -22 187 -22q51 0 127 9q54 6 96 16l31 8q7 5 27 27q15 16 43 91q26 69 26 167q0 161 -74 241q-72 78 -233 78h-92l-17 19v84q43 11 138 134
q93 121 172 243l75 116h-501l-49 -235h-103l25 340h782v-105q-212 -326 -377 -489v-12q418 -39 418 -398z" />
    <glyph glyph-name="fouroldstyle" unicode="&#xf734;" horiz-adv-x="1204" 
d="M901 1229v-926h195v-115h-191v-401h-151v399h-662v64l647 979h162zM248 307h512v776z" />
    <glyph glyph-name="fiveoldstyle" unicode="&#xf735;" horiz-adv-x="1073" 
d="M954 227q0 -225 -132 -336q-131 -110 -363 -110q-119 0 -210 23q-93 24 -134 49l-39 24l28 90q121 -76 330 -76q53 0 122 8q64 7 99 15l35 8q3 3 12 12.5t16 16.5q18 18 45 93q28 78 28 167q0 188 -118 272q-119 84 -384 84h-117l-16 17l75 645h670v-121h-565l-53 -432
q123 -2 210 -13q95 -12 182 -41q89 -29 149 -77q59 -47 95 -128q35 -79 35 -190z" />
    <glyph glyph-name="sixoldstyle" unicode="&#xf736;" horiz-adv-x="1167" 
d="M944 1341l-29 -84q-108 39 -262 39q-84 0 -145 -13q-62 -13 -86 -26l-23 -14q-9 -12 -29 -46q-18 -31 -51 -159q-32 -123 -38 -290q133 94 344 94q202 0 313 -105t111 -303q0 -206 -119 -328q-117 -120 -328 -120q-483 0 -483 698q0 723 518 723q83 0 157 -16
q75 -16 113 -33zM598 733q-168 0 -319 -76q0 -290 77 -425q78 -136 260 -136q48 0 95 9q35 7 71 18l23 8q4 4 24 30q15 20 39 94q25 78 25 165q0 162 -73 238q-72 75 -222 75z" />
    <glyph glyph-name="sevenoldstyle" unicode="&#xf737;" horiz-adv-x="1083" 
d="M528 -205h-161q29 171 88 356q66 207 111 317q51 124 146 343t132 313h-592l-49 -235h-103l25 340h864v-66q-43 -114 -163 -408q-125 -304 -195 -526q-71 -224 -103 -434z" />
    <glyph glyph-name="eightoldstyle" unicode="&#xf738;" horiz-adv-x="1161" 
d="M125 309q0 151 85 246q86 97 191 147q-239 108 -239 345q0 161 102 262q101 100 324 100q187 0 295 -78t108 -233q0 -244 -248 -375q137 -56 213 -136t76 -229q0 -170 -116 -272t-353 -102q-202 0 -320 79t-118 246zM887 348q0 30 -5 62q-4 27 -20 52q-1 2 -24 41
q-10 18 -39 36q-32 20 -42 28q-15 12 -52 26q-45 17 -53 20q-3 1 -12 4.5t-22 8t-27 8.5q-12 4 -27 8.5t-22.5 7t-11.5 3.5l-32 11q-232 -124 -232 -324q0 -122 89 -181t229 -59q66 0 127 12q67 13 92 23l28 12q56 86 56 201zM309 1067q0 -67 24 -117t75 -84q50 -34 95 -54
q37 -17 122 -46l18 -6q211 118 211 313q0 113 -78 167t-201 54q-59 0 -114 -12q-50 -11 -82 -25l-27 -10q-43 -76 -43 -180z" />
    <glyph glyph-name="nineoldstyle" unicode="&#xf739;" horiz-adv-x="1163" 
d="M170 -139l27 88q107 -58 295 -58q79 0 147 14q70 14 90 27l25 15l12 16q12 17 30 54q22 45 38 101t31 154q16 103 20 213q-133 -94 -342 -94q-202 0 -314 103q-110 101 -110 301q0 206 118 327t326 121q484 0 484 -708q0 -754 -549 -754q-94 0 -174 19q-82 19 -119 40z
M567 500q155 0 320 73q-1 288 -80 425q-78 137 -256 137q-43 0 -95 -10q-48 -9 -69 -19l-22 -8q-5 -5 -25 -29q-15 -18 -39 -94q-25 -80 -25 -168q0 -162 71 -235q71 -72 220 -72z" />
    <glyph glyph-name="A.smcp" horiz-adv-x="1269" 
d="M559 1147h139l19 -19l391 -1044l135 -10v-74h-438v68l135 28l-96 256h-469l-103 -268l140 -10v-74h-385v70l129 26zM580 909l-172 -458h403l-170 458q-14 39 -27 97h-6q-18 -72 -28 -97z" />
    <glyph glyph-name="Aacute.smcp" horiz-adv-x="1269" 
d="M559 1147h139l19 -19l391 -1044l135 -10v-74h-438v68l135 28l-96 256h-469l-103 -268l140 -10v-74h-385v70l129 26zM580 909l-172 -458h403l-170 458q-14 39 -27 97h-6q-18 -72 -28 -97zM524 1249l228 244l92 -90l-256 -184z" />
    <glyph glyph-name="Abreve.smcp" horiz-adv-x="1269" 
d="M559 1147h139l19 -19l391 -1044l135 -10v-74h-438v68l135 28l-96 256h-469l-103 -268l140 -10v-74h-385v70l129 26zM580 909l-172 -458h403l-170 458q-14 39 -27 97h-6q-18 -72 -28 -97zM809 1421l47 -18q0 -1 -2 -7t-3 -11q-2 -8 -20 -39q-19 -33 -37 -51
q-21 -21 -65 -39q-41 -17 -94 -17q-82 0 -137 40q-56 41 -72 81l-14 39l75 26q3 -7 14 -28q9 -17 51 -45q43 -29 99 -29q53 0 94 25q40 24 52 49z" />
    <glyph glyph-name="Acircumflex.smcp" horiz-adv-x="1269" 
d="M559 1147h139l19 -19l391 -1044l135 -10v-74h-438v68l135 28l-96 256h-469l-103 -268l140 -10v-74h-385v70l129 26zM580 909l-172 -458h403l-170 458q-14 39 -27 97h-6q-18 -72 -28 -97zM395 1249l230 234h18l231 -234l-63 -30l-178 137l-178 -137z" />
    <glyph glyph-name="Agrave.smcp" horiz-adv-x="1269" 
d="M559 1147h139l19 -19l391 -1044l135 -10v-74h-438v68l135 28l-96 256h-469l-103 -268l140 -10v-74h-385v70l129 26zM580 909l-172 -458h403l-170 458q-14 39 -27 97h-6q-18 -72 -28 -97zM403 1403l91 90l227 -244l-62 -30z" />
    <glyph glyph-name="Adieresis.smcp" horiz-adv-x="1269" 
d="M559 1147h139l19 -19l391 -1044l135 -10v-74h-438v68l135 28l-96 256h-469l-103 -268l140 -10v-74h-385v70l129 26zM580 909l-172 -458h403l-170 458q-14 39 -27 97h-6q-18 -72 -28 -97zM385 1346q0 37 23 58q22 21 61 21q36 0 60 -21t24 -58q0 -36 -24 -58
q-23 -22 -60 -22q-39 0 -61 22q-23 23 -23 58zM715 1346q0 38 23 58q24 21 61 21q36 0 60 -21t24 -58q0 -36 -24 -58q-23 -22 -60 -22q-38 0 -61 22t-23 58z" />
    <glyph glyph-name="Amacron.smcp" horiz-adv-x="1269" 
d="M559 1147h139l19 -19l391 -1044l135 -10v-74h-438v68l135 28l-96 256h-469l-103 -268l140 -10v-74h-385v70l129 26zM580 909l-172 -458h403l-170 458q-14 39 -27 97h-6q-18 -72 -28 -97zM406 1278v90h456v-90h-456z" />
    <glyph glyph-name="Aogonek.smcp" horiz-adv-x="1269" 
d="M1065 -178q0 -80 84 -80q25 0 44 4q27 6 32 8l12 6l10 -39q-43 -43 -133 -43q-70 0 -108 34q-39 35 -39 93q0 55 31 102q29 45 63 70l33 23h-289v68l135 28l-96 256h-469l-103 -268l140 -10v-74h-385v70l129 26l403 1051h139l19 -19l391 -1044l135 -10v-74h-80
q-4 -3 -26 -25q-19 -19 -44 -62q-28 -48 -28 -91zM580 909l-172 -458h403l-170 458q-14 39 -27 97h-6q-18 -72 -28 -97z" />
    <glyph glyph-name="Aring.smcp" horiz-adv-x="1269" 
d="M559 1147h139l19 -19l391 -1044l135 -10v-74h-438v68l135 28l-96 256h-469l-103 -268l140 -10v-74h-385v70l129 26zM580 909l-172 -458h403l-170 458q-14 39 -27 97h-6q-18 -72 -28 -97zM485 1358q0 63 40 100t106 37q68 0 108 -37q41 -38 41 -100q0 -60 -41 -98
q-40 -37 -108 -37q-66 0 -106 37t-40 98zM559 1362q0 -76 80 -76l55 8q15 22 15 60q0 78 -78 78l-58 -11q-14 -20 -14 -59z" />
    <glyph glyph-name="Atilde.smcp" horiz-adv-x="1269" 
d="M559 1147h139l19 -19l391 -1044l135 -10v-74h-438v68l135 28l-96 256h-469l-103 -268l140 -10v-74h-385v70l129 26zM580 909l-172 -458h403l-170 458q-14 39 -27 97h-6q-18 -72 -28 -97zM399 1262l-34 38q3 4 11.5 14.5t14.5 17.5q14 17 67 52q50 33 99 33q35 0 103 -31
q66 -30 112 -30l98 65l35 -39q-4 -4 -12.5 -15t-13.5 -16q-16 -19 -67 -53q-48 -32 -97 -32q-40 0 -105 31q-67 32 -110 32z" />
    <glyph glyph-name="AE.smcp" horiz-adv-x="1466" 
d="M1343 0h-690v68l135 28l-43 256h-358l-115 -268l140 -10v-74h-385v70l129 26l438 1051h729l20 -279h-94l-45 181h-428l70 -418h178l23 137h75v-373h-75l-23 137h-162l72 -434h291l43 185h96zM612 909l-194 -458h319l-86 559h-6q-12 -52 -33 -101z" />
    <glyph glyph-name="AEacute.smcp" horiz-adv-x="1466" 
d="M1343 0h-690v68l135 28l-43 256h-358l-115 -268l140 -10v-74h-385v70l129 26l438 1051h729l20 -279h-94l-45 181h-428l70 -418h178l23 137h75v-373h-75l-23 137h-162l72 -434h291l43 185h96zM612 909l-194 -458h319l-86 559h-6q-12 -52 -33 -101zM618 1249l228 244
l90 -90l-256 -184z" />
    <glyph glyph-name="B.smcp" horiz-adv-x="1114" 
d="M606 0h-512v70l135 26v967l-135 10v74h471q183 0 293 -79q111 -80 111 -216q0 -90 -53 -160q-53 -69 -130 -96q-10 -2 -24 -2v-6q10 0 24 -2q100 -28 161 -103t61 -176q0 -141 -111 -224q-112 -83 -291 -83zM575 537h-202v-437h209q37 0 89 5q34 3 70 10l25 6q11 6 25 19
q12 11 38 64q25 52 25 111q0 222 -279 222zM535 1049h-162v-414h170q37 0 89 5q42 4 70 11l25 4q4 3 25 19q15 12 39 59t24 105q0 104 -74 157q-76 54 -206 54z" />
    <glyph glyph-name="C.smcp" horiz-adv-x="1071" 
d="M866 823l-45 193q-74 41 -205 41q-58 0 -120 -13q-59 -12 -82 -24l-25 -12q-7 -5 -14 -15q-18 -25 -31 -47q-23 -38 -39 -82q-15 -42 -31 -123q-14 -73 -14 -166q0 -237 95 -362t266 -125q52 0 99 10q51 11 77 21l26 10l45 199h97l-23 -271q-133 -69 -311 -69
q-239 0 -383 156t-144 431t143 430q142 154 390 154q86 0 158 -17q75 -18 110 -36l35 -16l23 -267h-97z" />
    <glyph glyph-name="Cacute.smcp" horiz-adv-x="1071" 
d="M866 823l-45 193q-74 41 -205 41q-58 0 -120 -13q-59 -12 -82 -24l-25 -12q-7 -5 -14 -15q-18 -25 -31 -47q-23 -38 -39 -82q-15 -42 -31 -123q-14 -73 -14 -166q0 -237 95 -362t266 -125q52 0 99 10q51 11 77 21l26 10l45 199h97l-23 -271q-133 -69 -311 -69
q-239 0 -383 156t-144 431t143 430q142 154 390 154q86 0 158 -17q75 -18 110 -36l35 -16l23 -267h-97zM506 1249l225 244l92 -90l-256 -184z" />
    <glyph glyph-name="Ccaron.smcp" horiz-adv-x="1071" 
d="M866 823l-45 193q-74 41 -205 41q-58 0 -120 -13q-59 -12 -82 -24l-25 -12q-7 -5 -14 -15q-18 -25 -31 -47q-23 -38 -39 -82q-15 -42 -31 -123q-14 -73 -14 -166q0 -237 95 -362t266 -125q52 0 99 10q51 11 77 21l26 10l45 199h97l-23 -271q-133 -69 -311 -69
q-239 0 -383 156t-144 431t143 430q142 154 390 154q86 0 158 -17q75 -18 110 -36l35 -16l23 -267h-97zM602 1219l-221 225l49 43l182 -144l183 144l49 -43l-223 -225h-19z" />
    <glyph glyph-name="Ccedilla.smcp" horiz-adv-x="1071" 
d="M555 -145l14 137q-215 18 -340 173t-125 410q0 275 143 430q142 154 390 154q86 0 158 -17q75 -18 110 -36l35 -16l23 -267h-97l-45 193q-74 41 -205 41q-58 0 -120 -13q-59 -12 -82 -24l-25 -12q-7 -5 -14 -15q-18 -25 -31 -47q-23 -38 -39 -82q-15 -42 -31 -123
q-14 -73 -14 -166q0 -237 95 -362t266 -125q52 0 99 10q51 11 77 21l26 10l45 199h97l-23 -271q-126 -64 -301 -69l-12 -97q7 0 12 -1q18 -4 30 -7q24 -7 37 -16q14 -9 28 -32q14 -22 14 -50q0 -55 -49 -86q-50 -31 -130 -31q-34 0 -58 4q-29 5 -40 9l-12 6l18 71
q29 -26 92 -26l70 8q8 26 8 45q0 29 -23 46t-48 22z" />
    <glyph glyph-name="Ccircumflex.smcp" horiz-adv-x="1071" 
d="M866 823l-45 193q-74 41 -205 41q-58 0 -120 -13q-59 -12 -82 -24l-25 -12q-7 -5 -14 -15q-18 -25 -31 -47q-23 -38 -39 -82q-15 -42 -31 -123q-14 -73 -14 -166q0 -237 95 -362t266 -125q52 0 99 10q51 11 77 21l26 10l45 199h97l-23 -271q-133 -69 -311 -69
q-239 0 -383 156t-144 431t143 430q142 154 390 154q86 0 158 -17q75 -18 110 -36l35 -16l23 -267h-97zM381 1249l229 234h19l231 -234l-61 -30l-181 137l-178 -137z" />
    <glyph glyph-name="Cdotaccent.smcp" horiz-adv-x="1071" 
d="M866 823l-45 193q-74 41 -205 41q-58 0 -120 -13q-59 -12 -82 -24l-25 -12q-7 -5 -14 -15q-18 -25 -31 -47q-23 -38 -39 -82q-15 -42 -31 -123q-14 -73 -14 -166q0 -237 95 -362t266 -125q52 0 99 10q51 11 77 21l26 10l45 199h97l-23 -271q-133 -69 -311 -69
q-239 0 -383 156t-144 431t143 430q142 154 390 154q86 0 158 -17q75 -18 110 -36l35 -16l23 -267h-97zM504 1354q0 44 28 71t74 27t73 -27q28 -28 28 -71t-28 -71t-73 -28q-44 0 -74 28q-28 27 -28 71z" />
    <glyph glyph-name="D.smcp" horiz-adv-x="1187" 
d="M590 0h-496v70l135 26v967l-135 10v74h496q221 0 356 -153t135 -421q0 -267 -135 -420t-356 -153zM578 1049h-205v-951h213q51 0 104 11q54 11 76 18l22 10q9 7 16 15q9 10 33 48t42 84q16 42 32 125q15 79 15 171q0 232 -92 351q-91 118 -256 118z" />
    <glyph glyph-name="Dcaron.smcp" horiz-adv-x="1187" 
d="M590 0h-496v70l135 26v967l-135 10v74h496q221 0 356 -153t135 -421q0 -267 -135 -420t-356 -153zM578 1049h-205v-951h213q51 0 104 11q54 11 76 18l22 10q9 7 16 15q9 10 33 48t42 84q16 42 32 125q15 79 15 171q0 232 -92 351q-91 118 -256 118zM551 1219l-223 225
l51 43l182 -144l180 144l50 -43l-222 -225h-18z" />
    <glyph glyph-name="Dcroat.smcp" horiz-adv-x="1191" 
d="M100 537v79l136 21v426l-136 10v74h496q221 0 356 -153t135 -421q0 -267 -135 -420t-356 -153h-496v70l136 26v441h-136zM584 1049h-205v-414h262v-98h-262v-439h213q51 0 103 11q54 11 75 18l25 10q6 5 15 15t33 48t42 84q18 47 33 125q14 74 14 171q0 232 -92 351
q-91 118 -256 118z" />
    <glyph glyph-name="Eth.smcp" horiz-adv-x="1191" 
d="M100 537v79l136 21v426l-136 10v74h496q221 0 356 -153t135 -421q0 -267 -135 -420t-356 -153h-496v70l136 26v441h-136zM584 1049h-205v-414h262v-98h-262v-439h213q51 0 103 11q54 11 75 18l25 10q6 5 15 15t33 48t42 84q18 47 33 125q14 74 14 171q0 232 -92 351
q-91 118 -256 118z" />
    <glyph glyph-name="Thorn.smcp" horiz-adv-x="1087" 
d="M373 86l155 -6v-80h-434v70l135 26v967l-135 10v74h414v-70l-135 -26v-142h198q184 0 295 -84t111 -235q0 -152 -111 -236t-293 -84h-200v-184zM543 811h-170v-440h176q36 0 86 5q47 5 70 9l22 4q12 7 26 21q16 16 42 65t26 115q0 221 -278 221z" />
    <glyph glyph-name="E.smcp" horiz-adv-x="1083" 
d="M958 0h-864v70l135 26v967l-135 10v74h844l20 -279h-94l-43 181h-448v-418h256l22 137h80v-373h-80l-22 137h-256v-434h469l43 185h94z" />
    <glyph glyph-name="Eacute.smcp" horiz-adv-x="1083" 
d="M958 0h-864v70l135 26v967l-135 10v74h844l20 -279h-94l-43 181h-448v-418h256l22 137h80v-373h-80l-22 137h-256v-434h469l43 185h94zM432 1249l227 244l93 -90l-256 -184z" />
    <glyph glyph-name="Ebreve.smcp" horiz-adv-x="1083" 
d="M958 0h-864v70l135 26v967l-135 10v74h844l20 -279h-94l-43 181h-448v-418h256l22 137h80v-373h-80l-22 137h-256v-434h469l43 185h94zM733 1421l47 -18q0 -1 -2 -7t-3 -11q-3 -11 -19 -39q-18 -31 -38 -51q-21 -21 -65 -39q-41 -17 -94 -17q-82 0 -137 40t-70 81l-16 39
l74 26q0 -2 2 -5l3 -6q2 -6 16 -24q13 -17 30 -31q15 -12 47 -25q28 -11 65 -11q36 0 65 10t47 25q20 17 29 28q9 12 15 25z" />
    <glyph glyph-name="Ecaron.smcp" horiz-adv-x="1083" 
d="M958 0h-864v70l135 26v967l-135 10v74h844l20 -279h-94l-43 181h-448v-418h256l22 137h80v-373h-80l-22 137h-256v-434h469l43 185h94zM545 1219l-223 225l51 43l182 -144l180 144l51 -43l-225 -225h-16z" />
    <glyph glyph-name="Ecircumflex.smcp" horiz-adv-x="1083" 
d="M958 0h-864v70l135 26v967l-135 10v74h844l20 -279h-94l-43 181h-448v-418h256l22 137h80v-373h-80l-22 137h-256v-434h469l43 185h94zM301 1249l229 234h21l231 -234l-63 -30l-178 137l-179 -137z" />
    <glyph glyph-name="Edieresis.smcp" horiz-adv-x="1083" 
d="M958 0h-864v70l135 26v967l-135 10v74h844l20 -279h-94l-43 181h-448v-418h256l22 137h80v-373h-80l-22 137h-256v-434h469l43 185h94zM297 1346q0 37 22 58q23 21 60 21q39 0 61 -21q23 -21 23 -58q0 -35 -23 -58q-22 -22 -61 -22q-35 0 -58 22q-24 22 -24 58zM627 1346
q0 37 22 58q23 21 60 21q39 0 61 -21q23 -21 23 -58q0 -35 -23 -58q-22 -22 -61 -22q-38 0 -60 22t-22 58z" />
    <glyph glyph-name="Edotaccent.smcp" horiz-adv-x="1083" 
d="M958 0h-864v70l135 26v967l-135 10v74h844l20 -279h-94l-43 181h-448v-418h256l22 137h80v-373h-80l-22 137h-256v-434h469l43 185h94zM457 1352q0 44 27 71t75 27q46 0 73 -27t27 -71t-27 -71q-28 -28 -73 -28q-44 0 -74 28q-28 27 -28 71z" />
    <glyph glyph-name="Egrave.smcp" horiz-adv-x="1083" 
d="M958 0h-864v70l135 26v967l-135 10v74h844l20 -279h-94l-43 181h-448v-418h256l22 137h80v-373h-80l-22 137h-256v-434h469l43 185h94zM317 1403l93 90l225 -244l-62 -30z" />
    <glyph glyph-name="Emacron.smcp" horiz-adv-x="1083" 
d="M958 0h-864v70l135 26v967l-135 10v74h844l20 -279h-94l-43 181h-448v-418h256l22 137h80v-373h-80l-22 137h-256v-434h469l43 185h94zM326 1278v90h456v-90h-456z" />
    <glyph glyph-name="Eogonek.smcp" horiz-adv-x="1083" 
d="M797 -178q0 -80 86 -80q25 0 44 4q25 5 31 8l13 6l10 -39q-44 -43 -133 -43q-71 0 -109 34q-39 34 -39 93q0 53 32 102q29 45 63 70l32 23h-733v70l135 26v967l-135 10v74h844l20 -279h-94l-43 181h-448v-418h256l22 137h80v-373h-80l-22 137h-256v-434h469l43 185h94
l-21 -283h-63q-7 -5 -27 -25q-19 -19 -44 -62q-27 -46 -27 -91z" />
    <glyph glyph-name="F.smcp" horiz-adv-x="1034" 
d="M528 0h-434v70l135 26v967l-135 10v74h828l22 -283h-96l-41 185h-434v-428h243l23 135h82v-371h-82l-23 137h-243v-436l155 -6v-80z" />
    <glyph glyph-name="G.smcp" horiz-adv-x="1126" 
d="M956 494v-435q-127 -71 -317 -71q-247 0 -391 156t-144 431t143 430q142 154 390 154q86 0 158 -17q75 -18 110 -36l35 -16l23 -267h-97l-45 193q-74 41 -205 41q-58 0 -120 -13q-59 -12 -82 -24l-25 -12q-7 -5 -14 -15q-18 -25 -31 -47q-23 -38 -39 -82
q-15 -42 -31 -123q-14 -73 -14 -166q0 -238 94 -362q95 -125 267 -125q34 0 62 4q37 5 56 10q9 2 23.5 6.5t19.5 5.5q18 4 33 9l12 6v373l-155 12v72h409v-70z" />
    <glyph glyph-name="Gbreve.smcp" horiz-adv-x="1126" 
d="M956 494v-435q-127 -71 -317 -71q-247 0 -391 156t-144 431t143 430q142 154 390 154q86 0 158 -17q75 -18 110 -36l35 -16l23 -267h-97l-45 193q-74 41 -205 41q-58 0 -120 -13q-59 -12 -82 -24l-25 -12q-7 -5 -14 -15q-18 -25 -31 -47q-23 -38 -39 -82
q-15 -42 -31 -123q-14 -73 -14 -166q0 -238 94 -362q95 -125 267 -125q34 0 62 4q37 5 56 10q9 2 23.5 6.5t19.5 5.5q18 4 33 9l12 6v373l-155 12v72h409v-70zM774 1421l47 -18q0 -1 -2 -7t-3 -11q-3 -11 -19 -39q-18 -31 -38 -51q-21 -21 -65 -39q-41 -17 -94 -17
q-82 0 -137 40t-70 81l-16 39l76 26q5 -13 13 -28q9 -16 50 -45t98 -29q54 0 96 25q39 23 52 49z" />
    <glyph glyph-name="Gcircumflex.smcp" horiz-adv-x="1126" 
d="M956 494v-435q-127 -71 -317 -71q-247 0 -391 156t-144 431t143 430q142 154 390 154q86 0 158 -17q75 -18 110 -36l35 -16l23 -267h-97l-45 193q-74 41 -205 41q-58 0 -120 -13q-59 -12 -82 -24l-25 -12q-7 -5 -14 -15q-18 -25 -31 -47q-23 -38 -39 -82
q-15 -42 -31 -123q-14 -73 -14 -166q0 -238 94 -362q95 -125 267 -125q34 0 62 4q37 5 56 10q9 2 23.5 6.5t19.5 5.5q18 4 33 9l12 6v373l-155 12v72h409v-70zM377 1249l229 234h19l231 -234l-61 -30l-179 137l-178 -137z" />
    </font>
</defs>
</svg>
